<svg width="688" height="160" viewBox="0 0 688 160" fill="none" xmlns="http://www.w3.org/2000/svg">
<path d="M0 159.108L43.3918 85.3542L86.6432 159.108H0Z" fill="#E00600"/>
<path d="M86.6431 0L43.3918 73.7541L0 0H86.6431Z" fill="#1858FD"/>
<path d="M76.3924 77.4736H9.6842V81.1052H76.3924V77.4736Z" fill="#1C1C1C"/>
<path d="M454.106 59.9632V71.2198H423.422V59.9632H454.106ZM428.633 10.5179V71.2198H413.999V10.5179H428.633Z" fill="#1C1C1C"/>
<path d="M404.931 59.9632V71.2198H372.579V59.9632H404.931ZM377.79 10.5179V71.2198H363.157V10.5179H377.79ZM400.762 34.6152V45.4965H372.579V34.6152H400.762ZM405.056 10.5179V21.8162H372.579V10.5179H405.056Z" fill="#1C1C1C"/>
<path d="M325.555 56.9198L338.187 10.5179H354.571L334.101 71.2198H323.512L325.555 56.9198ZM314.09 10.5179L326.722 56.9198L328.848 71.2198H318.134L297.789 10.5179H314.09Z" fill="#1C1C1C"/>
<path d="M275.248 10.5179H289.882V50.1659C289.882 54.8909 288.895 58.8932 286.922 62.1729C284.948 65.4247 282.183 67.8845 278.625 69.5521C275.068 71.2198 270.885 72.0536 266.076 72.0536C261.323 72.0536 257.14 71.2198 253.527 69.5521C249.942 67.8845 247.135 65.4247 245.106 62.1729C243.105 58.8932 242.104 54.8909 242.104 50.1659V10.5179H256.779V50.1659C256.779 52.6674 257.14 54.7102 257.863 56.2945C258.586 57.8509 259.642 58.9905 261.032 59.7131C262.421 60.4357 264.103 60.7971 266.076 60.7971C268.077 60.7971 269.759 60.4357 271.121 59.7131C272.483 58.9905 273.511 57.8509 274.206 56.2945C274.901 54.7102 275.248 52.6674 275.248 50.1659V10.5179Z" fill="#1C1C1C"/>
<path d="M234.65 39.6599V42.1197C234.65 46.7612 233.997 50.9303 232.691 54.6269C231.412 58.2957 229.592 61.4364 227.229 64.049C224.867 66.6339 222.074 68.6211 218.85 70.0108C215.626 71.3727 212.068 72.0537 208.177 72.0537C204.258 72.0537 200.672 71.3727 197.421 70.0108C194.196 68.6211 191.389 66.6339 188.999 64.049C186.636 61.4364 184.802 58.2957 183.496 54.6269C182.217 50.9303 181.578 46.7612 181.578 42.1197V39.6599C181.578 35.0183 182.217 30.8492 183.496 27.1527C184.802 23.4561 186.623 20.3154 188.957 17.7305C191.32 15.1179 194.113 13.1306 197.337 11.7687C200.589 10.3791 204.174 9.6842 208.093 9.6842C211.985 9.6842 215.542 10.3791 218.766 11.7687C222.018 13.1306 224.825 15.1179 227.188 17.7305C229.55 20.3154 231.385 23.4561 232.691 27.1527C233.997 30.8492 234.65 35.0183 234.65 39.6599ZM219.808 42.1197V39.5765C219.808 36.5748 219.544 33.9344 219.016 31.6553C218.516 29.3484 217.766 27.4167 216.765 25.8602C215.764 24.3038 214.528 23.1364 213.055 22.3582C211.609 21.5522 209.956 21.1492 208.093 21.1492C206.148 21.1492 204.452 21.5522 203.007 22.3582C201.562 23.1364 200.353 24.3038 199.38 25.8602C198.407 27.4167 197.671 29.3484 197.17 31.6553C196.698 33.9344 196.462 36.5748 196.462 39.5765V42.1197C196.462 45.0936 196.698 47.734 197.17 50.0409C197.671 52.32 198.407 54.2517 199.38 55.8359C200.381 57.4202 201.603 58.6153 203.049 59.4213C204.522 60.2274 206.231 60.6304 208.177 60.6304C210.039 60.6304 211.693 60.2274 213.138 59.4213C214.583 58.6153 215.792 57.4202 216.765 55.8359C217.766 54.2517 218.516 52.32 219.016 50.0409C219.544 47.734 219.808 45.0936 219.808 42.1197Z" fill="#1C1C1C"/>
<path d="M174.169 10.5179V71.2198H159.577L138.107 33.4479V71.2198H123.473V10.5179H138.107L159.577 48.2898V10.5179H174.169Z" fill="#1C1C1C"/>
<path d="M122.959 100.272V103.702H139.324V147.843H143.473V103.702H159.838V100.272H122.959Z" fill="#1C1C1C"/>
<path d="M178.277 124.972H200.635V121.541H178.277V103.702H203.862V100.272H174.359V147.843H204.093V144.412H178.277V124.972Z" fill="#1C1C1C"/>
<path d="M223.456 111.478C224.609 108.734 226.222 106.675 228.297 105.303C230.371 103.702 232.906 103.016 235.903 103.016C240.052 103.016 243.048 104.16 245.353 106.218C247.428 108.276 248.811 111.25 249.272 115.138H253.421C253.19 111.936 252.268 109.191 250.885 106.675C249.502 104.388 247.428 102.559 245.123 101.415C242.587 100.272 239.821 99.5856 236.364 99.5856C232.676 99.5856 229.449 100.5 226.683 102.33C223.917 104.16 221.843 106.675 220.229 109.877C218.846 113.079 217.924 116.739 217.924 121.084V127.03C217.924 131.376 218.616 135.035 220.229 138.237C221.612 141.439 223.917 143.955 226.453 145.784C229.219 147.614 232.215 148.529 235.903 148.529C239.36 148.529 242.357 147.843 244.892 146.699C247.428 145.556 249.272 143.726 250.885 141.439C252.268 139.152 253.19 136.407 253.421 133.205H249.272C248.811 135.95 248.119 138.008 247.197 139.838C246.045 141.668 244.662 143.04 242.818 143.955C240.974 144.869 238.669 145.327 235.672 145.327C232.676 145.327 230.14 144.641 228.066 143.04C225.992 141.439 224.378 139.38 223.226 136.636C222.073 133.892 221.612 130.918 221.612 127.259V121.313C221.612 117.425 222.304 114.223 223.456 111.478Z" fill="#1C1C1C"/>
<path d="M301.134 121.541H273.936V100.272H269.787V147.843H273.936V124.972H301.134V147.843H305.283V100.272H301.134V121.541Z" fill="#1C1C1C"/>
<path d="M355.76 140.981L328.331 100.272H324.182V147.843H328.331V107.133L355.76 147.843H359.909V100.272H355.76V140.981Z" fill="#1C1C1C"/>
<path d="M405.319 102.33C402.553 100.5 399.326 99.5856 395.408 99.5856C391.72 99.5856 388.493 100.5 385.727 102.33C382.961 104.16 380.656 106.675 379.273 109.877C377.66 113.079 376.968 116.967 376.968 121.541V126.573C376.968 130.918 377.66 134.806 379.273 138.237C380.887 141.439 382.961 143.955 385.727 145.784C388.493 147.614 391.72 148.529 395.408 148.529C399.096 148.529 402.553 147.614 405.319 145.784C408.085 143.955 410.16 141.439 411.773 138.237C413.387 135.035 414.078 131.147 414.078 126.573V121.541C414.078 117.196 413.387 113.308 411.773 109.877C410.39 106.675 408.085 104.16 405.319 102.33ZM410.16 126.573C410.16 130.232 409.699 133.663 408.546 136.407C407.394 139.152 405.78 141.21 403.475 142.811C401.401 144.412 398.635 145.098 395.638 145.098C392.642 145.098 390.107 144.412 387.802 142.811C385.497 141.21 383.883 139.152 382.731 136.407C381.578 133.663 380.887 130.461 380.887 126.573V121.313C380.887 117.653 381.578 114.223 382.731 111.707C383.883 108.963 385.497 106.904 387.802 105.303C389.876 103.702 392.642 103.016 395.638 103.016C398.635 103.016 401.401 103.702 403.475 105.303C405.55 106.904 407.394 108.963 408.546 111.707C409.699 114.451 410.39 117.653 410.39 121.313V126.573H410.16Z" fill="#1C1C1C"/>
<path d="M435.283 100.272H431.134V147.843H458.794V144.412H435.283V100.272Z" fill="#1C1C1C"/>
<path d="M497.748 102.33C494.982 100.5 491.755 99.5856 487.836 99.5856C484.148 99.5856 480.921 100.5 478.155 102.33C475.389 104.16 473.084 106.675 471.701 109.877C470.088 113.079 469.396 116.967 469.396 121.541V126.573C469.396 130.918 470.088 134.806 471.701 138.237C473.315 141.439 475.389 143.955 478.155 145.784C480.921 147.614 484.148 148.529 487.836 148.529C491.524 148.529 494.982 147.614 497.748 145.784C500.514 143.955 502.588 141.439 504.201 138.237C505.815 135.035 506.506 131.147 506.506 126.573V121.541C506.506 117.196 505.815 113.308 504.201 109.877C502.818 106.675 500.514 104.16 497.748 102.33ZM502.588 126.573C502.588 130.232 502.127 133.663 500.974 136.407C499.822 139.152 498.209 141.21 495.904 142.811C493.829 144.412 491.063 145.098 488.067 145.098C485.07 145.098 482.535 144.412 480.23 142.811C477.925 141.21 476.311 139.152 475.159 136.407C474.006 133.663 473.315 130.461 473.315 126.573V121.313C473.315 117.653 474.006 114.223 475.159 111.707C476.311 108.963 477.925 106.904 480.23 105.303C482.304 103.702 485.07 103.016 488.067 103.016C491.063 103.016 493.829 103.702 495.904 105.303C497.978 106.904 499.822 108.963 500.974 111.707C502.127 114.451 502.818 117.653 502.818 121.313V126.573H502.588Z" fill="#1C1C1C"/>
<path d="M554.219 128.631V140.981C553.758 141.439 553.066 142.125 551.914 142.811C550.761 143.497 549.378 143.955 547.765 144.412C546.151 144.869 544.077 145.098 541.541 145.098C538.545 145.098 535.779 144.412 533.474 142.811C531.169 141.21 529.325 139.152 528.172 136.407C527.02 133.663 526.328 130.461 526.328 126.802V120.855C526.328 117.196 526.789 114.223 527.942 111.478C529.094 108.734 530.708 106.675 532.782 105.303C534.857 103.702 537.623 103.016 540.619 103.016C543.616 103.016 545.921 103.474 547.765 104.388C549.609 105.303 550.992 106.675 551.914 108.276C552.836 109.877 553.527 111.707 553.758 113.537H557.907C557.676 110.792 556.754 108.505 555.371 106.447C553.988 104.388 552.144 102.559 549.609 101.415C547.073 100.272 544.077 99.5856 540.619 99.5856C536.701 99.5856 533.474 100.5 530.708 102.101C527.942 103.931 525.867 106.218 524.254 109.42C522.64 112.622 521.949 116.281 521.949 120.855V126.573C521.949 130.918 522.871 134.806 524.484 138.008C526.098 141.21 528.403 143.726 531.169 145.556C534.165 147.385 537.392 148.3 541.08 148.3C544.538 148.3 547.304 147.843 549.609 147.156C551.914 146.47 553.758 145.556 554.91 144.641C556.293 143.726 557.215 142.811 557.676 141.896V125.201H540.85V128.631H554.219Z" fill="#1C1C1C"/>
<path d="M581.417 100.272H577.268V147.843H581.417V100.272Z" fill="#1C1C1C"/>
<path d="M605.159 124.972H627.517V121.541H605.159V103.702H630.744V100.272H601.01V147.843H630.744V144.412H605.159V124.972Z" fill="#1C1C1C"/>
<path d="M675.46 129.546C674.308 127.716 672.464 126.344 670.159 124.972C667.854 123.828 664.857 122.685 661.4 121.77C658.173 120.855 655.637 119.94 653.794 119.026C651.95 118.111 650.567 116.967 649.875 115.824C649.184 114.68 648.723 113.308 648.723 111.707C648.723 110.106 649.184 108.734 650.106 107.362C651.028 105.989 652.41 105.075 654.024 104.16C655.868 103.474 657.942 103.016 660.708 103.016C663.244 103.016 665.549 103.474 667.393 104.388C669.237 105.303 670.62 106.676 671.542 108.276C672.464 109.877 672.925 111.707 672.925 113.765H677.074C677.074 111.021 676.382 108.734 674.999 106.676C673.616 104.617 671.772 102.787 669.237 101.644C666.701 100.272 663.935 99.8143 660.478 99.8143C657.251 99.8143 654.485 100.272 652.18 101.415C649.645 102.33 647.801 103.931 646.418 105.761C645.035 107.59 644.343 109.649 644.343 112.164C644.343 113.994 644.804 115.595 645.496 116.967C646.187 118.34 647.34 119.483 648.723 120.627C650.106 121.77 651.719 122.685 653.563 123.371C655.407 124.286 657.712 124.972 660.017 125.658C663.244 126.573 666.01 127.488 667.854 128.403C669.698 129.317 671.081 130.461 672.003 131.605C672.694 132.748 673.155 134.349 673.155 136.179C673.155 138.008 672.694 139.609 671.542 140.753C670.62 142.125 669.006 143.04 667.162 143.955C665.318 144.641 663.244 145.098 660.708 145.098C659.095 145.098 657.481 144.869 655.868 144.641C654.254 144.183 652.872 143.726 651.489 142.811C650.106 141.896 648.953 140.753 648.262 139.38C647.34 138.008 647.109 136.407 647.109 134.349H642.96C642.96 136.865 643.421 138.923 644.574 140.753C645.726 142.582 647.109 143.955 648.723 145.098C650.567 146.242 652.411 147.157 654.485 147.614C656.559 148.071 658.634 148.529 660.939 148.529C664.166 148.529 666.932 148.071 669.467 147.157C672.003 146.242 673.847 144.641 675.23 142.811C676.613 140.981 677.304 138.694 677.304 136.179C677.304 133.663 676.613 131.376 675.46 129.546Z" fill="#1C1C1C"/>
<path d="M122.959 100.272V103.702H139.324V147.843H143.473V103.702H159.838V100.272H122.959Z" stroke="#1C1C1C" stroke-width="1.82965" stroke-miterlimit="10"/>
<path d="M178.277 124.972H200.635V121.541H178.277V103.702H203.862V100.272H174.359V147.843H204.093V144.412H178.277V124.972Z" stroke="#1C1C1C" stroke-width="1.82965" stroke-miterlimit="10"/>
<path d="M223.456 111.478C224.609 108.734 226.222 106.675 228.297 105.303C230.371 103.702 232.906 103.016 235.903 103.016C240.052 103.016 243.048 104.16 245.353 106.218C247.428 108.276 248.811 111.25 249.272 115.138H253.421C253.19 111.936 252.268 109.191 250.885 106.675C249.502 104.388 247.428 102.559 245.123 101.415C242.587 100.272 239.821 99.5856 236.364 99.5856C232.676 99.5856 229.449 100.5 226.683 102.33C223.917 104.16 221.843 106.675 220.229 109.877C218.846 113.079 217.924 116.739 217.924 121.084V127.03C217.924 131.376 218.616 135.035 220.229 138.237C221.612 141.439 223.917 143.955 226.453 145.784C229.219 147.614 232.215 148.529 235.903 148.529C239.36 148.529 242.357 147.843 244.892 146.699C247.428 145.556 249.272 143.726 250.885 141.439C252.268 139.152 253.19 136.407 253.421 133.205H249.272C248.811 135.95 248.119 138.008 247.197 139.838C246.045 141.668 244.662 143.04 242.818 143.955C240.974 144.869 238.669 145.327 235.672 145.327C232.676 145.327 230.14 144.641 228.066 143.04C225.992 141.439 224.378 139.38 223.226 136.636C222.073 133.892 221.612 130.918 221.612 127.259V121.313C221.612 117.425 222.304 114.223 223.456 111.478Z" stroke="#1C1C1C" stroke-width="1.82965" stroke-miterlimit="10"/>
<path d="M301.134 121.541H273.936V100.272H269.787V147.843H273.936V124.972H301.134V147.843H305.283V100.272H301.134V121.541Z" stroke="#1C1C1C" stroke-width="1.82965" stroke-miterlimit="10"/>
<path d="M355.76 140.981L328.331 100.272H324.182V147.843H328.331V107.133L355.76 147.843H359.909V100.272H355.76V140.981Z" stroke="#1C1C1C" stroke-width="1.82965" stroke-miterlimit="10"/>
<path d="M405.319 102.33C402.553 100.5 399.326 99.5856 395.408 99.5856C391.72 99.5856 388.493 100.5 385.727 102.33C382.961 104.16 380.656 106.675 379.273 109.877C377.66 113.079 376.968 116.967 376.968 121.541V126.573C376.968 130.918 377.66 134.806 379.273 138.237C380.887 141.439 382.961 143.955 385.727 145.784C388.493 147.614 391.72 148.529 395.408 148.529C399.096 148.529 402.553 147.614 405.319 145.784C408.085 143.955 410.16 141.439 411.773 138.237C413.387 135.035 414.078 131.147 414.078 126.573V121.541C414.078 117.196 413.387 113.308 411.773 109.877C410.39 106.675 408.085 104.16 405.319 102.33ZM410.16 126.573C410.16 130.232 409.699 133.663 408.546 136.407C407.394 139.152 405.78 141.21 403.475 142.811C401.401 144.412 398.635 145.098 395.638 145.098C392.642 145.098 390.107 144.412 387.802 142.811C385.497 141.21 383.883 139.152 382.731 136.407C381.578 133.663 380.887 130.461 380.887 126.573V121.313C380.887 117.653 381.578 114.223 382.731 111.707C383.883 108.963 385.497 106.904 387.802 105.303C389.876 103.702 392.642 103.016 395.638 103.016C398.635 103.016 401.401 103.702 403.475 105.303C405.55 106.904 407.394 108.963 408.546 111.707C409.699 114.451 410.39 117.653 410.39 121.313V126.573H410.16Z" stroke="#1C1C1C" stroke-width="1.82965" stroke-miterlimit="10"/>
<path d="M435.283 100.272H431.134V147.843H458.794V144.412H435.283V100.272Z" stroke="#1C1C1C" stroke-width="1.82965" stroke-miterlimit="10"/>
<path d="M497.748 102.33C494.982 100.5 491.755 99.5856 487.836 99.5856C484.148 99.5856 480.921 100.5 478.155 102.33C475.389 104.16 473.084 106.675 471.701 109.877C470.088 113.079 469.396 116.967 469.396 121.541V126.573C469.396 130.918 470.088 134.806 471.701 138.237C473.315 141.439 475.389 143.955 478.155 145.784C480.921 147.614 484.148 148.529 487.836 148.529C491.524 148.529 494.982 147.614 497.748 145.784C500.514 143.955 502.588 141.439 504.201 138.237C505.815 135.035 506.506 131.147 506.506 126.573V121.541C506.506 117.196 505.815 113.308 504.201 109.877C502.818 106.675 500.514 104.16 497.748 102.33ZM502.588 126.573C502.588 130.232 502.127 133.663 500.974 136.407C499.822 139.152 498.209 141.21 495.904 142.811C493.829 144.412 491.063 145.098 488.067 145.098C485.07 145.098 482.535 144.412 480.23 142.811C477.925 141.21 476.311 139.152 475.159 136.407C474.006 133.663 473.315 130.461 473.315 126.573V121.313C473.315 117.653 474.006 114.223 475.159 111.707C476.311 108.963 477.925 106.904 480.23 105.303C482.304 103.702 485.07 103.016 488.067 103.016C491.063 103.016 493.829 103.702 495.904 105.303C497.978 106.904 499.822 108.963 500.974 111.707C502.127 114.451 502.818 117.653 502.818 121.313V126.573H502.588Z" stroke="#1C1C1C" stroke-width="1.82965" stroke-miterlimit="10"/>
<path d="M554.219 128.631V140.981C553.758 141.439 553.066 142.125 551.914 142.811C550.761 143.497 549.378 143.955 547.765 144.412C546.151 144.869 544.077 145.098 541.541 145.098C538.545 145.098 535.779 144.412 533.474 142.811C531.169 141.21 529.325 139.152 528.172 136.407C527.02 133.663 526.328 130.461 526.328 126.802V120.855C526.328 117.196 526.789 114.223 527.942 111.478C529.094 108.734 530.708 106.675 532.782 105.303C534.857 103.702 537.623 103.016 540.619 103.016C543.616 103.016 545.921 103.474 547.765 104.388C549.609 105.303 550.992 106.675 551.914 108.276C552.836 109.877 553.527 111.707 553.758 113.537H557.907C557.676 110.792 556.754 108.505 555.371 106.447C553.988 104.388 552.144 102.559 549.609 101.415C547.073 100.272 544.077 99.5856 540.619 99.5856C536.701 99.5856 533.474 100.5 530.708 102.101C527.942 103.931 525.867 106.218 524.254 109.42C522.64 112.622 521.949 116.281 521.949 120.855V126.573C521.949 130.918 522.871 134.806 524.484 138.008C526.098 141.21 528.403 143.726 531.169 145.556C534.165 147.385 537.392 148.3 541.08 148.3C544.538 148.3 547.304 147.843 549.609 147.156C551.914 146.47 553.758 145.556 554.91 144.641C556.293 143.726 557.215 142.811 557.676 141.896V125.201H540.85V128.631H554.219Z" stroke="#1C1C1C" stroke-width="1.82965" stroke-miterlimit="10"/>
<path d="M581.417 100.272H577.268V147.843H581.417V100.272Z" stroke="#1C1C1C" stroke-width="1.82965" stroke-miterlimit="10"/>
<path d="M605.159 124.972H627.517V121.541H605.159V103.702H630.744V100.272H601.01V147.843H630.744V144.412H605.159V124.972Z" stroke="#1C1C1C" stroke-width="1.82965" stroke-miterlimit="10"/>
<path d="M675.46 129.546C674.308 127.716 672.464 126.344 670.159 124.972C667.854 123.828 664.857 122.685 661.4 121.77C658.173 120.855 655.637 119.94 653.794 119.026C651.95 118.111 650.567 116.967 649.875 115.824C649.184 114.68 648.723 113.308 648.723 111.707C648.723 110.106 649.184 108.734 650.106 107.362C651.028 105.989 652.41 105.075 654.024 104.16C655.868 103.474 657.942 103.016 660.708 103.016C663.244 103.016 665.549 103.474 667.393 104.388C669.237 105.303 670.62 106.676 671.542 108.276C672.464 109.877 672.925 111.707 672.925 113.765H677.074C677.074 111.021 676.382 108.734 674.999 106.676C673.616 104.617 671.772 102.787 669.237 101.644C666.701 100.272 663.935 99.8143 660.478 99.8143C657.251 99.8143 654.485 100.272 652.18 101.415C649.645 102.33 647.801 103.931 646.418 105.761C645.035 107.59 644.343 109.649 644.343 112.164C644.343 113.994 644.804 115.595 645.496 116.967C646.187 118.34 647.34 119.483 648.723 120.627C650.106 121.77 651.719 122.685 653.563 123.371C655.407 124.286 657.712 124.972 660.017 125.658C663.244 126.573 666.01 127.488 667.854 128.403C669.698 129.317 671.081 130.461 672.003 131.605C672.694 132.748 673.155 134.349 673.155 136.179C673.155 138.008 672.694 139.609 671.542 140.753C670.62 142.125 669.006 143.04 667.162 143.955C665.318 144.641 663.244 145.098 660.708 145.098C659.095 145.098 657.481 144.869 655.868 144.641C654.254 144.183 652.872 143.726 651.489 142.811C650.106 141.896 648.953 140.753 648.262 139.38C647.34 138.008 647.109 136.407 647.109 134.349H642.96C642.96 136.865 643.421 138.923 644.574 140.753C645.726 142.582 647.109 143.955 648.723 145.098C650.567 146.242 652.411 147.157 654.485 147.614C656.559 148.071 658.634 148.529 660.939 148.529C664.166 148.529 666.932 148.071 669.467 147.157C672.003 146.242 673.847 144.641 675.23 142.811C676.613 140.981 677.304 138.694 677.304 136.179C677.304 133.663 676.613 131.376 675.46 129.546Z" stroke="#1C1C1C" stroke-width="1.82965" stroke-miterlimit="10"/>
</svg>
