<svg width="260" height="50" viewBox="0 0 260 50" fill="none" xmlns="http://www.w3.org/2000/svg">
<path d="M0 49.2913L13.3062 26.6743L26.5694 49.2913H0.0861246H0Z" fill="#E00600"/>
<path d="M26.5694 0.5L13.3062 23.117L0 0.5H26.5264H26.5694Z" fill="#1858FD"/>
<path d="M23.426 24.2578H2.96973V25.3715H23.426V24.2578Z" fill="#1C1C1C"/>
<path d="M51.7716 15.5674C51.4889 14.9362 50.9234 14.3752 50.2166 14.0245C50.0045 13.8842 49.7218 13.8141 49.4391 13.744C49.5805 13.6738 49.7218 13.6037 49.7925 13.6037C50.57 13.1829 51.0648 12.692 51.4182 11.9906C51.7716 11.2893 51.913 10.5879 51.913 9.88661C51.913 8.2034 51.2768 6.87087 49.9339 6.02926C48.6616 5.18766 46.8238 4.76686 44.4913 4.76686H37.7057V23.0016H45.1981C47.5307 23.0016 49.2977 22.5808 50.4286 21.5989C51.6303 20.6872 52.1957 19.3546 52.1957 17.5312C52.1957 16.9 52.0544 16.1986 51.7716 15.5674ZM46.9652 18.7234C46.6118 19.0741 46.0463 19.2144 45.1981 19.2144H42.3708V8.69434H42.4415V8.6242H44.4913C45.4102 8.6242 46.117 8.76447 46.4704 9.04501C46.8945 9.32554 47.1066 9.81647 47.1066 10.5178C47.1066 11.0789 46.8945 11.5698 46.5411 11.8503C46.117 12.1309 45.4809 12.2712 44.4913 12.2712V15.4272H45.4102C45.905 15.4272 46.329 15.4973 46.6118 15.7077C46.8945 15.848 47.1772 16.1285 47.2479 16.409C47.3893 16.6896 47.46 17.1104 47.46 17.5312C47.46 17.952 47.3186 18.3728 46.9652 18.7234Z" fill="#1C1C1C"/>
<path d="M67.6047 15.5674C68.0995 15.357 68.5236 15.0765 68.877 14.7258C69.4424 14.305 69.8665 13.6738 70.2199 12.9725C70.5734 12.2712 70.7147 11.3594 70.7147 10.3074C70.7147 9.11515 70.432 8.06315 69.8665 7.29168C69.3011 6.45007 68.4529 5.889 67.4633 5.39807C66.4031 4.97727 65.1308 4.76687 63.7171 4.76687H56.3661V23.0016H61.1019V8.55408H63.7171C64.4946 8.55408 65.0601 8.76448 65.4135 9.11515C65.7669 9.53595 65.979 10.0269 65.979 10.7984C65.979 11.2893 65.9083 11.7101 65.6963 11.9906C65.4842 12.3413 65.2722 12.5517 64.9187 12.7621C64.5653 12.9024 64.1412 12.9725 63.5758 12.9725H63.081V16.7597L66.191 23.0016H71.2802V22.7912L67.6047 15.5674Z" fill="#1C1C1C"/>
<path d="M79.7616 8.55408V11.8504H86.5471V15.4973H79.7616V19.2144H87.8194V23.0016H75.0258V4.76687H87.8194V8.55408H79.7616Z" fill="#1C1C1C"/>
<path d="M120.546 12.9024L126.484 23.0016H120.9L117.366 16.6194L115.599 18.5131V23.0016H110.863V4.76687H115.599V12.4816L117.083 10.1672L120.688 4.76687H126.554L120.546 12.9024Z" fill="#1C1C1C"/>
<path d="M143.871 4.76687V8.55408H138.429V23.0016H133.693V8.55408H128.392V4.76687H143.871Z" fill="#1C1C1C"/>
<path d="M163.027 4.76687V23.0016H158.291V15.6376H152.212V23.0016H147.406V4.76687H152.212V11.8504H158.291V4.76687H163.027Z" fill="#1C1C1C"/>
<path d="M178.718 15.5674C179.212 15.357 179.637 15.0765 179.99 14.7258C180.555 14.305 181.05 13.6738 181.333 12.9725C181.686 12.2712 181.828 11.3594 181.828 10.3074C181.828 9.11515 181.545 8.06315 180.98 7.29168C180.414 6.45007 179.566 5.889 178.506 5.39807C177.445 4.97727 176.244 4.76687 174.759 4.76687H167.408V23.0016H172.144V8.55408H174.759C175.537 8.55408 176.102 8.76448 176.456 9.11515C176.809 9.53595 177.021 10.0269 177.021 10.7984C177.021 11.2893 176.951 11.7101 176.739 11.9906C176.597 12.3413 176.314 12.5517 175.961 12.7621C175.608 12.9024 175.184 12.9725 174.618 12.9725H174.547V17.5312L177.233 23.0016H182.323V22.7912L178.718 15.5674Z" fill="#1C1C1C"/>
<path d="M200.842 8.76448C200.135 7.43194 199.216 6.37994 197.944 5.60847C196.742 4.90713 195.328 4.48633 193.773 4.48633C192.148 4.48633 190.734 4.837 189.532 5.60847C188.331 6.37994 187.341 7.3618 186.634 8.76448C185.927 10.097 185.574 11.7802 185.574 13.6738V14.2349C185.574 16.1285 185.927 17.7416 186.634 19.1442C187.341 20.4768 188.331 21.5288 189.532 22.3003C190.734 23.0016 192.148 23.4224 193.773 23.4224C195.328 23.4224 196.742 23.0717 197.944 22.3003C199.145 21.5989 200.135 20.5469 200.842 19.1442C201.548 17.8117 201.902 16.1285 201.902 14.2349V13.6738C201.902 11.7802 201.548 10.097 200.842 8.76448ZM197.095 14.1648C197.095 15.2869 196.954 16.2688 196.742 17.0402C196.459 17.8117 196.106 18.4429 195.611 18.7936C195.116 19.2144 194.551 19.4248 193.844 19.4248C193.137 19.4248 192.501 19.2144 192.006 18.7936C191.511 18.3728 191.158 17.8117 190.875 17.0402C190.592 16.2688 190.522 15.2869 190.522 14.1648V13.6037C190.522 12.4816 190.663 11.4997 190.875 10.7282C191.158 9.95675 191.511 9.39568 192.006 8.97488C192.501 8.55408 193.137 8.41381 193.844 8.41381C194.551 8.41381 195.116 8.62421 195.682 8.97488C196.176 9.39568 196.53 9.95675 196.813 10.7282C197.095 11.4997 197.166 12.4816 197.166 13.6037V14.1648H197.095Z" fill="#1C1C1C"/>
<path d="M215.685 4.76687V16.6194C215.685 17.3208 215.614 17.8819 215.402 18.3027C215.19 18.7235 214.907 19.0741 214.554 19.2144C214.201 19.4248 213.706 19.4949 213.14 19.4949C212.575 19.4949 212.08 19.4248 211.727 19.2144C211.303 19.004 211.02 18.7235 210.879 18.3027C210.667 17.8819 210.596 17.3208 210.596 16.6194V4.76687H205.86V16.6194C205.86 18.0221 206.143 19.2845 206.779 20.2664C207.415 21.2483 208.263 22.0197 209.394 22.5107C210.525 23.0016 211.797 23.2821 213.282 23.2821C214.766 23.2821 216.038 23.0016 217.099 22.5107C218.159 22.0197 219.007 21.2483 219.643 20.2664C220.279 19.2845 220.562 18.0221 220.562 16.6194V4.76687H215.685Z" fill="#1C1C1C"/>
<path d="M232.437 13.0426V16.4091H235.335V18.8637C235.193 18.9339 235.052 19.0741 234.84 19.1443C234.628 19.2144 234.345 19.2845 234.062 19.3547C233.78 19.4248 233.426 19.4248 232.931 19.4248C232.083 19.4248 231.376 19.2144 230.811 18.8637C230.245 18.5131 229.892 17.952 229.609 17.1805C229.327 16.409 229.256 15.4272 229.256 14.305V13.4634C229.256 12.2712 229.397 11.2893 229.68 10.5178C229.963 9.74636 230.316 9.18529 230.811 8.83462C231.306 8.48396 231.871 8.27355 232.578 8.27355C233.214 8.27355 233.709 8.34369 234.133 8.55409C234.557 8.76449 234.84 9.04502 235.052 9.39569C235.264 9.81649 235.405 10.2373 235.476 10.8685H240.07C239.929 9.60609 239.646 8.48395 239.081 7.57222C238.515 6.59035 237.738 5.88901 236.607 5.32794C235.547 4.76688 234.133 4.55647 232.366 4.55647C230.811 4.55647 229.468 4.90714 228.266 5.60848C227.065 6.30981 226.146 7.29168 225.439 8.69436C224.732 10.0269 224.449 11.64 224.449 13.6037V14.305C224.449 16.1987 224.803 17.8819 225.439 19.2144C226.146 20.5469 227.065 21.5288 228.266 22.2301C229.468 22.9315 230.952 23.2821 232.578 23.2821C233.921 23.2821 235.052 23.1419 236.041 22.8613C237.031 22.5808 237.879 22.2301 238.515 21.8795C239.152 21.4587 239.646 21.108 240 20.7573V13.0426H232.437Z" fill="#1C1C1C"/>
<path d="M259.861 4.76687V23.0016H255.126V15.6376H249.047V23.0016H244.311V4.76687H249.047V11.8504H255.126V4.76687H259.861Z" fill="#1C1C1C"/>
<path d="M108.247 23.0016L101.461 4.76687H97.0085L90.2936 23.0016H95.3828L99.2703 10.5178L103.158 23.0016H108.247Z" fill="#1C1C1C"/>
<path d="M37.7057 30.5058V31.5578H42.7242V45.0936H43.9965V31.5578H49.015V30.5058H37.7057Z" fill="#1C1C1C"/>
<path d="M54.6693 38.0802H61.5255V37.0282H54.6693V31.5578H62.5151V30.5058H53.4677V45.0936H62.5857V44.0416H54.6693V38.0802Z" fill="#1C1C1C"/>
<path d="M68.5236 33.9424C68.877 33.1008 69.3718 32.4696 70.0079 32.0488C70.6441 31.5578 71.4216 31.3474 72.3404 31.3474C73.6127 31.3474 74.5316 31.6981 75.2384 32.3293C75.8746 32.9605 76.2987 33.8722 76.44 35.0645H77.7123C77.6417 34.0826 77.3589 33.241 76.9348 32.4696C76.5107 31.7682 75.8746 31.2071 75.1677 30.8565C74.3902 30.5058 73.5421 30.2954 72.4818 30.2954C71.3509 30.2954 70.3613 30.5759 69.5131 31.137C68.6649 31.6981 68.0288 32.4696 67.534 33.4514C67.1099 34.4333 66.8272 35.5554 66.8272 36.888V38.7114C66.8272 40.044 67.0392 41.1661 67.534 42.148C67.9581 43.1299 68.6649 43.9013 69.4425 44.4624C70.2906 45.0235 71.2095 45.304 72.3404 45.304C73.4007 45.304 74.3196 45.0936 75.0971 44.7429C75.8746 44.3923 76.44 43.8312 76.9348 43.1299C77.3589 42.4285 77.6417 41.5869 77.7123 40.605H76.44C76.2987 41.4467 76.0866 42.0779 75.8039 42.6389C75.4505 43.2 75.0264 43.6208 74.4609 43.9013C73.8955 44.1819 73.1886 44.3221 72.2698 44.3221C71.3509 44.3221 70.5734 44.1117 69.9372 43.6208C69.3011 43.1299 68.8063 42.4987 68.4529 41.6571C68.0995 40.8154 67.9581 39.9037 67.9581 38.7816V36.9581C67.9581 35.7658 68.1702 34.784 68.5236 33.9424Z" fill="#1C1C1C"/>
<path d="M92.3439 37.0282H84.0033V30.5058H82.731V45.0936H84.0033V38.0802H92.3439V45.0936H93.6161V30.5058H92.3439V37.0282Z" fill="#1C1C1C"/>
<path d="M109.095 42.9896L100.684 30.5058H99.4115V45.0936H100.684V32.6098L109.095 45.0936H110.367V30.5058H109.095V42.9896Z" fill="#1C1C1C"/>
<path d="M124.293 31.137C123.444 30.5759 122.455 30.2954 121.253 30.2954C120.122 30.2954 119.133 30.5759 118.285 31.137C117.436 31.6981 116.73 32.4696 116.305 33.4514C115.811 34.4333 115.599 35.6256 115.599 37.0282V38.5712C115.599 39.9037 115.811 41.096 116.305 42.148C116.8 43.1299 117.436 43.9013 118.285 44.4624C119.133 45.0235 120.122 45.304 121.253 45.304C122.384 45.304 123.444 45.0235 124.293 44.4624C125.141 43.9013 125.777 43.1299 126.272 42.148C126.766 41.1661 126.979 39.9738 126.979 38.5712V37.0282C126.979 35.6957 126.766 34.5034 126.272 33.4514C125.848 32.4696 125.141 31.6981 124.293 31.137ZM125.777 38.5712C125.777 39.6933 125.636 40.7453 125.282 41.5869C124.929 42.4285 124.434 43.0597 123.727 43.5507C123.091 44.0416 122.243 44.252 121.324 44.252C120.405 44.252 119.628 44.0416 118.921 43.5507C118.214 43.0597 117.719 42.4285 117.366 41.5869C117.012 40.7453 116.8 39.7634 116.8 38.5712V36.9581C116.8 35.836 117.012 34.784 117.366 34.0125C117.719 33.1709 118.214 32.5397 118.921 32.0488C119.557 31.5578 120.405 31.3474 121.324 31.3474C122.243 31.3474 123.091 31.5578 123.727 32.0488C124.363 32.5397 124.929 33.1709 125.282 34.0125C125.636 34.8541 125.848 35.836 125.848 36.9581V38.5712H125.777Z" fill="#1C1C1C"/>
<path d="M133.481 30.5058H132.209V45.0936H140.691V44.0416H133.481V30.5058Z" fill="#1C1C1C"/>
<path d="M152.636 31.137C151.788 30.5759 150.798 30.2954 149.597 30.2954C148.466 30.2954 147.476 30.5759 146.628 31.137C145.78 31.6981 145.073 32.4696 144.649 33.4514C144.154 34.4333 143.942 35.6256 143.942 37.0282V38.5712C143.942 39.9037 144.154 41.096 144.649 42.148C145.144 43.1299 145.78 43.9013 146.628 44.4624C147.476 45.0235 148.466 45.304 149.597 45.304C150.728 45.304 151.788 45.0235 152.636 44.4624C153.484 43.9013 154.12 43.1299 154.615 42.148C155.11 41.1661 155.322 39.9738 155.322 38.5712V37.0282C155.322 35.6957 155.11 34.5034 154.615 33.4514C154.191 32.4696 153.484 31.6981 152.636 31.137ZM154.12 38.5712C154.12 39.6933 153.979 40.7453 153.626 41.5869C153.272 42.4285 152.777 43.0597 152.071 43.5507C151.434 44.0416 150.586 44.252 149.667 44.252C148.748 44.252 147.971 44.0416 147.264 43.5507C146.557 43.0597 146.062 42.4285 145.709 41.5869C145.356 40.7453 145.144 39.7634 145.144 38.5712V36.9581C145.144 35.836 145.356 34.784 145.709 34.0125C146.062 33.1709 146.557 32.5397 147.264 32.0488C147.9 31.5578 148.748 31.3474 149.667 31.3474C150.586 31.3474 151.434 31.5578 152.071 32.0488C152.707 32.5397 153.272 33.1709 153.626 34.0125C153.979 34.8541 154.191 35.836 154.191 36.9581V38.5712H154.12Z" fill="#1C1C1C"/>
<path d="M169.953 39.2024V42.9896C169.812 43.1299 169.6 43.3403 169.246 43.5507C168.893 43.7611 168.469 43.9013 167.974 44.0416C167.479 44.1819 166.843 44.252 166.065 44.252C165.147 44.252 164.298 44.0416 163.592 43.5507C162.885 43.0597 162.319 42.4285 161.966 41.5869C161.612 40.7453 161.4 39.7634 161.4 38.6413V36.8178C161.4 35.6957 161.542 34.784 161.895 33.9424C162.249 33.1008 162.743 32.4696 163.38 32.0488C164.016 31.5578 164.864 31.3474 165.783 31.3474C166.702 31.3474 167.408 31.4877 167.974 31.7682C168.539 32.0488 168.963 32.4696 169.246 32.9605C169.529 33.4514 169.741 34.0125 169.812 34.5736H171.084C171.013 33.732 170.731 33.0306 170.306 32.3994C169.882 31.7682 169.317 31.2071 168.539 30.8565C167.762 30.5058 166.843 30.2954 165.783 30.2954C164.581 30.2954 163.592 30.5759 162.743 31.0669C161.895 31.6279 161.259 32.3293 160.764 33.3112C160.269 34.293 160.057 35.4152 160.057 36.8178V38.5712C160.057 39.9037 160.34 41.096 160.835 42.0778C161.33 43.0597 162.037 43.8312 162.885 44.3923C163.804 44.9533 164.793 45.2339 165.924 45.2339C166.984 45.2339 167.833 45.0936 168.539 44.8832C169.246 44.6728 169.812 44.3923 170.165 44.1117C170.589 43.8312 170.872 43.5507 171.013 43.2701V38.1504H165.853V39.2024H169.953Z" fill="#1C1C1C"/>
<path d="M178.293 30.5058H177.021V45.0936H178.293V30.5058Z" fill="#1C1C1C"/>
<path d="M185.574 38.0802H192.43V37.0282H185.574V31.5578H193.42V30.5058H184.302V45.0936H193.42V44.0416H185.574V38.0802Z" fill="#1C1C1C"/>
<path d="M207.132 39.4829C206.779 38.9219 206.213 38.5011 205.507 38.0803C204.8 37.7296 203.881 37.3789 202.821 37.0984C201.831 36.8178 201.054 36.5373 200.488 36.2568C199.923 35.9762 199.498 35.6256 199.286 35.2749C199.074 34.9242 198.933 34.5034 198.933 34.0125C198.933 33.5216 199.074 33.1008 199.357 32.68C199.64 32.2592 200.064 31.9786 200.559 31.6981C201.124 31.4877 201.76 31.3474 202.609 31.3474C203.386 31.3474 204.093 31.4877 204.658 31.7682C205.224 32.0488 205.648 32.4696 205.931 32.9605C206.213 33.4514 206.355 34.0125 206.355 34.6437H207.627C207.627 33.8021 207.415 33.1008 206.991 32.4696C206.567 31.8384 206.001 31.2773 205.224 30.9266C204.446 30.5058 203.598 30.3656 202.538 30.3656C201.548 30.3656 200.7 30.5058 199.993 30.8565C199.216 31.137 198.65 31.628 198.226 32.189C197.802 32.7501 197.59 33.3813 197.59 34.1528C197.59 34.7138 197.731 35.2048 197.943 35.6256C198.156 36.0464 198.509 36.397 198.933 36.7477C199.357 37.0984 199.852 37.3789 200.417 37.5893C200.983 37.8698 201.69 38.0802 202.396 38.2906C203.386 38.5712 204.234 38.8517 204.8 39.1323C205.365 39.4128 205.789 39.7635 206.072 40.1141C206.284 40.4648 206.425 40.9557 206.425 41.5168C206.425 42.0779 206.284 42.5688 205.931 42.9195C205.648 43.3403 205.153 43.6208 204.588 43.9013C204.022 44.1117 203.386 44.252 202.609 44.252C202.114 44.252 201.619 44.1819 201.124 44.1117C200.629 43.9715 200.205 43.8312 199.781 43.5507C199.357 43.2701 199.004 42.9195 198.792 42.4987C198.509 42.0779 198.438 41.5869 198.438 40.9557H197.166C197.166 41.7272 197.307 42.3584 197.661 42.9195C198.014 43.4805 198.438 43.9013 198.933 44.252C199.498 44.6027 200.064 44.8832 200.7 45.0235C201.336 45.1637 201.972 45.304 202.679 45.304C203.669 45.304 204.517 45.1637 205.294 44.8832C206.072 44.6027 206.637 44.1117 207.062 43.5507C207.486 42.9896 207.698 42.2883 207.698 41.5168C207.698 40.7453 207.486 40.044 207.132 39.4829Z" fill="#1C1C1C"/>
<path d="M37.7057 30.5058V31.5578H42.7242V45.0936H43.9965V31.5578H49.015V30.5058H37.7057Z" stroke="#1C1C1C" stroke-width="0.561069" stroke-miterlimit="10"/>
<path d="M54.6693 38.0802H61.5255V37.0282H54.6693V31.5578H62.5151V30.5058H53.4677V45.0936H62.5857V44.0416H54.6693V38.0802Z" stroke="#1C1C1C" stroke-width="0.561069" stroke-miterlimit="10"/>
<path d="M68.5236 33.9424C68.877 33.1008 69.3718 32.4696 70.0079 32.0488C70.6441 31.5578 71.4216 31.3474 72.3404 31.3474C73.6127 31.3474 74.5316 31.6981 75.2384 32.3293C75.8746 32.9605 76.2987 33.8722 76.44 35.0645H77.7123C77.6417 34.0826 77.3589 33.241 76.9348 32.4696C76.5107 31.7682 75.8746 31.2071 75.1677 30.8565C74.3902 30.5058 73.5421 30.2954 72.4818 30.2954C71.3509 30.2954 70.3613 30.5759 69.5131 31.137C68.6649 31.6981 68.0288 32.4696 67.534 33.4514C67.1099 34.4333 66.8272 35.5554 66.8272 36.888V38.7114C66.8272 40.044 67.0392 41.1661 67.534 42.148C67.9581 43.1299 68.6649 43.9013 69.4425 44.4624C70.2906 45.0235 71.2095 45.304 72.3404 45.304C73.4007 45.304 74.3196 45.0936 75.0971 44.7429C75.8746 44.3923 76.44 43.8312 76.9348 43.1299C77.3589 42.4285 77.6417 41.5869 77.7123 40.605H76.44C76.2987 41.4467 76.0866 42.0779 75.8039 42.6389C75.4505 43.2 75.0264 43.6208 74.4609 43.9013C73.8955 44.1819 73.1886 44.3221 72.2698 44.3221C71.3509 44.3221 70.5734 44.1117 69.9372 43.6208C69.3011 43.1299 68.8063 42.4987 68.4529 41.6571C68.0995 40.8154 67.9581 39.9037 67.9581 38.7816V36.9581C67.9581 35.7658 68.1702 34.784 68.5236 33.9424Z" stroke="#1C1C1C" stroke-width="0.561069" stroke-miterlimit="10"/>
<path d="M92.3439 37.0282H84.0033V30.5058H82.731V45.0936H84.0033V38.0802H92.3439V45.0936H93.6161V30.5058H92.3439V37.0282Z" stroke="#1C1C1C" stroke-width="0.561069" stroke-miterlimit="10"/>
<path d="M109.095 42.9896L100.684 30.5058H99.4115V45.0936H100.684V32.6098L109.095 45.0936H110.367V30.5058H109.095V42.9896Z" stroke="#1C1C1C" stroke-width="0.561069" stroke-miterlimit="10"/>
<path d="M124.293 31.137C123.444 30.5759 122.455 30.2954 121.253 30.2954C120.122 30.2954 119.133 30.5759 118.285 31.137C117.436 31.6981 116.73 32.4696 116.305 33.4514C115.811 34.4333 115.599 35.6256 115.599 37.0282V38.5712C115.599 39.9037 115.811 41.096 116.305 42.148C116.8 43.1299 117.436 43.9013 118.285 44.4624C119.133 45.0235 120.122 45.304 121.253 45.304C122.384 45.304 123.444 45.0235 124.293 44.4624C125.141 43.9013 125.777 43.1299 126.272 42.148C126.766 41.1661 126.979 39.9738 126.979 38.5712V37.0282C126.979 35.6957 126.766 34.5034 126.272 33.4514C125.848 32.4696 125.141 31.6981 124.293 31.137ZM125.777 38.5712C125.777 39.6933 125.636 40.7453 125.282 41.5869C124.929 42.4285 124.434 43.0597 123.727 43.5507C123.091 44.0416 122.243 44.252 121.324 44.252C120.405 44.252 119.628 44.0416 118.921 43.5507C118.214 43.0597 117.719 42.4285 117.366 41.5869C117.012 40.7453 116.8 39.7634 116.8 38.5712V36.9581C116.8 35.836 117.012 34.784 117.366 34.0125C117.719 33.1709 118.214 32.5397 118.921 32.0488C119.557 31.5578 120.405 31.3474 121.324 31.3474C122.243 31.3474 123.091 31.5578 123.727 32.0488C124.363 32.5397 124.929 33.1709 125.282 34.0125C125.636 34.8541 125.848 35.836 125.848 36.9581V38.5712H125.777Z" stroke="#1C1C1C" stroke-width="0.561069" stroke-miterlimit="10"/>
<path d="M133.481 30.5058H132.209V45.0936H140.691V44.0416H133.481V30.5058Z" stroke="#1C1C1C" stroke-width="0.561069" stroke-miterlimit="10"/>
<path d="M152.636 31.137C151.788 30.5759 150.798 30.2954 149.597 30.2954C148.466 30.2954 147.476 30.5759 146.628 31.137C145.78 31.6981 145.073 32.4696 144.649 33.4514C144.154 34.4333 143.942 35.6256 143.942 37.0282V38.5712C143.942 39.9037 144.154 41.096 144.649 42.148C145.144 43.1299 145.78 43.9013 146.628 44.4624C147.476 45.0235 148.466 45.304 149.597 45.304C150.728 45.304 151.788 45.0235 152.636 44.4624C153.484 43.9013 154.12 43.1299 154.615 42.148C155.11 41.1661 155.322 39.9738 155.322 38.5712V37.0282C155.322 35.6957 155.11 34.5034 154.615 33.4514C154.191 32.4696 153.484 31.6981 152.636 31.137ZM154.12 38.5712C154.12 39.6933 153.979 40.7453 153.626 41.5869C153.272 42.4285 152.777 43.0597 152.071 43.5507C151.434 44.0416 150.586 44.252 149.667 44.252C148.748 44.252 147.971 44.0416 147.264 43.5507C146.557 43.0597 146.062 42.4285 145.709 41.5869C145.356 40.7453 145.144 39.7634 145.144 38.5712V36.9581C145.144 35.836 145.356 34.784 145.709 34.0125C146.062 33.1709 146.557 32.5397 147.264 32.0488C147.9 31.5578 148.748 31.3474 149.667 31.3474C150.586 31.3474 151.434 31.5578 152.071 32.0488C152.707 32.5397 153.272 33.1709 153.626 34.0125C153.979 34.8541 154.191 35.836 154.191 36.9581V38.5712H154.12Z" stroke="#1C1C1C" stroke-width="0.561069" stroke-miterlimit="10"/>
<path d="M169.953 39.2024V42.9896C169.812 43.1299 169.6 43.3403 169.246 43.5507C168.893 43.7611 168.469 43.9013 167.974 44.0416C167.479 44.1819 166.843 44.252 166.065 44.252C165.147 44.252 164.298 44.0416 163.592 43.5507C162.885 43.0597 162.319 42.4285 161.966 41.5869C161.612 40.7453 161.4 39.7634 161.4 38.6413V36.8178C161.4 35.6957 161.542 34.784 161.895 33.9424C162.249 33.1008 162.743 32.4696 163.38 32.0488C164.016 31.5578 164.864 31.3474 165.783 31.3474C166.702 31.3474 167.408 31.4877 167.974 31.7682C168.539 32.0488 168.963 32.4696 169.246 32.9605C169.529 33.4514 169.741 34.0125 169.812 34.5736H171.084C171.013 33.732 170.731 33.0306 170.306 32.3994C169.882 31.7682 169.317 31.2071 168.539 30.8565C167.762 30.5058 166.843 30.2954 165.783 30.2954C164.581 30.2954 163.592 30.5759 162.743 31.0669C161.895 31.6279 161.259 32.3293 160.764 33.3112C160.269 34.293 160.057 35.4152 160.057 36.8178V38.5712C160.057 39.9037 160.34 41.096 160.835 42.0778C161.33 43.0597 162.037 43.8312 162.885 44.3923C163.804 44.9533 164.793 45.2339 165.924 45.2339C166.984 45.2339 167.833 45.0936 168.539 44.8832C169.246 44.6728 169.812 44.3923 170.165 44.1117C170.589 43.8312 170.872 43.5507 171.013 43.2701V38.1504H165.853V39.2024H169.953Z" stroke="#1C1C1C" stroke-width="0.561069" stroke-miterlimit="10"/>
<path d="M178.293 30.5058H177.021V45.0936H178.293V30.5058Z" stroke="#1C1C1C" stroke-width="0.561069" stroke-miterlimit="10"/>
<path d="M185.574 38.0802H192.43V37.0282H185.574V31.5578H193.42V30.5058H184.302V45.0936H193.42V44.0416H185.574V38.0802Z" stroke="#1C1C1C" stroke-width="0.561069" stroke-miterlimit="10"/>
<path d="M207.132 39.4829C206.779 38.9219 206.213 38.5011 205.507 38.0803C204.8 37.7296 203.881 37.3789 202.821 37.0984C201.831 36.8178 201.054 36.5373 200.488 36.2568C199.923 35.9762 199.498 35.6256 199.286 35.2749C199.074 34.9242 198.933 34.5034 198.933 34.0125C198.933 33.5216 199.074 33.1008 199.357 32.68C199.64 32.2592 200.064 31.9786 200.559 31.6981C201.124 31.4877 201.76 31.3474 202.609 31.3474C203.386 31.3474 204.093 31.4877 204.658 31.7682C205.224 32.0488 205.648 32.4696 205.931 32.9605C206.213 33.4514 206.355 34.0125 206.355 34.6437H207.627C207.627 33.8021 207.415 33.1008 206.991 32.4696C206.567 31.8384 206.001 31.2773 205.224 30.9266C204.446 30.5058 203.598 30.3656 202.538 30.3656C201.548 30.3656 200.7 30.5058 199.993 30.8565C199.216 31.137 198.65 31.628 198.226 32.189C197.802 32.7501 197.59 33.3813 197.59 34.1528C197.59 34.7138 197.731 35.2048 197.943 35.6256C198.156 36.0464 198.509 36.397 198.933 36.7477C199.357 37.0984 199.852 37.3789 200.417 37.5893C200.983 37.8698 201.69 38.0802 202.396 38.2906C203.386 38.5712 204.234 38.8517 204.8 39.1323C205.365 39.4128 205.789 39.7635 206.072 40.1141C206.284 40.4648 206.425 40.9557 206.425 41.5168C206.425 42.0779 206.284 42.5688 205.931 42.9195C205.648 43.3403 205.153 43.6208 204.588 43.9013C204.022 44.1117 203.386 44.252 202.609 44.252C202.114 44.252 201.619 44.1819 201.124 44.1117C200.629 43.9715 200.205 43.8312 199.781 43.5507C199.357 43.2701 199.004 42.9195 198.792 42.4987C198.509 42.0779 198.438 41.5869 198.438 40.9557H197.166C197.166 41.7272 197.307 42.3584 197.661 42.9195C198.014 43.4805 198.438 43.9013 198.933 44.252C199.498 44.6027 200.064 44.8832 200.7 45.0235C201.336 45.1637 201.972 45.304 202.679 45.304C203.669 45.304 204.517 45.1637 205.294 44.8832C206.072 44.6027 206.637 44.1117 207.062 43.5507C207.486 42.9896 207.698 42.2883 207.698 41.5168C207.698 40.7453 207.486 40.044 207.132 39.4829Z" stroke="#1C1C1C" stroke-width="0.561069" stroke-miterlimit="10"/>
</svg>
