<svg width="569" height="160" viewBox="0 0 569 160" fill="none" xmlns="http://www.w3.org/2000/svg">
<path d="M0 159.109L43.3918 85.3545L86.6432 159.109H0Z" fill="#E00600"/>
<path d="M86.6431 0L43.3918 73.7541L0 0H86.6431Z" fill="#1858FD"/>
<path d="M76.3925 77.4736H9.68433V81.1052H76.3925V77.4736Z" fill="#1C1C1C"/>
<path d="M566.111 74.575V89.6448H525.032V74.575H566.111ZM532.008 8.37964V89.6448H512.418V8.37964H532.008Z" fill="#1C1C1C"/>
<path d="M500.28 74.575V89.6448H456.969V74.575H500.28ZM463.945 8.37964V89.6448H444.355V8.37964H463.945ZM494.699 40.6401V55.2075H456.969V40.6401H494.699ZM500.448 8.37964V23.5052H456.969V8.37964H500.448Z" fill="#1C1C1C"/>
<path d="M394.014 70.5006L410.925 8.37964H432.86L405.456 89.6448H391.279L394.014 70.5006ZM378.665 8.37964L395.576 70.5006L398.423 89.6448H384.079L356.842 8.37964H378.665Z" fill="#1C1C1C"/>
<path d="M326.665 8.37964H346.255V61.4587C346.255 67.7843 344.934 73.1424 342.293 77.5331C339.651 81.8866 335.948 85.1796 331.186 87.4122C326.423 89.6448 320.823 90.761 314.386 90.761C308.023 90.761 302.423 89.6448 297.586 87.4122C292.786 85.1796 289.027 81.8866 286.311 77.5331C283.632 73.1424 282.293 67.7843 282.293 61.4587V8.37964H301.939V61.4587C301.939 64.8075 302.423 67.5424 303.39 69.6634C304.358 71.7471 305.772 73.2727 307.632 74.2401C309.493 75.2075 311.744 75.6913 314.386 75.6913C317.065 75.6913 319.316 75.2075 321.139 74.2401C322.962 73.2727 324.339 71.7471 325.269 69.6634C326.2 67.5424 326.665 64.8075 326.665 61.4587V8.37964Z" fill="#1C1C1C"/>
<path d="M272.312 47.3934V50.6864C272.312 56.9004 271.438 62.4818 269.689 67.4306C267.977 72.3423 265.54 76.5469 262.377 80.0446C259.214 83.505 255.475 86.1655 251.159 88.026C246.842 89.8492 242.079 90.7609 236.87 90.7609C231.624 90.7609 226.824 89.8492 222.47 88.026C218.154 86.1655 214.396 83.505 211.196 80.0446C208.033 76.5469 205.577 72.3423 203.828 67.4306C202.117 62.4818 201.261 56.9004 201.261 50.6864V47.3934C201.261 41.1795 202.117 35.5981 203.828 30.6492C205.577 25.7004 208.014 21.4957 211.14 18.0353C214.303 14.5376 218.042 11.8771 222.359 10.0539C226.712 8.19342 231.512 7.26318 236.759 7.26318C241.968 7.26318 246.731 8.19342 251.047 10.0539C255.4 11.8771 259.159 14.5376 262.321 18.0353C265.484 21.4957 267.94 25.7004 269.689 30.6492C271.438 35.5981 272.312 41.1795 272.312 47.3934ZM252.442 50.6864V47.2818C252.442 43.2632 252.089 39.7283 251.382 36.6771C250.712 33.5888 249.707 31.0027 248.368 28.919C247.028 26.8353 245.372 25.2725 243.4 24.2306C241.466 23.1516 239.252 22.612 236.759 22.612C234.154 22.612 231.884 23.1516 229.949 24.2306C228.014 25.2725 226.396 26.8353 225.093 28.919C223.791 31.0027 222.805 33.5888 222.135 36.6771C221.503 39.7283 221.186 43.2632 221.186 47.2818V50.6864C221.186 54.6678 221.503 58.2027 222.135 61.2911C222.805 64.3423 223.791 66.9283 225.093 69.0492C226.433 71.1702 228.07 72.7702 230.005 73.8492C231.977 74.9283 234.266 75.4678 236.87 75.4678C239.363 75.4678 241.577 74.9283 243.512 73.8492C245.447 72.7702 247.066 71.1702 248.368 69.0492C249.707 66.9283 250.712 64.3423 251.382 61.2911C252.089 58.2027 252.442 54.6678 252.442 50.6864Z" fill="#1C1C1C"/>
<path d="M191.343 8.37964V89.6448H171.809L143.064 39.0773V89.6448H123.474V8.37964H143.064L171.809 58.9471V8.37964H191.343Z" fill="#1C1C1C"/>
<path d="M123.474 115.268V117.917H136.563V151.997H139.881V117.917H152.971V115.268H123.474Z" fill="#1C1C1C"/>
<path d="M167.719 134.339H185.601V131.69H167.719V117.917H188.182V115.268H164.584V151.997H188.367V149.348H167.719V134.339Z" fill="#1C1C1C"/>
<path d="M203.854 123.921C204.776 121.802 206.066 120.212 207.725 119.153C209.385 117.917 211.412 117.387 213.809 117.387C217.128 117.387 219.524 118.27 221.368 119.859C223.027 121.449 224.133 123.744 224.502 126.746H227.82C227.636 124.274 226.899 122.155 225.792 120.212C224.686 118.447 223.027 117.034 221.183 116.151C219.156 115.268 216.943 114.739 214.178 114.739C211.228 114.739 208.647 115.445 206.435 116.857C204.223 118.27 202.563 120.212 201.273 122.685C200.167 125.157 199.429 127.982 199.429 131.337V135.928C199.429 139.283 199.982 142.108 201.273 144.58C202.379 147.053 204.223 148.995 206.251 150.408C208.463 151.82 210.859 152.527 213.809 152.527C216.575 152.527 218.971 151.997 220.999 151.114C223.027 150.231 224.502 148.818 225.792 147.053C226.899 145.287 227.636 143.168 227.82 140.696H224.502C224.133 142.815 223.58 144.404 222.843 145.817C221.921 147.229 220.815 148.289 219.34 148.995C217.865 149.701 216.021 150.054 213.625 150.054C211.228 150.054 209.2 149.525 207.541 148.289C205.882 147.053 204.591 145.463 203.669 143.344C202.748 141.225 202.379 138.93 202.379 136.105V131.514C202.379 128.512 202.932 126.04 203.854 123.921Z" fill="#1C1C1C"/>
<path d="M265.983 131.69H244.229V115.268H240.91V151.997H244.229V134.339H265.983V151.997H269.301V115.268H265.983V131.69Z" fill="#1C1C1C"/>
<path d="M309.674 146.699L287.735 115.268H284.417V151.997H287.735V120.566L309.674 151.997H312.992V115.268H309.674V146.699Z" fill="#1C1C1C"/>
<path d="M349.313 116.857C347.1 115.445 344.519 114.739 341.385 114.739C338.436 114.739 335.855 115.445 333.642 116.857C331.43 118.27 329.586 120.212 328.48 122.685C327.19 125.157 326.637 128.159 326.637 131.69V135.575C326.637 138.93 327.19 141.932 328.48 144.58C329.771 147.053 331.43 148.995 333.642 150.408C335.855 151.82 338.436 152.527 341.385 152.527C344.335 152.527 347.1 151.82 349.313 150.408C351.525 148.995 353.184 147.053 354.475 144.58C355.765 142.108 356.318 139.106 356.318 135.575V131.69C356.318 128.335 355.765 125.333 354.475 122.685C353.369 120.212 351.525 118.27 349.313 116.857ZM353.184 135.575C353.184 138.4 352.815 141.049 351.894 143.168C350.972 145.287 349.681 146.876 347.838 148.112C346.179 149.348 343.966 149.878 341.57 149.878C339.173 149.878 337.145 149.348 335.301 148.112C333.458 146.876 332.167 145.287 331.246 143.168C330.324 141.049 329.771 138.577 329.771 135.575V131.514C329.771 128.688 330.324 126.04 331.246 124.097C332.167 121.978 333.458 120.389 335.301 119.153C336.961 117.917 339.173 117.387 341.57 117.387C343.966 117.387 346.179 117.917 347.838 119.153C349.497 120.389 350.972 121.978 351.894 124.097C352.815 126.216 353.369 128.688 353.369 131.514V135.575H353.184Z" fill="#1C1C1C"/>
<path d="M373.279 115.268H369.96V151.997H392.083V149.348H373.279V115.268Z" fill="#1C1C1C"/>
<path d="M423.239 116.857C421.027 115.445 418.446 114.739 415.312 114.739C412.362 114.739 409.781 115.445 407.569 116.857C405.356 118.27 403.513 120.212 402.407 122.685C401.116 125.157 400.563 128.159 400.563 131.69V135.575C400.563 138.93 401.116 141.932 402.407 144.58C403.697 147.053 405.356 148.995 407.569 150.408C409.781 151.82 412.362 152.527 415.312 152.527C418.261 152.527 421.027 151.82 423.239 150.408C425.451 148.995 427.111 147.053 428.401 144.58C429.692 142.108 430.245 139.106 430.245 135.575V131.69C430.245 128.335 429.692 125.333 428.401 122.685C427.295 120.212 425.451 118.27 423.239 116.857ZM427.111 135.575C427.111 138.4 426.742 141.049 425.82 143.168C424.898 145.287 423.608 146.876 421.764 148.112C420.105 149.348 417.893 149.878 415.496 149.878C413.099 149.878 411.071 149.348 409.228 148.112C407.384 146.876 406.094 145.287 405.172 143.168C404.25 141.049 403.697 138.577 403.697 135.575V131.514C403.697 128.688 404.25 126.04 405.172 124.097C406.094 121.978 407.384 120.389 409.228 119.153C410.887 117.917 413.099 117.387 415.496 117.387C417.893 117.387 420.105 117.917 421.764 119.153C423.423 120.389 424.898 121.978 425.82 124.097C426.742 126.216 427.295 128.688 427.295 131.514V135.575H427.111Z" fill="#1C1C1C"/>
<path d="M468.406 137.164V146.699C468.037 147.053 467.484 147.582 466.562 148.112C465.641 148.642 464.535 148.995 463.244 149.348C461.954 149.701 460.294 149.878 458.266 149.878C455.87 149.878 453.657 149.348 451.814 148.112C449.97 146.876 448.495 145.287 447.574 143.168C446.652 141.049 446.099 138.577 446.099 135.751V131.16C446.099 128.335 446.467 126.04 447.389 123.921C448.311 121.802 449.602 120.212 451.261 119.153C452.92 117.917 455.132 117.387 457.529 117.387C459.926 117.387 461.769 117.74 463.244 118.447C464.719 119.153 465.825 120.212 466.562 121.449C467.3 122.685 467.853 124.097 468.037 125.51H471.356C471.171 123.391 470.434 121.625 469.328 120.036C468.222 118.447 466.747 117.034 464.719 116.151C462.691 115.268 460.294 114.739 457.529 114.739C454.395 114.739 451.814 115.445 449.602 116.681C447.389 118.094 445.73 119.859 444.44 122.331C443.149 124.804 442.596 127.629 442.596 131.16V135.575C442.596 138.93 443.333 141.932 444.624 144.404C445.914 146.876 447.758 148.818 449.97 150.231C452.367 151.644 454.948 152.35 457.898 152.35C460.663 152.35 462.875 151.997 464.719 151.467C466.562 150.937 468.037 150.231 468.959 149.525C470.065 148.818 470.803 148.112 471.171 147.406V134.515H457.713V137.164H468.406Z" fill="#1C1C1C"/>
<path d="M490.16 115.268H486.841V151.997H490.16V115.268Z" fill="#1C1C1C"/>
<path d="M509.15 134.339H527.032V131.69H509.15V117.917H529.613V115.268H505.831V151.997H529.613V149.348H509.15V134.339Z" fill="#1C1C1C"/>
<path d="M565.378 137.87C564.456 136.458 562.982 135.398 561.138 134.339C559.294 133.456 556.898 132.573 554.132 131.867C551.551 131.16 549.523 130.454 548.049 129.748C546.574 129.041 545.468 128.159 544.915 127.276C544.361 126.393 543.993 125.333 543.993 124.097C543.993 122.861 544.361 121.802 545.099 120.742C545.836 119.683 546.942 118.976 548.233 118.27C549.708 117.74 551.367 117.387 553.579 117.387C555.607 117.387 557.451 117.74 558.926 118.447C560.401 119.153 561.507 120.213 562.244 121.449C562.982 122.685 563.35 124.097 563.35 125.686H566.669C566.669 123.568 566.116 121.802 565.009 120.213C563.903 118.623 562.428 117.211 560.401 116.328C558.373 115.268 556.16 114.915 553.395 114.915C550.814 114.915 548.602 115.268 546.758 116.151C544.73 116.858 543.255 118.094 542.149 119.506C541.043 120.919 540.49 122.508 540.49 124.45C540.49 125.863 540.859 127.099 541.412 128.159C541.965 129.218 542.887 130.101 543.993 130.984C545.099 131.867 546.389 132.573 547.864 133.103C549.339 133.809 551.183 134.339 553.026 134.869C555.607 135.575 557.82 136.281 559.294 136.988C560.769 137.694 561.875 138.577 562.613 139.46C563.166 140.343 563.535 141.579 563.535 142.991C563.535 144.404 563.166 145.64 562.244 146.523C561.507 147.582 560.216 148.289 558.741 148.995C557.266 149.525 555.607 149.878 553.579 149.878C552.289 149.878 550.998 149.701 549.708 149.525C548.417 149.172 547.311 148.818 546.205 148.112C545.099 147.406 544.177 146.523 543.624 145.463C542.887 144.404 542.702 143.168 542.702 141.579H539.384C539.384 143.521 539.753 145.11 540.674 146.523C541.596 147.935 542.702 148.995 543.993 149.878C545.468 150.761 546.942 151.467 548.602 151.82C550.261 152.173 551.92 152.527 553.764 152.527C556.345 152.527 558.557 152.173 560.585 151.467C562.613 150.761 564.088 149.525 565.194 148.112C566.3 146.699 566.853 144.934 566.853 142.991C566.853 141.049 566.3 139.283 565.378 137.87Z" fill="#1C1C1C"/>
<path d="M123.474 115.268V117.917H136.563V151.997H139.881V117.917H152.971V115.268H123.474Z" stroke="#1C1C1C" stroke-width="1.81204" stroke-miterlimit="10"/>
<path d="M167.719 134.339H185.601V131.69H167.719V117.917H188.182V115.268H164.584V151.997H188.367V149.348H167.719V134.339Z" stroke="#1C1C1C" stroke-width="1.81204" stroke-miterlimit="10"/>
<path d="M203.854 123.921C204.776 121.802 206.066 120.212 207.725 119.153C209.385 117.917 211.412 117.387 213.809 117.387C217.128 117.387 219.524 118.27 221.368 119.859C223.027 121.449 224.133 123.744 224.502 126.746H227.82C227.636 124.274 226.899 122.155 225.792 120.212C224.686 118.447 223.027 117.034 221.183 116.151C219.156 115.268 216.943 114.739 214.178 114.739C211.228 114.739 208.647 115.445 206.435 116.857C204.223 118.27 202.563 120.212 201.273 122.685C200.167 125.157 199.429 127.982 199.429 131.337V135.928C199.429 139.283 199.982 142.108 201.273 144.58C202.379 147.053 204.223 148.995 206.251 150.408C208.463 151.82 210.859 152.527 213.809 152.527C216.575 152.527 218.971 151.997 220.999 151.114C223.027 150.231 224.502 148.818 225.792 147.053C226.899 145.287 227.636 143.168 227.82 140.696H224.502C224.133 142.815 223.58 144.404 222.843 145.817C221.921 147.229 220.815 148.289 219.34 148.995C217.865 149.701 216.021 150.054 213.625 150.054C211.228 150.054 209.2 149.525 207.541 148.289C205.882 147.053 204.591 145.463 203.669 143.344C202.748 141.225 202.379 138.93 202.379 136.105V131.514C202.379 128.512 202.932 126.04 203.854 123.921Z" stroke="#1C1C1C" stroke-width="1.81204" stroke-miterlimit="10"/>
<path d="M265.983 131.69H244.229V115.268H240.91V151.997H244.229V134.339H265.983V151.997H269.301V115.268H265.983V131.69Z" stroke="#1C1C1C" stroke-width="1.81204" stroke-miterlimit="10"/>
<path d="M309.674 146.699L287.735 115.268H284.417V151.997H287.735V120.566L309.674 151.997H312.992V115.268H309.674V146.699Z" stroke="#1C1C1C" stroke-width="1.81204" stroke-miterlimit="10"/>
<path d="M349.313 116.857C347.1 115.445 344.519 114.739 341.385 114.739C338.436 114.739 335.855 115.445 333.642 116.857C331.43 118.27 329.586 120.212 328.48 122.685C327.19 125.157 326.637 128.159 326.637 131.69V135.575C326.637 138.93 327.19 141.932 328.48 144.58C329.771 147.053 331.43 148.995 333.642 150.408C335.855 151.82 338.436 152.527 341.385 152.527C344.335 152.527 347.1 151.82 349.313 150.408C351.525 148.995 353.184 147.053 354.475 144.58C355.765 142.108 356.318 139.106 356.318 135.575V131.69C356.318 128.335 355.765 125.333 354.475 122.685C353.369 120.212 351.525 118.27 349.313 116.857ZM353.184 135.575C353.184 138.4 352.815 141.049 351.894 143.168C350.972 145.287 349.681 146.876 347.838 148.112C346.179 149.348 343.966 149.878 341.57 149.878C339.173 149.878 337.145 149.348 335.301 148.112C333.458 146.876 332.167 145.287 331.246 143.168C330.324 141.049 329.771 138.577 329.771 135.575V131.514C329.771 128.688 330.324 126.04 331.246 124.097C332.167 121.978 333.458 120.389 335.301 119.153C336.961 117.917 339.173 117.387 341.57 117.387C343.966 117.387 346.179 117.917 347.838 119.153C349.497 120.389 350.972 121.978 351.894 124.097C352.815 126.216 353.369 128.688 353.369 131.514V135.575H353.184Z" stroke="#1C1C1C" stroke-width="1.81204" stroke-miterlimit="10"/>
<path d="M373.279 115.268H369.96V151.997H392.083V149.348H373.279V115.268Z" stroke="#1C1C1C" stroke-width="1.81204" stroke-miterlimit="10"/>
<path d="M423.239 116.857C421.027 115.445 418.446 114.739 415.312 114.739C412.362 114.739 409.781 115.445 407.569 116.857C405.356 118.27 403.513 120.212 402.407 122.685C401.116 125.157 400.563 128.159 400.563 131.69V135.575C400.563 138.93 401.116 141.932 402.407 144.58C403.697 147.053 405.356 148.995 407.569 150.408C409.781 151.82 412.362 152.527 415.312 152.527C418.261 152.527 421.027 151.82 423.239 150.408C425.451 148.995 427.111 147.053 428.401 144.58C429.692 142.108 430.245 139.106 430.245 135.575V131.69C430.245 128.335 429.692 125.333 428.401 122.685C427.295 120.212 425.451 118.27 423.239 116.857ZM427.111 135.575C427.111 138.4 426.742 141.049 425.82 143.168C424.898 145.287 423.608 146.876 421.764 148.112C420.105 149.348 417.893 149.878 415.496 149.878C413.099 149.878 411.071 149.348 409.228 148.112C407.384 146.876 406.094 145.287 405.172 143.168C404.25 141.049 403.697 138.577 403.697 135.575V131.514C403.697 128.688 404.25 126.04 405.172 124.097C406.094 121.978 407.384 120.389 409.228 119.153C410.887 117.917 413.099 117.387 415.496 117.387C417.893 117.387 420.105 117.917 421.764 119.153C423.423 120.389 424.898 121.978 425.82 124.097C426.742 126.216 427.295 128.688 427.295 131.514V135.575H427.111Z" stroke="#1C1C1C" stroke-width="1.81204" stroke-miterlimit="10"/>
<path d="M468.406 137.164V146.699C468.037 147.053 467.484 147.582 466.562 148.112C465.641 148.642 464.535 148.995 463.244 149.348C461.954 149.701 460.294 149.878 458.266 149.878C455.87 149.878 453.657 149.348 451.814 148.112C449.97 146.876 448.495 145.287 447.574 143.168C446.652 141.049 446.099 138.577 446.099 135.751V131.16C446.099 128.335 446.467 126.04 447.389 123.921C448.311 121.802 449.602 120.212 451.261 119.153C452.92 117.917 455.132 117.387 457.529 117.387C459.926 117.387 461.769 117.74 463.244 118.447C464.719 119.153 465.825 120.212 466.562 121.449C467.3 122.685 467.853 124.097 468.037 125.51H471.356C471.171 123.391 470.434 121.625 469.328 120.036C468.222 118.447 466.747 117.034 464.719 116.151C462.691 115.268 460.294 114.739 457.529 114.739C454.395 114.739 451.814 115.445 449.602 116.681C447.389 118.094 445.73 119.859 444.44 122.331C443.149 124.804 442.596 127.629 442.596 131.16V135.575C442.596 138.93 443.333 141.932 444.624 144.404C445.914 146.876 447.758 148.818 449.97 150.231C452.367 151.644 454.948 152.35 457.898 152.35C460.663 152.35 462.875 151.997 464.719 151.467C466.562 150.937 468.037 150.231 468.959 149.525C470.065 148.818 470.803 148.112 471.171 147.406V134.515H457.713V137.164H468.406Z" stroke="#1C1C1C" stroke-width="1.81204" stroke-miterlimit="10"/>
<path d="M490.16 115.268H486.841V151.997H490.16V115.268Z" stroke="#1C1C1C" stroke-width="1.81204" stroke-miterlimit="10"/>
<path d="M509.15 134.339H527.032V131.69H509.15V117.917H529.613V115.268H505.831V151.997H529.613V149.348H509.15V134.339Z" stroke="#1C1C1C" stroke-width="1.81204" stroke-miterlimit="10"/>
<path d="M565.378 137.87C564.456 136.458 562.982 135.398 561.138 134.339C559.294 133.456 556.898 132.573 554.132 131.867C551.551 131.16 549.523 130.454 548.049 129.748C546.574 129.041 545.468 128.159 544.915 127.276C544.361 126.393 543.993 125.333 543.993 124.097C543.993 122.861 544.361 121.802 545.099 120.742C545.836 119.683 546.942 118.976 548.233 118.27C549.708 117.74 551.367 117.387 553.579 117.387C555.607 117.387 557.451 117.74 558.926 118.447C560.401 119.153 561.507 120.213 562.244 121.449C562.982 122.685 563.35 124.097 563.35 125.686H566.669C566.669 123.568 566.116 121.802 565.009 120.213C563.903 118.623 562.428 117.211 560.401 116.328C558.373 115.268 556.16 114.915 553.395 114.915C550.814 114.915 548.602 115.268 546.758 116.151C544.73 116.858 543.255 118.094 542.149 119.506C541.043 120.919 540.49 122.508 540.49 124.45C540.49 125.863 540.859 127.099 541.412 128.159C541.965 129.218 542.887 130.101 543.993 130.984C545.099 131.867 546.389 132.573 547.864 133.103C549.339 133.809 551.183 134.339 553.026 134.869C555.607 135.575 557.82 136.281 559.294 136.988C560.769 137.694 561.875 138.577 562.613 139.46C563.166 140.343 563.535 141.579 563.535 142.991C563.535 144.404 563.166 145.64 562.244 146.523C561.507 147.582 560.216 148.289 558.741 148.995C557.266 149.525 555.607 149.878 553.579 149.878C552.289 149.878 550.998 149.701 549.708 149.525C548.417 149.172 547.311 148.818 546.205 148.112C545.099 147.406 544.177 146.523 543.624 145.463C542.887 144.404 542.702 143.168 542.702 141.579H539.384C539.384 143.521 539.753 145.11 540.674 146.523C541.596 147.935 542.702 148.995 543.993 149.878C545.468 150.761 546.942 151.467 548.602 151.82C550.261 152.173 551.92 152.527 553.764 152.527C556.345 152.527 558.557 152.173 560.585 151.467C562.613 150.761 564.088 149.525 565.194 148.112C566.3 146.699 566.853 144.934 566.853 142.991C566.853 141.049 566.3 139.283 565.378 137.87Z" stroke="#1C1C1C" stroke-width="1.81204" stroke-miterlimit="10"/>
</svg>
