<svg width="232" height="44" viewBox="0 0 232 44" fill="none" xmlns="http://www.w3.org/2000/svg"><path d="M21.9842 42.9426H1.30962L11.6637 25.2958l10.3205 17.6468zM1.30962 1.55469H21.9842L11.6637 19.2014 1.30962 1.55469z" stroke="#fff" stroke-width="1.5"/><path d="M20.536 21.688H2.60333v.9789H20.536v-.9789zM46.0467 14.2085c-.2514-.56-.7544-1.0577-1.383-1.3688-.1886-.1244-.4401-.1866-.6915-.2488.1257-.0623.2514-.1245.3143-.1245.6915-.3733 1.1316-.8088 1.4459-1.4309.3143-.6222.4401-1.24434.4401-1.8665 0-1.49317-.5658-2.67526-1.7603-3.42185-1.1316-.74658-2.7661-1.11987-4.8407-1.11987h-6.0352V20.8033h6.6639c2.0746 0 3.6462-.3733 4.6521-1.2443 1.0687-.8088 1.5716-1.9909 1.5716-3.6085 0-.5599-.1257-1.1821-.3772-1.742zm-4.2749 2.7997c-.3143.311-.8172.4355-1.5716.4355h-2.5147V8.11134h.0629v-.06221h1.8231c.8173 0 1.4459.12443 1.7603.37329.3772.24886.5658.68437.5658 1.30652 0 .49776-.1886.93326-.503 1.18206-.3772.2489-.943.3733-1.8231.3733v2.7997h.8173c.44 0 .8172.0622 1.0687.2489.2515.1244.5029.3733.5658.6221.1257.2489.1886.6222.1886.9955 0 .3733-.1257.7466-.4401 1.0577zM60.129 14.2085c.44-.1867.8172-.4355 1.1316-.7466.5029-.3733.8801-.9333 1.1944-1.5554.3144-.6222.4401-1.431.4401-2.3642 0-1.05766-.2515-1.99089-.7544-2.67526-.5029-.74658-1.2573-1.24431-2.1375-1.67982-.943-.37329-2.0746-.55994-3.3319-.55994h-6.5381V20.8033h4.212V7.98692h2.3261c.6915 0 1.1945.18664 1.5088.49772.3143.37329.5029.8088.5029 1.49317 0 .43549-.0628.80879-.2514 1.05769-.1886.3111-.3772.4977-.6916.6843-.3143.1245-.6915.1867-1.1944.1867h-.4401v3.3596l2.7661 5.5372h4.5264v-.1866l-3.269-6.4082zM70.9415 7.98692V10.911h6.0352v3.2353h-6.0352v3.2974h7.1668v3.3596H66.7295V4.62728h11.3788v3.35964h-7.1668zM107.216 11.8443l5.281 8.959h-4.966l-3.144-5.6616-1.571 1.6798v3.9818h-4.2125V4.62728h4.2125V11.471l1.32-2.05313 3.206-4.79059h5.218l-5.344 7.21702zM127.962 4.62728v3.35964h-4.841V20.8033h-4.212V7.98692h-4.715V4.62728h13.768zM144.999 4.62728V20.8033h-4.212v-6.5326h-5.407v6.5326h-4.275V4.62728h4.275V10.911h5.407V4.62728h4.212zM158.955 14.2085c.44-.1867.817-.4355 1.131-.7466.503-.3733.943-.9333 1.195-1.5554.314-.6222.44-1.431.44-2.3642 0-1.05766-.252-1.99089-.754-2.67526-.503-.74658-1.258-1.24431-2.201-1.67982-.943-.37329-2.012-.55994-3.332-.55994h-6.538V20.8033h4.212V7.98692h2.326c.692 0 1.195.18664 1.509.49772.314.37329.503.8088.503 1.49317 0 .43549-.063.80879-.251 1.05769-.126.3111-.378.4977-.692.6843-.314.1245-.691.1867-1.194.1867h-.063v4.044l2.389 4.8528h4.526v-.1866l-3.206-6.4082zM178.632 8.17356c-.629-1.18209-1.446-2.11532-2.577-2.79969-1.069-.62216-2.326-.99545-3.71-.99545-1.445 0-2.703.31108-3.771.99545-1.069.68437-1.949 1.55538-2.578 2.79969-.629 1.18209-.943 2.67524-.943 4.35504v.4978c0 1.6798.314 3.1107.943 4.3551.629 1.182 1.509 2.1153 2.578 2.7996 1.068.6222 2.326.9955 3.771.9955 1.384 0 2.641-.3111 3.71-.9955 1.068-.6221 1.948-1.5553 2.577-2.7996.629-1.1821.943-2.6753.943-4.3551v-.4978c0-1.6798-.314-3.17295-.943-4.35504zM175.3 12.9642c0 .9954-.126 1.8664-.314 2.5508-.252.6844-.566 1.2443-1.006 1.5554-.44.3733-.943.5599-1.572.5599-.628 0-1.194-.1866-1.634-.5599-.44-.3733-.755-.871-1.006-1.5554-.252-.6844-.314-1.5554-.314-2.5508v-.4978c0-.9954.125-1.8664.314-2.5508.251-.68437.566-1.1821 1.006-1.55539.44-.37329 1.006-.49773 1.634-.49773.629 0 1.132.18665 1.635.49773.44.37329.754.87102 1.006 1.55539.251.6844.314 1.5554.314 2.5508v.4978h-.063zM191.834 4.62728V15.1417c0 .6222-.063 1.1199-.251 1.4932-.189.3733-.44.6843-.755.8088-.314.1866-.754.2488-1.257.2488-.503 0-.943-.0622-1.257-.2488-.378-.1867-.629-.4355-.755-.8088-.188-.3733-.251-.871-.251-1.4932V4.62728h-4.212V15.1417c0 1.2443.251 2.3642.817 3.2352s1.32 1.5554 2.326 1.9909 2.138.6844 3.458.6844c1.32 0 2.452-.2489 3.395-.6844.943-.4355 1.697-1.1199 2.263-1.9909.566-.871.817-1.9909.817-3.2352V4.62728h-4.338zM206.733 11.9687v2.9864h2.578v2.1775c-.126.0622-.252.1866-.44.2489-.189.0622-.44.1244-.692.1866-.251.0622-.565.0622-1.006.0622-.754 0-1.383-.1866-1.886-.4977-.502-.3111-.817-.8088-1.068-1.4932-.252-.6843-.315-1.5554-.315-2.5508v-.7466c0-1.0577.126-1.9287.378-2.61304.251-.68437.565-1.18209 1.005-1.49317.441-.31108.943-.49773 1.572-.49773.566 0 1.006.06222 1.383.24887.377.18664.629.4355.817.74658.189.37329.315.74659.378 1.30649h4.086c-.126-1.11984-.377-2.11529-.88-2.92409-.503-.87102-1.195-1.49317-2.2-1.9909-.943-.49772-2.201-.68437-3.772-.68437-1.384 0-2.578.31108-3.647.93324-1.068.62215-1.886 1.49317-2.514 2.73748-.629 1.18209-.881 2.61304-.881 4.35504v.6222c0 1.6798.315 3.173.881 4.3551.628 1.1821 1.446 2.0531 2.514 2.6752 1.069.6222 2.389.9333 3.835.9333 1.195 0 2.2-.1245 3.081-.3733.88-.2489 1.634-.56 2.2-.871.566-.3733 1.006-.6844 1.32-.9955v-6.8437h-6.727zM231.125 4.62728V20.8033h-4.212v-6.5326h-5.406v6.5326h-4.212V4.62728h4.212V10.911h5.406V4.62728h4.212zM96.277 20.8033L90.2418 4.62728h-3.9606L80.3089 20.8033h4.5264l3.4576-11.07435 3.4577 11.07435h4.5264zM33.5363 27.4615v.9333h4.4635v12.0076h1.1316V28.3948h4.4636v-.9333H33.5363zM48.624 34.1808h6.098v-.9332h-6.098v-4.8528h6.9781v-.9333h-8.0469v12.9409h8.1098v-.9333h-7.041v-5.2883zM60.9462 30.5101c.3143-.7466.7544-1.3065 1.3202-1.6798.5658-.4355 1.2573-.6222 2.0746-.6222 1.1316 0 1.9489.3111 2.5775.8711.5658.5599.943 1.3687 1.0688 2.4264h1.1316c-.0629-.8711-.3144-1.6176-.6916-2.302-.3772-.6222-.943-1.1199-1.5716-1.431-.6916-.3111-1.446-.4977-2.389-.4977-1.0058 0-1.886.2489-2.6404.7466-.7544.4977-1.3201 1.1821-1.7602 2.0531-.3772.871-.6287 1.8665-.6287 3.0486v1.6176c0 1.1821.1886 2.1775.6287 3.0485.3772.8711 1.0059 1.5554 1.6974 2.0531.7544.4978 1.5716.7466 2.5775.7466.943 0 1.7603-.1866 2.4518-.4977s1.1945-.8088 1.6345-1.4309c.3772-.6222.6287-1.3688.6916-2.2398h-1.1316c-.1258.7466-.3144 1.3065-.5658 1.8042-.3144.4978-.6916.8711-1.1945 1.1199-.5029.2489-1.1316.3733-1.9489.3733-.8172 0-1.5088-.1866-2.0746-.6221-.5658-.4355-1.0058-.9955-1.3202-1.7421-.3143-.7466-.44-1.5554-.44-2.5508v-1.6176c0-1.0577.1886-1.9287.5029-2.6753zM82.1324 33.2476h-7.4183v-5.7861h-1.1315v12.9409h1.1315v-6.2216h7.4183v6.2216h1.1316V27.4615h-1.1316v5.7861zM97.0312 38.5359l-7.4811-11.0744h-1.1316v12.9409h1.1316V29.328l7.4811 11.0744h1.1316V27.4615h-1.1316v11.0744zM110.548 28.0215c-.754-.4977-1.634-.7466-2.703-.7466-1.006 0-1.886.2489-2.641.7466-.754.4977-1.383 1.1821-1.76 2.0531-.44.871-.628 1.9287-.628 3.173v1.3687c0 1.1821.188 2.2398.628 3.173.44.8711 1.006 1.5554 1.76 2.0531.755.4978 1.635.7466 2.641.7466s1.949-.2488 2.703-.7466c.755-.4977 1.32-1.182 1.76-2.0531.44-.871.629-1.9286.629-3.173v-1.3687c0-1.1821-.189-2.2398-.629-3.173-.377-.871-1.005-1.5554-1.76-2.0531zm1.32 6.5948c0 .9955-.125 1.9287-.44 2.6753-.314.7466-.754 1.3065-1.383 1.742-.566.4356-1.32.6222-2.137.6222-.818 0-1.509-.1866-2.138-.6222-.628-.4355-1.068-.9954-1.383-1.742-.314-.7466-.503-1.6176-.503-2.6753v-1.4309c0-.9955.189-1.9287.503-2.6131.315-.7466.755-1.3065 1.383-1.742.566-.4355 1.32-.6222 2.138-.6222.817 0 1.571.1867 2.137.6222.566.4355 1.069.9954 1.383 1.742.315.7466.503 1.6176.503 2.6131v1.4309h-.063zM118.721 27.4615h-1.132v12.9409h7.544v-.9333h-6.412V27.4615zM135.757 28.0215c-.754-.4977-1.634-.7466-2.703-.7466-1.006 0-1.886.2489-2.64.7466-.755.4977-1.383 1.1821-1.761 2.0531-.44.871-.628 1.9287-.628 3.173v1.3687c0 1.1821.188 2.2398.628 3.173.44.8711 1.006 1.5554 1.761 2.0531.754.4978 1.634.7466 2.64.7466 1.006 0 1.949-.2488 2.703-.7466.755-.4977 1.32-1.182 1.761-2.0531.44-.871.628-1.9286.628-3.173v-1.3687c0-1.1821-.188-2.2398-.628-3.173-.378-.871-1.006-1.5554-1.761-2.0531zm1.32 6.5948c0 .9955-.125 1.9287-.44 2.6753-.314.7466-.754 1.3065-1.383 1.742-.565.4356-1.32.6222-2.137.6222s-1.509-.1866-2.138-.6222c-.628-.4355-1.068-.9954-1.383-1.742-.314-.7466-.503-1.6176-.503-2.6753v-1.4309c0-.9955.189-1.9287.503-2.6131.315-.7466.755-1.3065 1.383-1.742.566-.4355 1.321-.6222 2.138-.6222s1.572.1867 2.137.6222c.566.4355 1.069.9954 1.383 1.742.315.7466.503 1.6176.503 2.6131v1.4309h-.063zM151.159 35.1763v3.3596c-.125.1244-.314.3111-.628.4977-.315.1867-.692.3111-1.132.4356-.44.1244-1.006.1866-1.697.1866-.818 0-1.572-.1867-2.201-.6222-.628-.4355-1.131-.9954-1.446-1.742-.314-.7466-.503-1.6176-.503-2.613v-1.6177c0-.9954.126-1.8042.441-2.5508.314-.7466.754-1.3065 1.32-1.6798.566-.4355 1.32-.6222 2.137-.6222s1.446.1245 1.949.3733c.503.2489.88.6222 1.132 1.0577.251.4355.44.9332.503 1.431h1.131c-.063-.7466-.314-1.3688-.691-1.9287-.378-.56-.88-1.0577-1.572-1.3688-.692-.3111-1.509-.4977-2.452-.4977-1.069 0-1.949.2489-2.703.6844-.754.4977-1.32 1.1199-1.76 1.9909-.44.871-.629 1.8664-.629 3.1107v1.5554c0 1.1821.251 2.2398.692 3.1108.44.871 1.068 1.5554 1.823 2.0531.817.4978 1.697.7466 2.703.7466.943 0 1.697-.1244 2.326-.3111.629-.1866 1.132-.4355 1.446-.6843.377-.2489.629-.4978.754-.7466V34.243h-4.589v.9333h3.646zM158.577 27.4615h-1.131v12.9409h1.131V27.4615zM165.053 34.1808h6.098v-.9332h-6.098v-4.8528h6.978v-.9333h-8.11v12.9409h8.11v-.9333h-6.978v-5.2883zM184.227 35.4252c-.314-.4978-.817-.8711-1.446-1.2444-.628-.311-1.446-.6221-2.389-.871-.88-.2488-1.571-.4977-2.074-.7466-.503-.2488-.88-.5599-1.069-.871-.189-.3111-.314-.6844-.314-1.1199 0-.4355.125-.8088.377-1.1821.251-.3733.628-.6221 1.069-.871.502-.1866 1.068-.3111 1.823-.3111.691 0 1.32.1245 1.823.3733.503.2489.88.6222 1.131 1.0577.252.4355.378.9332.378 1.4932h1.131c0-.7466-.188-1.3688-.566-1.9287-.377-.5599-.88-1.0577-1.571-1.3687-.692-.3733-1.446-.4978-2.389-.4978-.88 0-1.635.1245-2.263.4355-.692.2489-1.195.6844-1.572 1.1821-.377.4978-.566 1.0577-.566 1.7421 0 .4977.126.9332.314 1.3065.189.3733.503.6844.881.9954.377.3111.817.56 1.32.7466.503.2489 1.131.4355 1.76.6222.88.2488 1.635.4977 2.138.7466.502.2488.88.5599 1.131.871.189.3111.314.7466.314 1.2443 0 .4977-.125.9332-.44 1.2443-.251.3733-.691.6222-1.194.871-.503.1867-1.069.3111-1.76.3111-.44 0-.88-.0622-1.321-.1244-.44-.1245-.817-.2489-1.194-.4977-.377-.2489-.692-.56-.88-.9333-.252-.3733-.314-.8088-.314-1.3687h-1.132c0 .6844.126 1.2443.44 1.742.314.4977.692.871 1.132 1.1821.503.3111 1.005.56 1.571.6844.566.1244 1.132.2488 1.761.2488.88 0 1.634-.1244 2.326-.3732.691-.2489 1.194-.6844 1.571-1.1821.377-.4978.566-1.1199.566-1.8043 0-.6844-.189-1.3065-.503-1.8042z" fill="#fff"/><path d="M33.5363 27.4615v.9333h4.4635v12.0076h1.1316V28.3948h4.4636v-.9333H33.5363zM48.624 34.1808h6.098v-.9332h-6.098v-4.8528h6.9781v-.9333h-8.0469v12.9409h8.1098v-.9333h-7.041v-5.2883zM60.9462 30.5101c.3143-.7466.7544-1.3065 1.3202-1.6798.5658-.4355 1.2573-.6222 2.0746-.6222 1.1316 0 1.9489.3111 2.5775.8711.5658.5599.943 1.3687 1.0688 2.4264h1.1316c-.0629-.8711-.3144-1.6176-.6916-2.302-.3772-.6222-.943-1.1199-1.5716-1.431-.6916-.3111-1.446-.4977-2.389-.4977-1.0058 0-1.886.2489-2.6404.7466-.7544.4977-1.3201 1.1821-1.7602 2.0531-.3772.871-.6287 1.8665-.6287 3.0486v1.6176c0 1.1821.1886 2.1775.6287 3.0485.3772.8711 1.0059 1.5554 1.6974 2.0531.7544.4978 1.5716.7466 2.5775.7466.943 0 1.7603-.1866 2.4518-.4977s1.1945-.8088 1.6345-1.4309c.3772-.6222.6287-1.3688.6916-2.2398h-1.1316c-.1258.7466-.3144 1.3065-.5658 1.8042-.3144.4978-.6916.8711-1.1945 1.1199-.5029.2489-1.1316.3733-1.9489.3733-.8172 0-1.5088-.1866-2.0746-.6221-.5658-.4355-1.0058-.9955-1.3202-1.7421-.3143-.7466-.44-1.5554-.44-2.5508v-1.6176c0-1.0577.1886-1.9287.5029-2.6753zM82.1324 33.2476h-7.4183v-5.7861h-1.1315v12.9409h1.1315v-6.2216h7.4183v6.2216h1.1316V27.4615h-1.1316v5.7861zM97.0312 38.5359l-7.4811-11.0744h-1.1316v12.9409h1.1316V29.328l7.4811 11.0744h1.1316V27.4615h-1.1316v11.0744zM110.548 28.0215c-.754-.4977-1.634-.7466-2.703-.7466-1.006 0-1.886.2489-2.641.7466-.754.4977-1.383 1.1821-1.76 2.0531-.44.871-.628 1.9287-.628 3.173v1.3687c0 1.1821.188 2.2398.628 3.173.44.8711 1.006 1.5554 1.76 2.0531.755.4978 1.635.7466 2.641.7466s1.949-.2488 2.703-.7466c.755-.4977 1.32-1.182 1.76-2.0531.44-.871.629-1.9286.629-3.173v-1.3687c0-1.1821-.189-2.2398-.629-3.173-.377-.871-1.005-1.5554-1.76-2.0531zm1.32 6.5948c0 .9955-.125 1.9287-.44 2.6753-.314.7466-.754 1.3065-1.383 1.742-.566.4356-1.32.6222-2.137.6222-.818 0-1.509-.1866-2.138-.6222-.628-.4355-1.068-.9954-1.383-1.742-.314-.7466-.503-1.6176-.503-2.6753v-1.4309c0-.9955.189-1.9287.503-2.6131.315-.7466.755-1.3065 1.383-1.742.566-.4355 1.32-.6222 2.138-.6222.817 0 1.571.1867 2.137.6222.566.4355 1.069.9954 1.383 1.742.315.7466.503 1.6176.503 2.6131v1.4309h-.063zM118.721 27.4615h-1.132v12.9409h7.544v-.9333h-6.412V27.4615zM135.757 28.0215c-.754-.4977-1.634-.7466-2.703-.7466-1.006 0-1.886.2489-2.64.7466-.755.4977-1.383 1.1821-1.761 2.0531-.44.871-.628 1.9287-.628 3.173v1.3687c0 1.1821.188 2.2398.628 3.173.44.8711 1.006 1.5554 1.761 2.0531.754.4978 1.634.7466 2.64.7466 1.006 0 1.949-.2488 2.703-.7466.755-.4977 1.32-1.182 1.761-2.0531.44-.871.628-1.9286.628-3.173v-1.3687c0-1.1821-.188-2.2398-.628-3.173-.378-.871-1.006-1.5554-1.761-2.0531zm1.32 6.5948c0 .9955-.125 1.9287-.44 2.6753-.314.7466-.754 1.3065-1.383 1.742-.565.4356-1.32.6222-2.137.6222s-1.509-.1866-2.138-.6222c-.628-.4355-1.068-.9954-1.383-1.742-.314-.7466-.503-1.6176-.503-2.6753v-1.4309c0-.9955.189-1.9287.503-2.6131.315-.7466.755-1.3065 1.383-1.742.566-.4355 1.321-.6222 2.138-.6222s1.572.1867 2.137.6222c.566.4355 1.069.9954 1.383 1.742.315.7466.503 1.6176.503 2.6131v1.4309h-.063zM151.159 35.1763v3.3596c-.125.1244-.314.3111-.628.4977-.315.1867-.692.3111-1.132.4356-.44.1244-1.006.1866-1.697.1866-.818 0-1.572-.1867-2.201-.6222-.628-.4355-1.131-.9954-1.446-1.742-.314-.7466-.503-1.6176-.503-2.613v-1.6177c0-.9954.126-1.8042.441-2.5508.314-.7466.754-1.3065 1.32-1.6798.566-.4355 1.32-.6222 2.137-.6222s1.446.1245 1.949.3733c.503.2489.88.6222 1.132 1.0577.251.4355.44.9332.503 1.431h1.131c-.063-.7466-.314-1.3688-.691-1.9287-.378-.56-.88-1.0577-1.572-1.3688-.692-.3111-1.509-.4977-2.452-.4977-1.069 0-1.949.2489-2.703.6844-.754.4977-1.32 1.1199-1.76 1.9909-.44.871-.629 1.8664-.629 3.1107v1.5554c0 1.1821.251 2.2398.692 3.1108.44.871 1.068 1.5554 1.823 2.0531.817.4978 1.697.7466 2.703.7466.943 0 1.697-.1244 2.326-.3111.629-.1866 1.132-.4355 1.446-.6843.377-.2489.629-.4978.754-.7466V34.243h-4.589v.9333h3.646zM158.577 27.4615h-1.131v12.9409h1.131V27.4615zM165.053 34.1808h6.098v-.9332h-6.098v-4.8528h6.978v-.9333h-8.11v12.9409h8.11v-.9333h-6.978v-5.2883zM184.227 35.4252c-.314-.4978-.817-.8711-1.446-1.2444-.628-.311-1.446-.6221-2.389-.871-.88-.2488-1.571-.4977-2.074-.7466-.503-.2488-.88-.5599-1.069-.871-.189-.3111-.314-.6844-.314-1.1199 0-.4355.125-.8088.377-1.1821.251-.3733.628-.6221 1.069-.871.502-.1866 1.068-.3111 1.823-.3111.691 0 1.32.1245 1.823.3733.503.2489.88.6222 1.131 1.0577.252.4355.378.9332.378 1.4932h1.131c0-.7466-.188-1.3688-.566-1.9287-.377-.5599-.88-1.0577-1.571-1.3687-.692-.3733-1.446-.4978-2.389-.4978-.88 0-1.635.1245-2.263.4355-.692.2489-1.195.6844-1.572 1.1821-.377.4978-.566 1.0577-.566 1.7421 0 .4977.126.9332.314 1.3065.189.3733.503.6844.881.9954.377.3111.817.56 1.32.7466.503.2489 1.131.4355 1.76.6222.88.2488 1.635.4977 2.138.7466.502.2488.88.5599 1.131.871.189.3111.314.7466.314 1.2443 0 .4977-.125.9332-.44 1.2443-.251.3733-.691.6222-1.194.871-.503.1867-1.069.3111-1.76.3111-.44 0-.88-.0622-1.321-.1244-.44-.1245-.817-.2489-1.194-.4977-.377-.2489-.692-.56-.88-.9333-.252-.3733-.314-.8088-.314-1.3687h-1.132c0 .6844.126 1.2443.44 1.742.314.4977.692.871 1.132 1.1821.503.3111 1.005.56 1.571.6844.566.1244 1.132.2488 1.761.2488.88 0 1.634-.1244 2.326-.3732.691-.2489 1.194-.6844 1.571-1.1821.377-.4978.566-1.1199.566-1.8043 0-.6844-.189-1.3065-.503-1.8042z" stroke="#fff" stroke-width=".755725" stroke-miterlimit="10"/></svg>