<svg width="787" height="290" viewBox="0 0 787 290" fill="none" xmlns="http://www.w3.org/2000/svg">
<path d="M76 218.224L116.423 149.515L156.716 218.224H76Z" fill="#E00600"/>
<path d="M156.716 70L116.423 138.709L76 70H156.716Z" fill="#1858FD"/>
<path d="M147.166 142.174H85.0217V145.557H147.166V142.174Z" fill="white"/>
<path d="M504.531 126.178V136.852H475.436V126.178H504.531ZM480.377 79.2947V136.852H466.502V79.2947H480.377Z" fill="white"/>
<path d="M457.904 126.178V136.852H427.228V126.178H457.904ZM432.169 79.2947V136.852H418.294V79.2947H432.169ZM453.951 102.144V112.461H427.228V102.144H453.951ZM458.022 79.2947V90.0076H427.228V79.2947H458.022Z" fill="white"/>
<path d="M382.639 123.293L394.617 79.2947H410.153L390.743 136.852H380.702L382.639 123.293ZM371.768 79.2947L383.746 123.293L385.762 136.852H375.603L356.312 79.2947H371.768Z" fill="white"/>
<path d="M334.939 79.2947H348.814V116.889C348.814 121.369 347.879 125.164 346.008 128.274C344.136 131.357 341.514 133.689 338.141 135.271C334.768 136.852 330.801 137.642 326.242 137.642C321.736 137.642 317.769 136.852 314.343 135.271C310.944 133.689 308.282 131.357 306.358 128.274C304.46 125.164 303.512 121.369 303.512 116.889V79.2947H317.427V116.889C317.427 119.261 317.769 121.198 318.454 122.7C319.14 124.176 320.141 125.256 321.459 125.941C322.777 126.626 324.371 126.969 326.242 126.969C328.14 126.969 329.734 126.626 331.025 125.941C332.317 125.256 333.292 124.176 333.951 122.7C334.609 121.198 334.939 119.261 334.939 116.889V79.2947Z" fill="white"/>
<path d="M296.444 106.927V109.259C296.444 113.66 295.825 117.614 294.586 121.119C293.374 124.597 291.648 127.575 289.408 130.053C287.168 132.504 284.519 134.388 281.462 135.706C278.405 136.997 275.032 137.643 271.342 137.643C267.626 137.643 264.226 136.997 261.143 135.706C258.086 134.388 255.424 132.504 253.158 130.053C250.918 127.575 249.178 124.597 247.94 121.119C246.727 117.614 246.121 113.66 246.121 109.259V106.927C246.121 102.526 246.727 98.5727 247.94 95.0676C249.178 91.5626 250.904 88.5846 253.118 86.1336C255.358 83.6564 258.007 81.772 261.064 80.4807C264.147 79.163 267.547 78.5042 271.263 78.5042C274.953 78.5042 278.326 79.163 281.383 80.4807C284.466 81.772 287.128 83.6564 289.368 86.1336C291.608 88.5846 293.348 91.5626 294.586 95.0676C295.825 98.5727 296.444 102.526 296.444 106.927ZM282.371 109.259V106.848C282.371 104.002 282.121 101.498 281.62 99.337C281.146 97.1496 280.434 95.318 279.485 93.8422C278.537 92.3664 277.364 91.2595 275.967 90.5216C274.597 89.7573 273.029 89.3752 271.263 89.3752C269.418 89.3752 267.811 89.7573 266.44 90.5216C265.07 91.2595 263.923 92.3664 263.001 93.8422C262.079 95.318 261.38 97.1496 260.906 99.337C260.458 101.498 260.234 104.002 260.234 106.848V109.259C260.234 112.079 260.458 114.583 260.906 116.77C261.38 118.931 262.079 120.763 263.001 122.265C263.95 123.767 265.109 124.9 266.48 125.665C267.876 126.429 269.497 126.811 271.342 126.811C273.108 126.811 274.676 126.429 276.046 125.665C277.417 124.9 278.563 123.767 279.485 122.265C280.434 120.763 281.146 118.931 281.62 116.77C282.121 114.583 282.371 112.079 282.371 109.259Z" fill="white"/>
<path d="M239.096 79.2947V136.852H225.26L204.902 101.037V136.852H191.026V79.2947H204.902L225.26 115.11V79.2947H239.096Z" fill="white"/>
<path d="M190.547 163.412V166.608H205.793V207.729H209.658V166.608H224.904V163.412H190.547Z" fill="white"/>
<path d="M242.081 186.423H262.91V183.227H242.081V166.608H265.916V163.412H238.431V207.729H266.131V204.533H242.081V186.423Z" fill="white"/>
<path d="M284.169 173.852C285.243 171.296 286.746 169.378 288.679 168.1C290.611 166.608 292.973 165.969 295.765 165.969C299.63 165.969 302.421 167.034 304.569 168.952C306.501 170.869 307.789 173.639 308.219 177.261H312.084C311.869 174.278 311.01 171.722 309.722 169.378C308.434 167.247 306.501 165.543 304.354 164.478C301.992 163.412 299.415 162.773 296.194 162.773C292.758 162.773 289.752 163.625 287.175 165.33C284.599 167.034 282.666 169.378 281.163 172.361C279.875 175.344 279.016 178.753 279.016 182.801V188.34C279.016 192.389 279.66 195.798 281.163 198.78C282.451 201.763 284.599 204.107 286.961 205.811C289.538 207.516 292.329 208.368 295.765 208.368C298.986 208.368 301.777 207.729 304.139 206.664C306.501 205.598 308.219 203.894 309.722 201.763C311.01 199.633 311.869 197.076 312.084 194.093H308.219C307.789 196.65 307.145 198.567 306.286 200.272C305.213 201.976 303.924 203.255 302.206 204.107C300.489 204.959 298.341 205.385 295.55 205.385C292.758 205.385 290.396 204.746 288.464 203.255C286.531 201.763 285.028 199.846 283.955 197.289C282.881 194.732 282.451 191.962 282.451 188.554V183.014C282.451 179.392 283.096 176.409 284.169 173.852Z" fill="white"/>
<path d="M356.533 183.227H331.195V163.412H327.33V207.729H331.195V186.423H356.533V207.729H360.399V163.412H356.533V183.227Z" fill="white"/>
<path d="M407.422 201.337L381.87 163.412H378.005V207.729H381.87V169.804L407.422 207.729H411.288V163.412H407.422V201.337Z" fill="white"/>
<path d="M453.591 165.33C451.014 163.625 448.008 162.773 444.358 162.773C440.922 162.773 437.916 163.625 435.339 165.33C432.762 167.034 430.615 169.378 429.327 172.361C427.824 175.344 427.18 178.966 427.18 183.227V187.914C427.18 191.962 427.824 195.584 429.327 198.78C430.83 201.763 432.762 204.107 435.339 205.811C437.916 207.516 440.922 208.368 444.358 208.368C447.794 208.368 451.014 207.516 453.591 205.811C456.168 204.107 458.101 201.763 459.604 198.78C461.107 195.798 461.751 192.176 461.751 187.914V183.227C461.751 179.179 461.107 175.557 459.604 172.361C458.315 169.378 456.168 167.034 453.591 165.33ZM458.101 187.914C458.101 191.323 457.671 194.519 456.597 197.076C455.524 199.633 454.021 201.55 451.873 203.042C449.941 204.533 447.364 205.172 444.573 205.172C441.781 205.172 439.419 204.533 437.272 203.042C435.125 201.55 433.621 199.633 432.548 197.076C431.474 194.519 430.83 191.536 430.83 187.914V183.014C430.83 179.605 431.474 176.409 432.548 174.065C433.621 171.509 435.125 169.591 437.272 168.1C439.204 166.608 441.781 165.969 444.573 165.969C447.364 165.969 449.941 166.608 451.873 168.1C453.806 169.591 455.524 171.509 456.597 174.065C457.671 176.622 458.315 179.605 458.315 183.014V187.914H458.101Z" fill="white"/>
<path d="M481.505 163.412H477.64V207.729H503.408V204.533H481.505V163.412Z" fill="white"/>
<path d="M539.696 165.33C537.12 163.625 534.113 162.773 530.463 162.773C527.027 162.773 524.021 163.625 521.444 165.33C518.868 167.034 516.72 169.378 515.432 172.361C513.929 175.344 513.285 178.966 513.285 183.227V187.914C513.285 191.962 513.929 195.584 515.432 198.78C516.935 201.763 518.868 204.107 521.444 205.811C524.021 207.516 527.027 208.368 530.463 208.368C533.899 208.368 537.12 207.516 539.696 205.811C542.273 204.107 544.206 201.763 545.709 198.78C547.212 195.798 547.856 192.176 547.856 187.914V183.227C547.856 179.179 547.212 175.557 545.709 172.361C544.42 169.378 542.273 167.034 539.696 165.33ZM544.206 187.914C544.206 191.323 543.776 194.519 542.703 197.076C541.629 199.633 540.126 201.55 537.979 203.042C536.046 204.533 533.469 205.172 530.678 205.172C527.886 205.172 525.524 204.533 523.377 203.042C521.23 201.55 519.727 199.633 518.653 197.076C517.579 194.519 516.935 191.536 516.935 187.914V183.014C516.935 179.605 517.579 176.409 518.653 174.065C519.727 171.509 521.23 169.591 523.377 168.1C525.31 166.608 527.886 165.969 530.678 165.969C533.469 165.969 536.046 166.608 537.979 168.1C539.911 169.591 541.629 171.509 542.703 174.065C543.776 176.622 544.42 179.605 544.42 183.014V187.914H544.206Z" fill="white"/>
<path d="M592.304 189.832V201.337C591.875 201.763 591.231 202.402 590.157 203.042C589.083 203.681 587.795 204.107 586.292 204.533C584.789 204.959 582.856 205.172 580.494 205.172C577.703 205.172 575.126 204.533 572.979 203.042C570.831 201.55 569.113 199.633 568.04 197.076C566.966 194.519 566.322 191.536 566.322 188.127V182.588C566.322 179.179 566.751 176.409 567.825 173.852C568.899 171.296 570.402 169.378 572.334 168.1C574.267 166.608 576.844 165.969 579.635 165.969C582.427 165.969 584.574 166.395 586.292 167.247C588.01 168.1 589.298 169.378 590.157 170.869C591.016 172.361 591.66 174.065 591.875 175.77H595.74C595.525 173.213 594.666 171.083 593.378 169.165C592.089 167.247 590.372 165.543 588.01 164.478C585.648 163.412 582.856 162.773 579.635 162.773C575.985 162.773 572.979 163.625 570.402 165.117C567.825 166.821 565.893 168.952 564.389 171.935C562.886 174.918 562.242 178.327 562.242 182.588V187.914C562.242 191.962 563.101 195.584 564.604 198.567C566.107 201.55 568.255 203.894 570.831 205.598C573.623 207.303 576.629 208.155 580.065 208.155C583.286 208.155 585.862 207.729 588.01 207.09C590.157 206.451 591.875 205.598 592.948 204.746C594.237 203.894 595.096 203.042 595.525 202.189V186.636H579.85V189.832H592.304Z" fill="white"/>
<path d="M617.642 163.412H613.777V207.729H617.642V163.412Z" fill="white"/>
<path d="M639.76 186.423H660.589V183.227H639.76V166.608H663.595V163.412H635.895V207.729H663.595V204.533H639.76V186.423Z" fill="white"/>
<path d="M705.252 190.684C704.178 188.98 702.46 187.701 700.313 186.423C698.166 185.358 695.374 184.292 692.153 183.44C689.147 182.588 686.785 181.736 685.067 180.883C683.349 180.031 682.061 178.966 681.417 177.901C680.773 176.835 680.343 175.557 680.343 174.065C680.343 172.574 680.773 171.296 681.632 170.017C682.49 168.739 683.779 167.887 685.282 167.034C687 166.395 688.932 165.969 691.509 165.969C693.871 165.969 696.018 166.395 697.736 167.248C699.454 168.1 700.742 169.378 701.601 170.87C702.46 172.361 702.89 174.065 702.89 175.983H706.755C706.755 173.426 706.111 171.296 704.822 169.378C703.534 167.461 701.816 165.756 699.454 164.691C697.092 163.412 694.515 162.986 691.294 162.986C688.288 162.986 685.711 163.412 683.564 164.478C681.202 165.33 679.484 166.821 678.196 168.526C676.907 170.23 676.263 172.148 676.263 174.492C676.263 176.196 676.693 177.687 677.337 178.966C677.981 180.244 679.055 181.309 680.343 182.375C681.631 183.44 683.135 184.292 684.852 184.932C686.57 185.784 688.718 186.423 690.865 187.062C693.871 187.914 696.448 188.767 698.166 189.619C699.883 190.471 701.172 191.536 702.031 192.602C702.675 193.667 703.104 195.158 703.104 196.863C703.104 198.567 702.675 200.059 701.601 201.124C700.742 202.402 699.239 203.255 697.521 204.107C695.804 204.746 693.871 205.172 691.509 205.172C690.006 205.172 688.503 204.959 687 204.746C685.497 204.32 684.208 203.894 682.92 203.042C681.632 202.189 680.558 201.124 679.914 199.846C679.055 198.567 678.84 197.076 678.84 195.158H674.975C674.975 197.502 675.404 199.42 676.478 201.124C677.552 202.829 678.84 204.107 680.343 205.172C682.061 206.238 683.779 207.09 685.711 207.516C687.644 207.942 689.576 208.368 691.724 208.368C694.73 208.368 697.307 207.942 699.669 207.09C702.031 206.238 703.749 204.746 705.037 203.042C706.325 201.337 706.969 199.207 706.969 196.863C706.969 194.519 706.325 192.389 705.252 190.684Z" fill="white"/>
<path d="M190.547 163.412V166.608H205.793V207.729H209.658V166.608H224.904V163.412H190.547Z" stroke="white" stroke-width="1.70448" stroke-miterlimit="10"/>
<path d="M242.081 186.423H262.91V183.227H242.081V166.608H265.916V163.412H238.431V207.729H266.131V204.533H242.081V186.423Z" stroke="white" stroke-width="1.70448" stroke-miterlimit="10"/>
<path d="M284.169 173.852C285.243 171.296 286.746 169.378 288.679 168.1C290.611 166.608 292.973 165.969 295.765 165.969C299.63 165.969 302.421 167.034 304.569 168.952C306.501 170.869 307.789 173.639 308.219 177.261H312.084C311.869 174.278 311.01 171.722 309.722 169.378C308.434 167.247 306.501 165.543 304.354 164.478C301.992 163.412 299.415 162.773 296.194 162.773C292.758 162.773 289.752 163.625 287.175 165.33C284.599 167.034 282.666 169.378 281.163 172.361C279.875 175.344 279.016 178.753 279.016 182.801V188.34C279.016 192.389 279.66 195.798 281.163 198.78C282.451 201.763 284.599 204.107 286.961 205.811C289.538 207.516 292.329 208.368 295.765 208.368C298.986 208.368 301.777 207.729 304.139 206.664C306.501 205.598 308.219 203.894 309.722 201.763C311.01 199.633 311.869 197.076 312.084 194.093H308.219C307.789 196.65 307.145 198.567 306.286 200.272C305.213 201.976 303.924 203.255 302.206 204.107C300.489 204.959 298.341 205.385 295.55 205.385C292.758 205.385 290.396 204.746 288.464 203.255C286.531 201.763 285.028 199.846 283.955 197.289C282.881 194.732 282.451 191.962 282.451 188.554V183.014C282.451 179.392 283.096 176.409 284.169 173.852Z" stroke="white" stroke-width="1.70448" stroke-miterlimit="10"/>
<path d="M356.533 183.227H331.195V163.412H327.33V207.729H331.195V186.423H356.533V207.729H360.399V163.412H356.533V183.227Z" stroke="white" stroke-width="1.70448" stroke-miterlimit="10"/>
<path d="M407.422 201.337L381.87 163.412H378.005V207.729H381.87V169.804L407.422 207.729H411.288V163.412H407.422V201.337Z" stroke="white" stroke-width="1.70448" stroke-miterlimit="10"/>
<path d="M453.591 165.33C451.014 163.625 448.008 162.773 444.358 162.773C440.922 162.773 437.916 163.625 435.339 165.33C432.762 167.034 430.615 169.378 429.327 172.361C427.824 175.344 427.18 178.966 427.18 183.227V187.914C427.18 191.962 427.824 195.584 429.327 198.78C430.83 201.763 432.762 204.107 435.339 205.811C437.916 207.516 440.922 208.368 444.358 208.368C447.794 208.368 451.014 207.516 453.591 205.811C456.168 204.107 458.101 201.763 459.604 198.78C461.107 195.798 461.751 192.176 461.751 187.914V183.227C461.751 179.179 461.107 175.557 459.604 172.361C458.315 169.378 456.168 167.034 453.591 165.33ZM458.101 187.914C458.101 191.323 457.671 194.519 456.597 197.076C455.524 199.633 454.021 201.55 451.873 203.042C449.941 204.533 447.364 205.172 444.573 205.172C441.781 205.172 439.419 204.533 437.272 203.042C435.125 201.55 433.621 199.633 432.548 197.076C431.474 194.519 430.83 191.536 430.83 187.914V183.014C430.83 179.605 431.474 176.409 432.548 174.065C433.621 171.509 435.125 169.591 437.272 168.1C439.204 166.608 441.781 165.969 444.573 165.969C447.364 165.969 449.941 166.608 451.873 168.1C453.806 169.591 455.524 171.509 456.597 174.065C457.671 176.622 458.315 179.605 458.315 183.014V187.914H458.101Z" stroke="white" stroke-width="1.70448" stroke-miterlimit="10"/>
<path d="M481.505 163.412H477.64V207.729H503.408V204.533H481.505V163.412Z" stroke="white" stroke-width="1.70448" stroke-miterlimit="10"/>
<path d="M539.696 165.33C537.12 163.625 534.113 162.773 530.463 162.773C527.027 162.773 524.021 163.625 521.444 165.33C518.868 167.034 516.72 169.378 515.432 172.361C513.929 175.344 513.285 178.966 513.285 183.227V187.914C513.285 191.962 513.929 195.584 515.432 198.78C516.935 201.763 518.868 204.107 521.444 205.811C524.021 207.516 527.027 208.368 530.463 208.368C533.899 208.368 537.12 207.516 539.696 205.811C542.273 204.107 544.206 201.763 545.709 198.78C547.212 195.798 547.856 192.176 547.856 187.914V183.227C547.856 179.179 547.212 175.557 545.709 172.361C544.42 169.378 542.273 167.034 539.696 165.33ZM544.206 187.914C544.206 191.323 543.776 194.519 542.703 197.076C541.629 199.633 540.126 201.55 537.979 203.042C536.046 204.533 533.469 205.172 530.678 205.172C527.886 205.172 525.524 204.533 523.377 203.042C521.23 201.55 519.727 199.633 518.653 197.076C517.579 194.519 516.935 191.536 516.935 187.914V183.014C516.935 179.605 517.579 176.409 518.653 174.065C519.727 171.509 521.23 169.591 523.377 168.1C525.31 166.608 527.886 165.969 530.678 165.969C533.469 165.969 536.046 166.608 537.979 168.1C539.911 169.591 541.629 171.509 542.703 174.065C543.776 176.622 544.42 179.605 544.42 183.014V187.914H544.206Z" stroke="white" stroke-width="1.70448" stroke-miterlimit="10"/>
<path d="M592.304 189.832V201.337C591.875 201.763 591.231 202.402 590.157 203.042C589.083 203.681 587.795 204.107 586.292 204.533C584.789 204.959 582.856 205.172 580.494 205.172C577.703 205.172 575.126 204.533 572.979 203.042C570.831 201.55 569.113 199.633 568.04 197.076C566.966 194.519 566.322 191.536 566.322 188.127V182.588C566.322 179.179 566.751 176.409 567.825 173.852C568.899 171.296 570.402 169.378 572.334 168.1C574.267 166.608 576.844 165.969 579.635 165.969C582.427 165.969 584.574 166.395 586.292 167.247C588.01 168.1 589.298 169.378 590.157 170.869C591.016 172.361 591.66 174.065 591.875 175.77H595.74C595.525 173.213 594.666 171.083 593.378 169.165C592.089 167.247 590.372 165.543 588.01 164.478C585.648 163.412 582.856 162.773 579.635 162.773C575.985 162.773 572.979 163.625 570.402 165.117C567.825 166.821 565.893 168.952 564.389 171.935C562.886 174.918 562.242 178.327 562.242 182.588V187.914C562.242 191.962 563.101 195.584 564.604 198.567C566.107 201.55 568.255 203.894 570.831 205.598C573.623 207.303 576.629 208.155 580.065 208.155C583.286 208.155 585.862 207.729 588.01 207.09C590.157 206.451 591.875 205.598 592.948 204.746C594.237 203.894 595.096 203.042 595.525 202.189V186.636H579.85V189.832H592.304Z" stroke="white" stroke-width="1.70448" stroke-miterlimit="10"/>
<path d="M617.642 163.412H613.777V207.729H617.642V163.412Z" stroke="white" stroke-width="1.70448" stroke-miterlimit="10"/>
<path d="M639.76 186.423H660.589V183.227H639.76V166.608H663.595V163.412H635.895V207.729H663.595V204.533H639.76V186.423Z" stroke="white" stroke-width="1.70448" stroke-miterlimit="10"/>
<path d="M705.252 190.684C704.178 188.98 702.46 187.701 700.313 186.423C698.166 185.358 695.374 184.292 692.153 183.44C689.147 182.588 686.785 181.736 685.067 180.883C683.349 180.031 682.061 178.966 681.417 177.901C680.773 176.835 680.343 175.557 680.343 174.065C680.343 172.574 680.773 171.296 681.632 170.017C682.49 168.739 683.779 167.887 685.282 167.034C687 166.395 688.932 165.969 691.509 165.969C693.871 165.969 696.018 166.395 697.736 167.248C699.454 168.1 700.742 169.378 701.601 170.87C702.46 172.361 702.89 174.065 702.89 175.983H706.755C706.755 173.426 706.111 171.296 704.822 169.378C703.534 167.461 701.816 165.756 699.454 164.691C697.092 163.412 694.515 162.986 691.294 162.986C688.288 162.986 685.711 163.412 683.564 164.478C681.202 165.33 679.484 166.821 678.196 168.526C676.907 170.23 676.263 172.148 676.263 174.492C676.263 176.196 676.693 177.687 677.337 178.966C677.981 180.244 679.055 181.309 680.343 182.375C681.631 183.44 683.135 184.292 684.852 184.932C686.57 185.784 688.718 186.423 690.865 187.062C693.871 187.914 696.448 188.767 698.166 189.619C699.883 190.471 701.172 191.536 702.031 192.602C702.675 193.667 703.104 195.158 703.104 196.863C703.104 198.567 702.675 200.059 701.601 201.124C700.742 202.402 699.239 203.255 697.521 204.107C695.804 204.746 693.871 205.172 691.509 205.172C690.006 205.172 688.503 204.959 687 204.746C685.497 204.32 684.208 203.894 682.92 203.042C681.632 202.189 680.558 201.124 679.914 199.846C679.055 198.567 678.84 197.076 678.84 195.158H674.975C674.975 197.502 675.404 199.42 676.478 201.124C677.552 202.829 678.84 204.107 680.343 205.172C682.061 206.238 683.779 207.09 685.711 207.516C687.644 207.942 689.576 208.368 691.724 208.368C694.73 208.368 697.307 207.942 699.669 207.09C702.031 206.238 703.749 204.746 705.037 203.042C706.325 201.337 706.969 199.207 706.969 196.863C706.969 194.519 706.325 192.389 705.252 190.684Z" stroke="white" stroke-width="1.70448" stroke-miterlimit="10"/>
<path d="M77 217.946L117.423 149.237L157.716 217.946H77Z" fill="#E00600"/>
<path d="M157.716 69.7219L117.423 138.43L77 69.7219H157.716Z" fill="#1858FD"/>
<path d="M148.166 141.896H86.0217V145.279H148.166V141.896Z" fill="white"/>
<path d="M505.531 125.9V136.574H476.436V125.9H505.531ZM481.377 79.0166V136.574H467.502V79.0166H481.377Z" fill="white"/>
<path d="M458.904 125.9V136.574H428.228V125.9H458.904ZM433.169 79.0166V136.574H419.294V79.0166H433.169ZM454.951 101.866V112.183H428.228V101.866H454.951ZM459.022 79.0166V89.7295H428.228V79.0166H459.022Z" fill="white"/>
<path d="M383.639 123.015L395.617 79.0166H411.153L391.743 136.574H381.702L383.639 123.015ZM372.768 79.0166L384.746 123.015L386.762 136.574H376.603L357.312 79.0166H372.768Z" fill="white"/>
<path d="M335.939 79.0166H349.814V116.611C349.814 121.091 348.879 124.886 347.008 127.996C345.136 131.079 342.514 133.411 339.141 134.993C335.768 136.574 331.801 137.364 327.242 137.364C322.736 137.364 318.769 136.574 315.343 134.993C311.944 133.411 309.282 131.079 307.358 127.996C305.46 124.886 304.512 121.091 304.512 116.611V79.0166H318.427V116.611C318.427 118.982 318.769 120.919 319.454 122.422C320.14 123.897 321.141 124.978 322.459 125.663C323.777 126.348 325.371 126.691 327.242 126.691C329.14 126.691 330.734 126.348 332.025 125.663C333.317 124.978 334.292 123.897 334.951 122.422C335.609 120.919 335.939 118.982 335.939 116.611V79.0166Z" fill="white"/>
<path d="M297.444 106.649V108.981C297.444 113.382 296.825 117.335 295.586 120.841C294.374 124.319 292.648 127.297 290.408 129.775C288.168 132.225 285.519 134.11 282.462 135.427C279.405 136.719 276.032 137.364 272.342 137.364C268.626 137.364 265.226 136.719 262.143 135.427C259.086 134.11 256.424 132.225 254.158 129.775C251.918 127.297 250.178 124.319 248.94 120.841C247.727 117.335 247.121 113.382 247.121 108.981V106.649C247.121 102.248 247.727 98.2947 248.94 94.7896C250.178 91.2845 251.904 88.3065 254.118 85.8556C256.358 83.3783 259.007 81.494 262.064 80.2026C265.147 78.8849 268.547 78.2261 272.263 78.2261C275.953 78.2261 279.326 78.8849 282.383 80.2026C285.466 81.494 288.128 83.3783 290.368 85.8556C292.608 88.3065 294.348 91.2845 295.586 94.7896C296.825 98.2947 297.444 102.248 297.444 106.649ZM283.371 108.981V106.57C283.371 103.724 283.121 101.22 282.62 99.0589C282.146 96.8715 281.434 95.0399 280.485 93.5641C279.537 92.0883 278.364 90.9814 276.967 90.2435C275.597 89.4792 274.029 89.0971 272.263 89.0971C270.418 89.0971 268.811 89.4792 267.44 90.2435C266.07 90.9814 264.923 92.0883 264.001 93.5641C263.079 95.0399 262.38 96.8715 261.906 99.0589C261.458 101.22 261.234 103.724 261.234 106.57V108.981C261.234 111.801 261.458 114.305 261.906 116.492C262.38 118.653 263.079 120.485 264.001 121.987C264.95 123.489 266.109 124.622 267.48 125.387C268.876 126.151 270.497 126.533 272.342 126.533C274.108 126.533 275.676 126.151 277.046 125.387C278.417 124.622 279.563 123.489 280.485 121.987C281.434 120.485 282.146 118.653 282.62 116.492C283.121 114.305 283.371 111.801 283.371 108.981Z" fill="white"/>
<path d="M240.096 79.0166V136.574H226.26L205.902 100.759V136.574H192.026V79.0166H205.902L226.26 114.832V79.0166H240.096Z" fill="white"/>
<path d="M191.547 163.134V166.33H206.793V207.451H210.658V166.33H225.904V163.134H191.547Z" fill="white"/>
<path d="M243.081 186.145H263.91V182.949H243.081V166.33H266.916V163.134H239.431V207.451H267.131V204.255H243.081V186.145Z" fill="white"/>
<path d="M285.169 173.574C286.243 171.018 287.746 169.1 289.679 167.822C291.611 166.33 293.973 165.691 296.765 165.691C300.63 165.691 303.421 166.756 305.569 168.674C307.501 170.591 308.789 173.361 309.219 176.983H313.084C312.869 174 312.01 171.444 310.722 169.1C309.434 166.969 307.501 165.265 305.354 164.2C302.992 163.134 300.415 162.495 297.194 162.495C293.758 162.495 290.752 163.347 288.175 165.052C285.599 166.756 283.666 169.1 282.163 172.083C280.875 175.066 280.016 178.475 280.016 182.523V188.062C280.016 192.111 280.66 195.519 282.163 198.502C283.451 201.485 285.599 203.829 287.961 205.533C290.538 207.238 293.329 208.09 296.765 208.09C299.986 208.09 302.777 207.451 305.139 206.386C307.501 205.32 309.219 203.616 310.722 201.485C312.01 199.355 312.869 196.798 313.084 193.815H309.219C308.789 196.372 308.145 198.289 307.286 199.994C306.213 201.698 304.924 202.977 303.206 203.829C301.489 204.681 299.341 205.107 296.55 205.107C293.758 205.107 291.396 204.468 289.464 202.977C287.531 201.485 286.028 199.568 284.955 197.011C283.881 194.454 283.451 191.684 283.451 188.275V182.736C283.451 179.114 284.096 176.131 285.169 173.574Z" fill="white"/>
<path d="M357.533 182.949H332.195V163.134H328.33V207.451H332.195V186.145H357.533V207.451H361.399V163.134H357.533V182.949Z" fill="white"/>
<path d="M408.422 201.059L382.87 163.134H379.005V207.451H382.87V169.526L408.422 207.451H412.288V163.134H408.422V201.059Z" fill="white"/>
<path d="M454.591 165.052C452.014 163.347 449.008 162.495 445.358 162.495C441.922 162.495 438.916 163.347 436.339 165.052C433.762 166.756 431.615 169.1 430.327 172.083C428.824 175.066 428.18 178.688 428.18 182.949V187.636C428.18 191.684 428.824 195.306 430.327 198.502C431.83 201.485 433.762 203.829 436.339 205.533C438.916 207.238 441.922 208.09 445.358 208.09C448.794 208.09 452.014 207.238 454.591 205.533C457.168 203.829 459.101 201.485 460.604 198.502C462.107 195.519 462.751 191.897 462.751 187.636V182.949C462.751 178.901 462.107 175.279 460.604 172.083C459.315 169.1 457.168 166.756 454.591 165.052ZM459.101 187.636C459.101 191.045 458.671 194.241 457.597 196.798C456.524 199.355 455.021 201.272 452.873 202.764C450.941 204.255 448.364 204.894 445.573 204.894C442.781 204.894 440.419 204.255 438.272 202.764C436.125 201.272 434.621 199.355 433.548 196.798C432.474 194.241 431.83 191.258 431.83 187.636V182.736C431.83 179.327 432.474 176.131 433.548 173.787C434.621 171.231 436.125 169.313 438.272 167.822C440.204 166.33 442.781 165.691 445.573 165.691C448.364 165.691 450.941 166.33 452.873 167.822C454.806 169.313 456.524 171.231 457.597 173.787C458.671 176.344 459.315 179.327 459.315 182.736V187.636H459.101Z" fill="white"/>
<path d="M482.505 163.134H478.64V207.451H504.408V204.255H482.505V163.134Z" fill="white"/>
<path d="M540.696 165.052C538.12 163.347 535.113 162.495 531.463 162.495C528.027 162.495 525.021 163.347 522.444 165.052C519.868 166.756 517.72 169.1 516.432 172.083C514.929 175.066 514.285 178.688 514.285 182.949V187.636C514.285 191.684 514.929 195.306 516.432 198.502C517.935 201.485 519.868 203.829 522.444 205.533C525.021 207.238 528.027 208.09 531.463 208.09C534.899 208.09 538.12 207.238 540.696 205.533C543.273 203.829 545.206 201.485 546.709 198.502C548.212 195.519 548.856 191.897 548.856 187.636V182.949C548.856 178.901 548.212 175.279 546.709 172.083C545.42 169.1 543.273 166.756 540.696 165.052ZM545.206 187.636C545.206 191.045 544.776 194.241 543.703 196.798C542.629 199.355 541.126 201.272 538.979 202.764C537.046 204.255 534.469 204.894 531.678 204.894C528.886 204.894 526.524 204.255 524.377 202.764C522.23 201.272 520.727 199.355 519.653 196.798C518.579 194.241 517.935 191.258 517.935 187.636V182.736C517.935 179.327 518.579 176.131 519.653 173.787C520.727 171.231 522.23 169.313 524.377 167.822C526.31 166.33 528.886 165.691 531.678 165.691C534.469 165.691 537.046 166.33 538.979 167.822C540.911 169.313 542.629 171.231 543.703 173.787C544.776 176.344 545.42 179.327 545.42 182.736V187.636H545.206Z" fill="white"/>
<path d="M593.304 189.554V201.059C592.875 201.485 592.231 202.124 591.157 202.764C590.083 203.403 588.795 203.829 587.292 204.255C585.789 204.681 583.856 204.894 581.494 204.894C578.703 204.894 576.126 204.255 573.979 202.764C571.831 201.272 570.113 199.355 569.04 196.798C567.966 194.241 567.322 191.258 567.322 187.849V182.31C567.322 178.901 567.751 176.131 568.825 173.574C569.899 171.018 571.402 169.1 573.334 167.822C575.267 166.33 577.844 165.691 580.635 165.691C583.427 165.691 585.574 166.117 587.292 166.969C589.01 167.822 590.298 169.1 591.157 170.591C592.016 172.083 592.66 173.787 592.875 175.492H596.74C596.525 172.935 595.666 170.804 594.378 168.887C593.089 166.969 591.372 165.265 589.01 164.2C586.648 163.134 583.856 162.495 580.635 162.495C576.985 162.495 573.979 163.347 571.402 164.839C568.825 166.543 566.893 168.674 565.389 171.657C563.886 174.64 563.242 178.049 563.242 182.31V187.636C563.242 191.684 564.101 195.306 565.604 198.289C567.107 201.272 569.255 203.616 571.831 205.32C574.623 207.025 577.629 207.877 581.065 207.877C584.286 207.877 586.862 207.451 589.01 206.812C591.157 206.172 592.875 205.32 593.948 204.468C595.237 203.616 596.096 202.764 596.525 201.911V186.358H580.85V189.554H593.304Z" fill="white"/>
<path d="M618.642 163.134H614.777V207.451H618.642V163.134Z" fill="white"/>
<path d="M640.76 186.145H661.589V182.949H640.76V166.33H664.595V163.134H636.895V207.451H664.595V204.255H640.76V186.145Z" fill="white"/>
<path d="M706.252 190.406C705.178 188.702 703.46 187.423 701.313 186.145C699.166 185.08 696.374 184.014 693.153 183.162C690.147 182.31 687.785 181.458 686.067 180.605C684.349 179.753 683.061 178.688 682.417 177.622C681.773 176.557 681.343 175.279 681.343 173.787C681.343 172.296 681.773 171.018 682.632 169.739C683.49 168.461 684.779 167.609 686.282 166.756C688 166.117 689.932 165.691 692.509 165.691C694.871 165.691 697.018 166.117 698.736 166.969C700.454 167.822 701.742 169.1 702.601 170.591C703.46 172.083 703.89 173.787 703.89 175.705H707.755C707.755 173.148 707.111 171.018 705.822 169.1C704.534 167.182 702.816 165.478 700.454 164.413C698.092 163.134 695.515 162.708 692.294 162.708C689.288 162.708 686.711 163.134 684.564 164.2C682.202 165.052 680.484 166.543 679.196 168.248C677.907 169.952 677.263 171.87 677.263 174.213C677.263 175.918 677.693 177.409 678.337 178.688C678.981 179.966 680.055 181.031 681.343 182.097C682.631 183.162 684.135 184.014 685.852 184.653C687.57 185.506 689.718 186.145 691.865 186.784C694.871 187.636 697.448 188.489 699.166 189.341C700.883 190.193 702.172 191.258 703.031 192.324C703.675 193.389 704.104 194.88 704.104 196.585C704.104 198.289 703.675 199.781 702.601 200.846C701.742 202.124 700.239 202.977 698.521 203.829C696.804 204.468 694.871 204.894 692.509 204.894C691.006 204.894 689.503 204.681 688 204.468C686.497 204.042 685.208 203.616 683.92 202.764C682.632 201.911 681.558 200.846 680.914 199.568C680.055 198.289 679.84 196.798 679.84 194.88H675.975C675.975 197.224 676.404 199.142 677.478 200.846C678.552 202.551 679.84 203.829 681.343 204.894C683.061 205.959 684.779 206.812 686.711 207.238C688.644 207.664 690.576 208.09 692.724 208.09C695.73 208.09 698.307 207.664 700.669 206.812C703.031 205.959 704.749 204.468 706.037 202.764C707.325 201.059 707.969 198.928 707.969 196.585C707.969 194.241 707.325 192.111 706.252 190.406Z" fill="white"/>
<path d="M191.547 163.134V166.33H206.793V207.451H210.658V166.33H225.904V163.134H191.547Z" stroke="white" stroke-width="1.70448" stroke-miterlimit="10"/>
<path d="M243.081 186.145H263.91V182.949H243.081V166.33H266.916V163.134H239.431V207.451H267.131V204.255H243.081V186.145Z" stroke="white" stroke-width="1.70448" stroke-miterlimit="10"/>
<path d="M285.169 173.574C286.243 171.018 287.746 169.1 289.679 167.822C291.611 166.33 293.973 165.691 296.765 165.691C300.63 165.691 303.421 166.756 305.569 168.674C307.501 170.591 308.789 173.361 309.219 176.983H313.084C312.869 174 312.01 171.444 310.722 169.1C309.434 166.969 307.501 165.265 305.354 164.2C302.992 163.134 300.415 162.495 297.194 162.495C293.758 162.495 290.752 163.347 288.175 165.052C285.599 166.756 283.666 169.1 282.163 172.083C280.875 175.066 280.016 178.475 280.016 182.523V188.062C280.016 192.111 280.66 195.519 282.163 198.502C283.451 201.485 285.599 203.829 287.961 205.533C290.538 207.238 293.329 208.09 296.765 208.09C299.986 208.09 302.777 207.451 305.139 206.386C307.501 205.32 309.219 203.616 310.722 201.485C312.01 199.355 312.869 196.798 313.084 193.815H309.219C308.789 196.372 308.145 198.289 307.286 199.994C306.213 201.698 304.924 202.977 303.206 203.829C301.489 204.681 299.341 205.107 296.55 205.107C293.758 205.107 291.396 204.468 289.464 202.977C287.531 201.485 286.028 199.568 284.955 197.011C283.881 194.454 283.451 191.684 283.451 188.275V182.736C283.451 179.114 284.096 176.131 285.169 173.574Z" stroke="white" stroke-width="1.70448" stroke-miterlimit="10"/>
<path d="M357.533 182.949H332.195V163.134H328.33V207.451H332.195V186.145H357.533V207.451H361.399V163.134H357.533V182.949Z" stroke="white" stroke-width="1.70448" stroke-miterlimit="10"/>
<path d="M408.422 201.059L382.87 163.134H379.005V207.451H382.87V169.526L408.422 207.451H412.288V163.134H408.422V201.059Z" stroke="white" stroke-width="1.70448" stroke-miterlimit="10"/>
<path d="M454.591 165.052C452.014 163.347 449.008 162.495 445.358 162.495C441.922 162.495 438.916 163.347 436.339 165.052C433.762 166.756 431.615 169.1 430.327 172.083C428.824 175.066 428.18 178.688 428.18 182.949V187.636C428.18 191.684 428.824 195.306 430.327 198.502C431.83 201.485 433.762 203.829 436.339 205.533C438.916 207.238 441.922 208.09 445.358 208.09C448.794 208.09 452.014 207.238 454.591 205.533C457.168 203.829 459.101 201.485 460.604 198.502C462.107 195.519 462.751 191.897 462.751 187.636V182.949C462.751 178.901 462.107 175.279 460.604 172.083C459.315 169.1 457.168 166.756 454.591 165.052ZM459.101 187.636C459.101 191.045 458.671 194.241 457.597 196.798C456.524 199.355 455.021 201.272 452.873 202.764C450.941 204.255 448.364 204.894 445.573 204.894C442.781 204.894 440.419 204.255 438.272 202.764C436.125 201.272 434.621 199.355 433.548 196.798C432.474 194.241 431.83 191.258 431.83 187.636V182.736C431.83 179.327 432.474 176.131 433.548 173.787C434.621 171.231 436.125 169.313 438.272 167.822C440.204 166.33 442.781 165.691 445.573 165.691C448.364 165.691 450.941 166.33 452.873 167.822C454.806 169.313 456.524 171.231 457.597 173.787C458.671 176.344 459.315 179.327 459.315 182.736V187.636H459.101Z" stroke="white" stroke-width="1.70448" stroke-miterlimit="10"/>
<path d="M482.505 163.134H478.64V207.451H504.408V204.255H482.505V163.134Z" stroke="white" stroke-width="1.70448" stroke-miterlimit="10"/>
<path d="M540.696 165.052C538.12 163.347 535.113 162.495 531.463 162.495C528.027 162.495 525.021 163.347 522.444 165.052C519.868 166.756 517.72 169.1 516.432 172.083C514.929 175.066 514.285 178.688 514.285 182.949V187.636C514.285 191.684 514.929 195.306 516.432 198.502C517.935 201.485 519.868 203.829 522.444 205.533C525.021 207.238 528.027 208.09 531.463 208.09C534.899 208.09 538.12 207.238 540.696 205.533C543.273 203.829 545.206 201.485 546.709 198.502C548.212 195.519 548.856 191.897 548.856 187.636V182.949C548.856 178.901 548.212 175.279 546.709 172.083C545.42 169.1 543.273 166.756 540.696 165.052ZM545.206 187.636C545.206 191.045 544.776 194.241 543.703 196.798C542.629 199.355 541.126 201.272 538.979 202.764C537.046 204.255 534.469 204.894 531.678 204.894C528.886 204.894 526.524 204.255 524.377 202.764C522.23 201.272 520.727 199.355 519.653 196.798C518.579 194.241 517.935 191.258 517.935 187.636V182.736C517.935 179.327 518.579 176.131 519.653 173.787C520.727 171.231 522.23 169.313 524.377 167.822C526.31 166.33 528.886 165.691 531.678 165.691C534.469 165.691 537.046 166.33 538.979 167.822C540.911 169.313 542.629 171.231 543.703 173.787C544.776 176.344 545.42 179.327 545.42 182.736V187.636H545.206Z" stroke="white" stroke-width="1.70448" stroke-miterlimit="10"/>
<path d="M593.304 189.554V201.059C592.875 201.485 592.231 202.124 591.157 202.764C590.083 203.403 588.795 203.829 587.292 204.255C585.789 204.681 583.856 204.894 581.494 204.894C578.703 204.894 576.126 204.255 573.979 202.764C571.831 201.272 570.113 199.355 569.04 196.798C567.966 194.241 567.322 191.258 567.322 187.849V182.31C567.322 178.901 567.751 176.131 568.825 173.574C569.899 171.018 571.402 169.1 573.334 167.822C575.267 166.33 577.844 165.691 580.635 165.691C583.427 165.691 585.574 166.117 587.292 166.969C589.01 167.822 590.298 169.1 591.157 170.591C592.016 172.083 592.66 173.787 592.875 175.492H596.74C596.525 172.935 595.666 170.804 594.378 168.887C593.089 166.969 591.372 165.265 589.01 164.2C586.648 163.134 583.856 162.495 580.635 162.495C576.985 162.495 573.979 163.347 571.402 164.839C568.825 166.543 566.893 168.674 565.389 171.657C563.886 174.64 563.242 178.049 563.242 182.31V187.636C563.242 191.684 564.101 195.306 565.604 198.289C567.107 201.272 569.255 203.616 571.831 205.32C574.623 207.025 577.629 207.877 581.065 207.877C584.286 207.877 586.862 207.451 589.01 206.812C591.157 206.172 592.875 205.32 593.948 204.468C595.237 203.616 596.096 202.764 596.525 201.911V186.358H580.85V189.554H593.304Z" stroke="white" stroke-width="1.70448" stroke-miterlimit="10"/>
<path d="M618.642 163.134H614.777V207.451H618.642V163.134Z" stroke="white" stroke-width="1.70448" stroke-miterlimit="10"/>
<path d="M640.76 186.145H661.589V182.949H640.76V166.33H664.595V163.134H636.895V207.451H664.595V204.255H640.76V186.145Z" stroke="white" stroke-width="1.70448" stroke-miterlimit="10"/>
<path d="M706.252 190.406C705.178 188.702 703.46 187.423 701.313 186.145C699.166 185.08 696.374 184.014 693.153 183.162C690.147 182.31 687.785 181.458 686.067 180.605C684.349 179.753 683.061 178.688 682.417 177.622C681.773 176.557 681.343 175.279 681.343 173.787C681.343 172.296 681.773 171.018 682.632 169.739C683.49 168.461 684.779 167.609 686.282 166.756C688 166.117 689.932 165.691 692.509 165.691C694.871 165.691 697.018 166.117 698.736 166.969C700.454 167.822 701.742 169.1 702.601 170.591C703.46 172.083 703.89 173.787 703.89 175.705H707.755C707.755 173.148 707.111 171.018 705.822 169.1C704.534 167.182 702.816 165.478 700.454 164.413C698.092 163.134 695.515 162.708 692.294 162.708C689.288 162.708 686.711 163.134 684.564 164.2C682.202 165.052 680.484 166.543 679.196 168.248C677.907 169.952 677.263 171.87 677.263 174.213C677.263 175.918 677.693 177.409 678.337 178.688C678.981 179.966 680.055 181.031 681.343 182.097C682.631 183.162 684.135 184.014 685.852 184.653C687.57 185.506 689.718 186.145 691.865 186.784C694.871 187.636 697.448 188.489 699.166 189.341C700.883 190.193 702.172 191.258 703.031 192.324C703.675 193.389 704.104 194.88 704.104 196.585C704.104 198.289 703.675 199.781 702.601 200.846C701.742 202.124 700.239 202.977 698.521 203.829C696.804 204.468 694.871 204.894 692.509 204.894C691.006 204.894 689.503 204.681 688 204.468C686.497 204.042 685.208 203.616 683.92 202.764C682.632 201.911 681.558 200.846 680.914 199.568C680.055 198.289 679.84 196.798 679.84 194.88H675.975C675.975 197.224 676.404 199.142 677.478 200.846C678.552 202.551 679.84 203.829 681.343 204.894C683.061 205.959 684.779 206.812 686.711 207.238C688.644 207.664 690.576 208.09 692.724 208.09C695.73 208.09 698.307 207.664 700.669 206.812C703.031 205.959 704.749 204.468 706.037 202.764C707.325 201.059 707.969 198.928 707.969 196.585C707.969 194.241 707.325 192.111 706.252 190.406Z" stroke="white" stroke-width="1.70448" stroke-miterlimit="10"/>
</svg>
