<svg width="787" height="290" viewBox="0 0 787 290" fill="none" xmlns="http://www.w3.org/2000/svg">
<path d="M154.827 217.653H79.9603L117.454 153.923L154.827 217.653Z" stroke="white" stroke-width="3.38593"/>
<path d="M79.9602 72.693H154.827L117.454 136.422L79.9602 72.693Z" stroke="white" stroke-width="3.38593"/>
<path d="M148.225 143.233H86.0292V146.619H148.225V143.233Z" fill="white"/>
<path d="M505.884 127.225V137.907H476.765V127.225H505.884ZM481.71 80.3025V137.907H467.823V80.3025H481.71Z" fill="white"/>
<path d="M459.218 127.225V137.907H428.517V127.225H459.218ZM433.462 80.3025V137.907H419.575V80.3025H433.462ZM455.262 103.17V113.496H428.517V103.17H455.262ZM459.337 80.3025V91.0242H428.517V80.3025H459.337Z" fill="white"/>
<path d="M383.892 124.337L395.88 80.3025H411.428L392.002 137.907H381.953L383.892 124.337ZM373.012 80.3025L385 124.337L387.017 137.907H376.85L357.542 80.3025H373.012Z" fill="white"/>
<path d="M336.153 80.3025H350.039V117.927C350.039 122.411 349.103 126.209 347.23 129.322C345.358 132.408 342.733 134.742 339.357 136.325C335.981 137.907 332.012 138.698 327.449 138.698C322.938 138.698 318.969 137.907 315.54 136.325C312.138 134.742 309.474 132.408 307.548 129.322C305.649 126.209 304.7 122.411 304.7 117.927V80.3025H318.626V117.927C318.626 120.301 318.969 122.24 319.655 123.743C320.34 125.22 321.343 126.302 322.661 126.988C323.98 127.673 325.576 128.016 327.449 128.016C329.348 128.016 330.943 127.673 332.236 126.988C333.528 126.302 334.504 125.22 335.164 123.743C335.823 122.24 336.153 120.301 336.153 117.927V80.3025Z" fill="white"/>
<path d="M297.626 107.957V110.292C297.626 114.696 297.006 118.653 295.767 122.161C294.553 125.642 292.826 128.623 290.584 131.102C288.342 133.555 285.691 135.441 282.631 136.76C279.572 138.052 276.196 138.698 272.503 138.698C268.784 138.698 265.382 138.052 262.296 136.76C259.236 135.441 256.572 133.555 254.304 131.102C252.062 128.623 250.321 125.642 249.082 122.161C247.868 118.653 247.262 114.696 247.262 110.292V107.957C247.262 103.553 247.868 99.5963 249.082 96.0884C250.321 92.5804 252.049 89.5999 254.264 87.147C256.506 84.6677 259.157 82.7818 262.217 81.4894C265.303 80.1706 268.705 79.5112 272.424 79.5112C276.117 79.5112 279.493 80.1706 282.552 81.4894C285.638 82.7818 288.302 84.6677 290.544 87.147C292.786 89.5999 294.527 92.5804 295.767 96.0884C297.006 99.5963 297.626 103.553 297.626 107.957ZM283.541 110.292V107.878C283.541 105.03 283.291 102.524 282.79 100.361C282.315 98.1721 281.603 96.3389 280.653 94.8619C279.704 93.3849 278.53 92.2771 277.132 91.5386C275.761 90.7737 274.191 90.3912 272.424 90.3912C270.578 90.3912 268.969 90.7737 267.597 91.5386C266.226 92.2771 265.078 93.3849 264.155 94.8619C263.232 96.3389 262.533 98.1721 262.058 100.361C261.61 102.524 261.386 105.03 261.386 107.878V110.292C261.386 113.114 261.61 115.62 262.058 117.809C262.533 119.972 263.232 121.805 264.155 123.308C265.105 124.812 266.265 125.946 267.637 126.711C269.035 127.475 270.657 127.858 272.503 127.858C274.27 127.858 275.84 127.475 277.211 126.711C278.583 125.946 279.73 124.812 280.653 123.308C281.603 121.805 282.315 119.972 282.79 117.809C283.291 115.62 283.541 113.114 283.541 110.292Z" fill="white"/>
<path d="M240.23 80.3025V137.907H226.383L206.008 102.062V137.907H192.121V80.3025H206.008L226.383 116.147V80.3025H240.23Z" fill="white"/>
<path d="M191.642 164.489V167.688H206.9V208.842H210.768V167.688H226.027V164.489H191.642Z" fill="white"/>
<path d="M243.218 187.519H264.064V184.32H243.218V167.688H267.072V164.489H239.564V208.842H267.287V205.644H243.218V187.519Z" fill="white"/>
<path d="M285.341 174.938C286.415 172.379 287.92 170.46 289.854 169.181C291.788 167.688 294.152 167.048 296.946 167.048C300.814 167.048 303.608 168.114 305.757 170.033C307.691 171.953 308.98 174.725 309.41 178.35H313.279C313.064 175.364 312.204 172.806 310.915 170.46C309.625 168.328 307.691 166.622 305.542 165.555C303.178 164.489 300.599 163.85 297.376 163.85C293.937 163.85 290.928 164.703 288.35 166.408C285.771 168.114 283.837 170.46 282.332 173.445C281.043 176.431 280.183 179.842 280.183 183.894V189.438C280.183 193.489 280.828 196.901 282.332 199.886C283.622 202.872 285.771 205.217 288.135 206.923C290.714 208.629 293.507 209.482 296.946 209.482C300.169 209.482 302.963 208.842 305.327 207.776C307.691 206.71 309.41 205.004 310.915 202.872C312.204 200.739 313.064 198.181 313.279 195.195H309.41C308.98 197.754 308.336 199.673 307.476 201.379C306.402 203.085 305.112 204.364 303.393 205.217C301.674 206.07 299.525 206.497 296.731 206.497C293.937 206.497 291.573 205.857 289.639 204.364C287.705 202.872 286.2 200.953 285.126 198.394C284.051 195.835 283.622 193.063 283.622 189.651V184.107C283.622 180.482 284.266 177.497 285.341 174.938Z" fill="white"/>
<path d="M357.765 184.32H332.406V164.489H328.538V208.842H332.406V187.519H357.765V208.842H361.633V164.489H357.765V184.32Z" fill="white"/>
<path d="M408.695 202.445L383.122 164.489H379.253V208.842H383.122V170.886L408.695 208.842H412.564V164.489H408.695V202.445Z" fill="white"/>
<path d="M454.902 166.408C452.323 164.703 449.315 163.85 445.661 163.85C442.223 163.85 439.214 164.703 436.635 166.408C434.056 168.114 431.907 170.46 430.618 173.445C429.114 176.431 428.469 180.056 428.469 184.32V189.011C428.469 193.063 429.114 196.688 430.618 199.886C432.122 202.872 434.056 205.217 436.635 206.923C439.214 208.629 442.223 209.482 445.661 209.482C449.1 209.482 452.323 208.629 454.902 206.923C457.481 205.217 459.415 202.872 460.92 199.886C462.424 196.901 463.069 193.276 463.069 189.011V184.32C463.069 180.269 462.424 176.644 460.92 173.445C459.63 170.46 457.481 168.114 454.902 166.408ZM459.415 189.011C459.415 192.423 458.986 195.622 457.911 198.181C456.836 200.739 455.332 202.659 453.183 204.151C451.249 205.644 448.67 206.284 445.876 206.284C443.082 206.284 440.719 205.644 438.569 204.151C436.42 202.659 434.916 200.739 433.842 198.181C432.767 195.622 432.122 192.636 432.122 189.011V184.107C432.122 180.695 432.767 177.497 433.842 175.151C434.916 172.592 436.42 170.673 438.569 169.181C440.504 167.688 443.082 167.048 445.876 167.048C448.67 167.048 451.249 167.688 453.183 169.181C455.117 170.673 456.836 172.592 457.911 175.151C458.986 177.71 459.63 180.695 459.63 184.107V189.011H459.415Z" fill="white"/>
<path d="M482.839 164.489H478.971V208.842H504.76V205.644H482.839V164.489Z" fill="white"/>
<path d="M541.078 166.408C538.499 164.703 535.491 163.85 531.837 163.85C528.399 163.85 525.39 164.703 522.811 166.408C520.232 168.114 518.083 170.46 516.794 173.445C515.29 176.431 514.645 180.056 514.645 184.32V189.011C514.645 193.063 515.29 196.688 516.794 199.886C518.298 202.872 520.232 205.217 522.811 206.923C525.39 208.629 528.399 209.482 531.837 209.482C535.276 209.482 538.499 208.629 541.078 206.923C543.657 205.217 545.591 202.872 547.096 199.886C548.6 196.901 549.245 193.276 549.245 189.011V184.32C549.245 180.269 548.6 176.644 547.096 173.445C545.806 170.46 543.657 168.114 541.078 166.408ZM545.591 189.011C545.591 192.423 545.162 195.622 544.087 198.181C543.013 200.739 541.508 202.659 539.359 204.151C537.425 205.644 534.846 206.284 532.052 206.284C529.259 206.284 526.895 205.644 524.746 204.151C522.596 202.659 521.092 200.739 520.018 198.181C518.943 195.622 518.298 192.636 518.298 189.011V184.107C518.298 180.695 518.943 177.497 520.018 175.151C521.092 172.592 522.596 170.673 524.746 169.181C526.68 167.688 529.259 167.048 532.052 167.048C534.846 167.048 537.425 167.688 539.359 169.181C541.293 170.673 543.013 172.592 544.087 175.151C545.162 177.71 545.806 180.695 545.806 184.107V189.011H545.591Z" fill="white"/>
<path d="M593.73 190.931V202.445C593.3 202.872 592.655 203.511 591.58 204.151C590.506 204.791 589.216 205.217 587.712 205.644C586.208 206.07 584.274 206.284 581.91 206.284C579.116 206.284 576.537 205.644 574.388 204.151C572.239 202.659 570.52 200.739 569.445 198.181C568.371 195.622 567.726 192.636 567.726 189.225V183.681C567.726 180.269 568.156 177.497 569.23 174.938C570.305 172.379 571.809 170.46 573.743 169.181C575.677 167.688 578.256 167.048 581.05 167.048C583.844 167.048 585.993 167.475 587.712 168.328C589.431 169.181 590.721 170.46 591.58 171.953C592.44 173.445 593.085 175.151 593.3 176.857H597.168C596.953 174.298 596.093 172.166 594.804 170.247C593.515 168.328 591.795 166.622 589.431 165.555C587.067 164.489 584.274 163.85 581.05 163.85C577.397 163.85 574.388 164.703 571.809 166.195C569.23 167.901 567.296 170.033 565.792 173.019C564.287 176.004 563.643 179.416 563.643 183.681V189.011C563.643 193.063 564.502 196.688 566.007 199.673C567.511 202.659 569.66 205.004 572.239 206.71C575.033 208.416 578.041 209.269 581.48 209.269C584.703 209.269 587.282 208.842 589.431 208.203C591.58 207.563 593.3 206.71 594.374 205.857C595.664 205.004 596.523 204.151 596.953 203.298V187.732H581.265V190.931H593.73Z" fill="white"/>
<path d="M619.088 164.489H615.22V208.842H619.088V164.489Z" fill="white"/>
<path d="M641.224 187.519H662.07V184.32H641.224V167.688H665.079V164.489H637.356V208.842H665.079V205.644H641.224V187.519Z" fill="white"/>
<path d="M706.77 191.784C705.695 190.078 703.976 188.798 701.827 187.519C699.678 186.453 696.884 185.386 693.661 184.534C690.652 183.681 688.288 182.828 686.569 181.975C684.85 181.122 683.56 180.056 682.915 178.989C682.271 177.923 681.841 176.644 681.841 175.151C681.841 173.658 682.271 172.379 683.13 171.1C683.99 169.82 685.279 168.967 686.784 168.114C688.503 167.475 690.437 167.048 693.016 167.048C695.38 167.048 697.529 167.475 699.248 168.328C700.968 169.181 702.257 170.46 703.117 171.953C703.976 173.445 704.406 175.151 704.406 177.07H708.274C708.274 174.511 707.63 172.379 706.34 170.46C705.051 168.541 703.332 166.835 700.968 165.769C698.604 164.489 696.025 164.063 692.801 164.063C689.792 164.063 687.214 164.489 685.065 165.556C682.701 166.408 680.981 167.901 679.692 169.607C678.402 171.313 677.758 173.232 677.758 175.578C677.758 177.284 678.188 178.776 678.832 180.056C679.477 181.335 680.551 182.401 681.841 183.467C683.13 184.534 684.635 185.386 686.354 186.026C688.073 186.879 690.222 187.519 692.371 188.159C695.38 189.011 697.959 189.864 699.678 190.717C701.397 191.57 702.687 192.636 703.546 193.703C704.191 194.769 704.621 196.262 704.621 197.967C704.621 199.673 704.191 201.166 703.117 202.232C702.257 203.512 700.753 204.364 699.033 205.217C697.314 205.857 695.38 206.284 693.016 206.284C691.512 206.284 690.007 206.07 688.503 205.857C686.999 205.431 685.709 205.004 684.42 204.151C683.13 203.298 682.056 202.232 681.411 200.953C680.551 199.673 680.337 198.181 680.337 196.262H676.468C676.468 198.607 676.898 200.526 677.973 202.232C679.047 203.938 680.337 205.217 681.841 206.284C683.56 207.35 685.279 208.203 687.214 208.629C689.148 209.056 691.082 209.482 693.231 209.482C696.24 209.482 698.819 209.056 701.182 208.203C703.546 207.35 705.266 205.857 706.555 204.151C707.845 202.445 708.489 200.313 708.489 197.967C708.489 195.622 707.845 193.489 706.77 191.784Z" fill="white"/>
<path d="M191.642 164.489V167.688H206.9V208.842H210.768V167.688H226.027V164.489H191.642Z" stroke="white" stroke-width="1.70589" stroke-miterlimit="10"/>
<path d="M243.218 187.519H264.064V184.32H243.218V167.688H267.072V164.489H239.564V208.842H267.287V205.644H243.218V187.519Z" stroke="white" stroke-width="1.70589" stroke-miterlimit="10"/>
<path d="M285.341 174.938C286.415 172.379 287.92 170.46 289.854 169.181C291.788 167.688 294.152 167.048 296.946 167.048C300.814 167.048 303.608 168.114 305.757 170.033C307.691 171.953 308.98 174.725 309.41 178.35H313.279C313.064 175.364 312.204 172.806 310.915 170.46C309.625 168.328 307.691 166.622 305.542 165.555C303.178 164.489 300.599 163.85 297.376 163.85C293.937 163.85 290.928 164.703 288.35 166.408C285.771 168.114 283.837 170.46 282.332 173.445C281.043 176.431 280.183 179.842 280.183 183.894V189.438C280.183 193.489 280.828 196.901 282.332 199.886C283.622 202.872 285.771 205.217 288.135 206.923C290.714 208.629 293.507 209.482 296.946 209.482C300.169 209.482 302.963 208.842 305.327 207.776C307.691 206.71 309.41 205.004 310.915 202.872C312.204 200.739 313.064 198.181 313.279 195.195H309.41C308.98 197.754 308.336 199.673 307.476 201.379C306.402 203.085 305.112 204.364 303.393 205.217C301.674 206.07 299.525 206.497 296.731 206.497C293.937 206.497 291.573 205.857 289.639 204.364C287.705 202.872 286.2 200.953 285.126 198.394C284.051 195.835 283.622 193.063 283.622 189.651V184.107C283.622 180.482 284.266 177.497 285.341 174.938Z" stroke="white" stroke-width="1.70589" stroke-miterlimit="10"/>
<path d="M357.765 184.32H332.406V164.489H328.538V208.842H332.406V187.519H357.765V208.842H361.633V164.489H357.765V184.32Z" stroke="white" stroke-width="1.70589" stroke-miterlimit="10"/>
<path d="M408.695 202.445L383.122 164.489H379.253V208.842H383.122V170.886L408.695 208.842H412.564V164.489H408.695V202.445Z" stroke="white" stroke-width="1.70589" stroke-miterlimit="10"/>
<path d="M454.902 166.408C452.323 164.703 449.315 163.85 445.661 163.85C442.223 163.85 439.214 164.703 436.635 166.408C434.056 168.114 431.907 170.46 430.618 173.445C429.114 176.431 428.469 180.056 428.469 184.32V189.011C428.469 193.063 429.114 196.688 430.618 199.886C432.122 202.872 434.056 205.217 436.635 206.923C439.214 208.629 442.223 209.482 445.661 209.482C449.1 209.482 452.323 208.629 454.902 206.923C457.481 205.217 459.415 202.872 460.92 199.886C462.424 196.901 463.069 193.276 463.069 189.011V184.32C463.069 180.269 462.424 176.644 460.92 173.445C459.63 170.46 457.481 168.114 454.902 166.408ZM459.415 189.011C459.415 192.423 458.986 195.622 457.911 198.181C456.836 200.739 455.332 202.659 453.183 204.151C451.249 205.644 448.67 206.284 445.876 206.284C443.082 206.284 440.719 205.644 438.569 204.151C436.42 202.659 434.916 200.739 433.842 198.181C432.767 195.622 432.122 192.636 432.122 189.011V184.107C432.122 180.695 432.767 177.497 433.842 175.151C434.916 172.592 436.42 170.673 438.569 169.181C440.504 167.688 443.082 167.048 445.876 167.048C448.67 167.048 451.249 167.688 453.183 169.181C455.117 170.673 456.836 172.592 457.911 175.151C458.986 177.71 459.63 180.695 459.63 184.107V189.011H459.415Z" stroke="white" stroke-width="1.70589" stroke-miterlimit="10"/>
<path d="M482.839 164.489H478.971V208.842H504.76V205.644H482.839V164.489Z" stroke="white" stroke-width="1.70589" stroke-miterlimit="10"/>
<path d="M541.078 166.408C538.499 164.703 535.491 163.85 531.837 163.85C528.399 163.85 525.39 164.703 522.811 166.408C520.232 168.114 518.083 170.46 516.794 173.445C515.29 176.431 514.645 180.056 514.645 184.32V189.011C514.645 193.063 515.29 196.688 516.794 199.886C518.298 202.872 520.232 205.217 522.811 206.923C525.39 208.629 528.399 209.482 531.837 209.482C535.276 209.482 538.499 208.629 541.078 206.923C543.657 205.217 545.591 202.872 547.096 199.886C548.6 196.901 549.245 193.276 549.245 189.011V184.32C549.245 180.269 548.6 176.644 547.096 173.445C545.806 170.46 543.657 168.114 541.078 166.408ZM545.591 189.011C545.591 192.423 545.162 195.622 544.087 198.181C543.013 200.739 541.508 202.659 539.359 204.151C537.425 205.644 534.846 206.284 532.052 206.284C529.259 206.284 526.895 205.644 524.746 204.151C522.596 202.659 521.092 200.739 520.018 198.181C518.943 195.622 518.298 192.636 518.298 189.011V184.107C518.298 180.695 518.943 177.497 520.018 175.151C521.092 172.592 522.596 170.673 524.746 169.181C526.68 167.688 529.259 167.048 532.052 167.048C534.846 167.048 537.425 167.688 539.359 169.181C541.293 170.673 543.013 172.592 544.087 175.151C545.162 177.71 545.806 180.695 545.806 184.107V189.011H545.591Z" stroke="white" stroke-width="1.70589" stroke-miterlimit="10"/>
<path d="M593.73 190.931V202.445C593.3 202.872 592.655 203.511 591.58 204.151C590.506 204.791 589.216 205.217 587.712 205.644C586.208 206.07 584.274 206.284 581.91 206.284C579.116 206.284 576.537 205.644 574.388 204.151C572.239 202.659 570.52 200.739 569.445 198.181C568.371 195.622 567.726 192.636 567.726 189.225V183.681C567.726 180.269 568.156 177.497 569.23 174.938C570.305 172.379 571.809 170.46 573.743 169.181C575.677 167.688 578.256 167.048 581.05 167.048C583.844 167.048 585.993 167.475 587.712 168.328C589.431 169.181 590.721 170.46 591.58 171.953C592.44 173.445 593.085 175.151 593.3 176.857H597.168C596.953 174.298 596.093 172.166 594.804 170.247C593.515 168.328 591.795 166.622 589.431 165.555C587.067 164.489 584.274 163.85 581.05 163.85C577.397 163.85 574.388 164.703 571.809 166.195C569.23 167.901 567.296 170.033 565.792 173.019C564.287 176.004 563.643 179.416 563.643 183.681V189.011C563.643 193.063 564.502 196.688 566.007 199.673C567.511 202.659 569.66 205.004 572.239 206.71C575.033 208.416 578.041 209.269 581.48 209.269C584.703 209.269 587.282 208.842 589.431 208.203C591.58 207.563 593.3 206.71 594.374 205.857C595.664 205.004 596.523 204.151 596.953 203.298V187.732H581.265V190.931H593.73Z" stroke="white" stroke-width="1.70589" stroke-miterlimit="10"/>
<path d="M619.088 164.489H615.22V208.842H619.088V164.489Z" stroke="white" stroke-width="1.70589" stroke-miterlimit="10"/>
<path d="M641.224 187.519H662.07V184.32H641.224V167.688H665.079V164.489H637.356V208.842H665.079V205.644H641.224V187.519Z" stroke="white" stroke-width="1.70589" stroke-miterlimit="10"/>
<path d="M706.77 191.784C705.695 190.078 703.976 188.798 701.827 187.519C699.678 186.453 696.884 185.386 693.661 184.534C690.652 183.681 688.288 182.828 686.569 181.975C684.85 181.122 683.56 180.056 682.915 178.989C682.271 177.923 681.841 176.644 681.841 175.151C681.841 173.658 682.271 172.379 683.13 171.1C683.99 169.82 685.279 168.967 686.784 168.114C688.503 167.475 690.437 167.048 693.016 167.048C695.38 167.048 697.529 167.475 699.248 168.328C700.968 169.181 702.257 170.46 703.117 171.953C703.976 173.445 704.406 175.151 704.406 177.07H708.274C708.274 174.511 707.63 172.379 706.34 170.46C705.051 168.541 703.332 166.835 700.968 165.769C698.604 164.489 696.025 164.063 692.801 164.063C689.792 164.063 687.214 164.489 685.065 165.556C682.701 166.408 680.981 167.901 679.692 169.607C678.402 171.313 677.758 173.232 677.758 175.578C677.758 177.284 678.188 178.776 678.832 180.056C679.477 181.335 680.551 182.401 681.841 183.467C683.13 184.534 684.635 185.386 686.354 186.026C688.073 186.879 690.222 187.519 692.371 188.159C695.38 189.011 697.959 189.864 699.678 190.717C701.397 191.57 702.687 192.636 703.546 193.703C704.191 194.769 704.621 196.262 704.621 197.967C704.621 199.673 704.191 201.166 703.117 202.232C702.257 203.512 700.753 204.364 699.033 205.217C697.314 205.857 695.38 206.284 693.016 206.284C691.512 206.284 690.007 206.07 688.503 205.857C686.999 205.431 685.709 205.004 684.42 204.151C683.13 203.298 682.056 202.232 681.411 200.953C680.551 199.673 680.337 198.181 680.337 196.262H676.468C676.468 198.607 676.898 200.526 677.973 202.232C679.047 203.938 680.337 205.217 681.841 206.284C683.56 207.35 685.279 208.203 687.214 208.629C689.148 209.056 691.082 209.482 693.231 209.482C696.24 209.482 698.819 209.056 701.182 208.203C703.546 207.35 705.266 205.857 706.555 204.151C707.845 202.445 708.489 200.313 708.489 197.967C708.489 195.622 707.845 193.489 706.77 191.784Z" stroke="white" stroke-width="1.70589" stroke-miterlimit="10"/>
</svg>
