<svg width="235" height="66" viewBox="0 0 235 66" fill="none" xmlns="http://www.w3.org/2000/svg">
<path d="M34.0417 64.7187H1.74856L17.9213 37.2295L34.0417 64.7187Z" stroke="white" stroke-width="2"/>
<path d="M1.74856 1H34.0417L17.9213 28.4892L1.74856 1Z" stroke="white" stroke-width="2"/>
<path d="M31.5534 32H4V33.5H31.5534V32Z" fill="white"/>
<path d="M233.828 30.8026V37.0271H216.861V30.8026H233.828ZM219.743 3.46106V37.0271H211.651V3.46106H219.743Z" fill="white"/>
<path d="M206.637 30.8026V37.0271H188.748V30.8026H206.637ZM191.629 3.46106V37.0271H183.538V3.46106H191.629ZM204.332 16.786V22.803H188.748V16.786H204.332ZM206.706 3.46106V9.70858H188.748V3.46106H206.706Z" fill="white"/>
<path d="M162.745 29.1197L169.73 3.46106H178.79L167.471 37.0271H161.615L162.745 29.1197ZM156.405 3.46106L163.39 29.1197L164.566 37.0271H158.641L147.391 3.46106H156.405Z" fill="white"/>
<path d="M134.927 3.46106H143.019V25.385C143.019 27.9978 142.473 30.2109 141.382 32.0245C140.291 33.8226 138.761 35.1828 136.794 36.1049C134.827 37.0271 132.514 37.4882 129.855 37.4882C127.227 37.4882 124.914 37.0271 122.916 36.1049C120.933 35.1828 119.381 33.8226 118.259 32.0245C117.152 30.2109 116.599 27.9978 116.599 25.385V3.46106H124.714V25.385C124.714 26.7682 124.914 27.8979 125.313 28.7739C125.713 29.6346 126.297 30.2647 127.065 30.6643C127.834 31.0639 128.764 31.2637 129.855 31.2637C130.962 31.2637 131.891 31.0639 132.644 30.6643C133.398 30.2647 133.966 29.6346 134.35 28.7739C134.735 27.8979 134.927 26.7682 134.927 25.385V3.46106Z" fill="white"/>
<path d="M112.477 19.5755V20.9357C112.477 23.5023 112.115 25.8077 111.393 27.8518C110.686 29.8805 109.679 31.6172 108.373 33.0619C107.067 34.4912 105.522 35.5901 103.739 36.3585C101.956 37.1116 99.9893 37.4882 97.8376 37.4882C95.6705 37.4882 93.6879 37.1116 91.8898 36.3585C90.1069 35.5901 88.5547 34.4912 87.2329 33.0619C85.9266 31.6172 84.9122 29.8805 84.1899 27.8518C83.4829 25.8077 83.1294 23.5023 83.1294 20.9357V19.5755C83.1294 17.0089 83.4829 14.7035 84.1899 12.6595C84.9122 10.6154 85.9189 8.87867 87.2099 7.44934C88.5163 6.00465 90.0608 4.90576 91.8437 4.15268C93.6418 3.38423 95.6244 3 97.7915 3C99.9431 3 101.91 3.38423 103.693 4.15268C105.491 4.90576 107.044 6.00465 108.35 7.44934C109.656 8.87867 110.671 10.6154 111.393 12.6595C112.115 14.7035 112.477 17.0089 112.477 19.5755ZM104.27 20.9357V19.5294C104.27 17.8696 104.124 16.4095 103.832 15.1492C103.555 13.8736 103.14 12.8055 102.587 11.9448C102.033 11.0841 101.349 10.4386 100.535 10.0083C99.7357 9.56259 98.8212 9.33974 97.7915 9.33974C96.7156 9.33974 95.7781 9.56259 94.9789 10.0083C94.1797 10.4386 93.5112 11.0841 92.9733 11.9448C92.4354 12.8055 92.0281 13.8736 91.7514 15.1492C91.4902 16.4095 91.3595 17.8696 91.3595 19.5294V20.9357C91.3595 22.5802 91.4902 24.0402 91.7514 25.3159C92.0281 26.5761 92.4354 27.6443 92.9733 28.5203C93.5266 29.3964 94.2028 30.0572 95.002 30.5029C95.8166 30.9486 96.7618 31.1715 97.8376 31.1715C98.8673 31.1715 99.7818 30.9486 100.581 30.5029C101.38 30.0572 102.049 29.3964 102.587 28.5203C103.14 27.6443 103.555 26.5761 103.832 25.3159C104.124 24.0402 104.27 22.5802 104.27 20.9357Z" fill="white"/>
<path d="M79.0332 3.46106V37.0271H70.9644L59.0918 16.1405V37.0271H51V3.46106H59.0918L70.9644 24.3476V3.46106H79.0332Z" fill="white"/>
<path d="M51 47.6107V48.7047H56.4065V62.7812H57.7771V48.7047H63.1836V47.6107H51Z" fill="white"/>
<path d="M69.2751 55.4877H76.6614V54.3937H69.2751V48.7047H77.7275V47.6107H67.9805V62.7812H77.8036V61.6872H69.2751V55.4877Z" fill="white"/>
<path d="M84.2005 51.1845C84.5813 50.3093 85.1143 49.6529 85.7996 49.2153C86.485 48.7047 87.3226 48.4859 88.3125 48.4859C89.6832 48.4859 90.6731 48.8506 91.4346 49.507C92.1199 50.1634 92.5768 51.1116 92.7291 52.3515H94.0997C94.0236 51.3304 93.719 50.4552 93.2621 49.6529C92.8052 48.9235 92.1199 48.3401 91.3584 47.9754C90.5208 47.6107 89.607 47.3919 88.4648 47.3919C87.2464 47.3919 86.1804 47.6836 85.2666 48.2671C84.3528 48.8506 83.6675 49.6529 83.1345 50.674C82.6776 51.6951 82.373 52.862 82.373 54.2478V56.1441C82.373 57.5299 82.6014 58.6968 83.1345 59.7179C83.5914 60.739 84.3528 61.5413 85.1904 62.1248C86.1042 62.7083 87.0941 63 88.3125 63C89.4547 63 90.4446 62.7812 91.2823 62.4165C92.1199 62.0518 92.7291 61.4684 93.2621 60.739C93.719 60.0097 94.0236 59.1344 94.0997 58.1134H92.7291C92.5768 58.9886 92.3483 59.645 92.0437 60.2285C91.663 60.8119 91.2061 61.2496 90.5969 61.5413C89.9877 61.833 89.2263 61.9789 88.2364 61.9789C87.2464 61.9789 86.4088 61.7601 85.7235 61.2496C85.0382 60.739 84.5051 60.0826 84.1244 59.2074C83.7436 58.3322 83.5913 57.384 83.5913 56.217V54.3207C83.5913 53.0808 83.8198 52.0597 84.2005 51.1845Z" fill="white"/>
<path d="M109.862 54.3937H100.877V47.6107H99.5064V62.7812H100.877V55.4877H109.862V62.7812H111.233V47.6107H109.862V54.3937Z" fill="white"/>
<path d="M127.909 60.5931L118.847 47.6107H117.477V62.7812H118.847V49.7988L127.909 62.7812H129.28V47.6107H127.909V60.5931Z" fill="white"/>
<path d="M144.281 48.2671C143.368 47.6836 142.302 47.3919 141.007 47.3919C139.789 47.3919 138.723 47.6836 137.809 48.2671C136.895 48.8506 136.134 49.6529 135.677 50.674C135.144 51.6951 134.915 52.935 134.915 54.3937V55.9982C134.915 57.384 135.144 58.6239 135.677 59.7179C136.21 60.739 136.895 61.5413 137.809 62.1248C138.723 62.7083 139.789 63 141.007 63C142.225 63 143.368 62.7083 144.281 62.1248C145.195 61.5413 145.88 60.739 146.413 59.7179C146.947 58.6968 147.175 57.4569 147.175 55.9982V54.3937C147.175 53.0079 146.947 51.768 146.413 50.674C145.957 49.6529 145.195 48.8506 144.281 48.2671ZM145.88 55.9982C145.88 57.1652 145.728 58.2592 145.347 59.1344C144.967 60.0097 144.434 60.6661 143.672 61.1766C142.987 61.6872 142.073 61.906 141.083 61.906C140.093 61.906 139.256 61.6872 138.494 61.1766C137.733 60.6661 137.2 60.0097 136.819 59.1344C136.438 58.2592 136.21 57.2381 136.21 55.9982V54.3207C136.21 53.1538 136.438 52.0597 136.819 51.2575C137.2 50.3822 137.733 49.7258 138.494 49.2153C139.179 48.7047 140.093 48.4859 141.083 48.4859C142.073 48.4859 142.987 48.7047 143.672 49.2153C144.358 49.7258 144.967 50.3822 145.347 51.2575C145.728 52.1327 145.957 53.1538 145.957 54.3207V55.9982H145.88Z" fill="white"/>
<path d="M154.18 47.6107H152.81V62.7812H161.947V61.6872H154.18V47.6107Z" fill="white"/>
<path d="M174.816 48.2671C173.902 47.6836 172.836 47.3919 171.542 47.3919C170.323 47.3919 169.257 47.6836 168.344 48.2671C167.43 48.8506 166.668 49.6529 166.211 50.674C165.678 51.6951 165.45 52.935 165.45 54.3937V55.9982C165.45 57.384 165.678 58.6239 166.211 59.7179C166.745 60.739 167.43 61.5413 168.344 62.1248C169.257 62.7083 170.323 63 171.542 63C172.76 63 173.902 62.7083 174.816 62.1248C175.73 61.5413 176.415 60.739 176.948 59.7179C177.481 58.6968 177.71 57.4569 177.71 55.9982V54.3937C177.71 53.0079 177.481 51.768 176.948 50.674C176.491 49.6529 175.73 48.8506 174.816 48.2671ZM176.415 55.9982C176.415 57.1652 176.263 58.2592 175.882 59.1344C175.502 60.0097 174.968 60.6661 174.207 61.1766C173.522 61.6872 172.608 61.906 171.618 61.906C170.628 61.906 169.79 61.6872 169.029 61.1766C168.267 60.6661 167.734 60.0097 167.354 59.1344C166.973 58.2592 166.745 57.2381 166.745 55.9982V54.3207C166.745 53.1538 166.973 52.0597 167.354 51.2575C167.734 50.3822 168.267 49.7258 169.029 49.2153C169.714 48.7047 170.628 48.4859 171.618 48.4859C172.608 48.4859 173.522 48.7047 174.207 49.2153C174.892 49.7258 175.502 50.3822 175.882 51.2575C176.263 52.1327 176.491 53.1538 176.491 54.3207V55.9982H176.415Z" fill="white"/>
<path d="M193.472 56.6546V60.5931C193.32 60.739 193.091 60.9578 192.711 61.1766C192.33 61.3954 191.873 61.5413 191.34 61.6872C190.807 61.833 190.122 61.906 189.284 61.906C188.294 61.906 187.38 61.6872 186.619 61.1766C185.857 60.6661 185.248 60.0097 184.867 59.1344C184.487 58.2592 184.258 57.2381 184.258 56.0712V54.1749C184.258 53.0079 184.411 52.0597 184.791 51.1845C185.172 50.3093 185.705 49.6529 186.39 49.2153C187.076 48.7047 187.989 48.4859 188.979 48.4859C189.969 48.4859 190.731 48.6318 191.34 48.9235C191.949 49.2153 192.406 49.6529 192.711 50.1634C193.015 50.674 193.244 51.2575 193.32 51.8409H194.69C194.614 50.9657 194.31 50.2364 193.853 49.58C193.396 48.9235 192.787 48.3401 191.949 47.9754C191.112 47.6107 190.122 47.3919 188.979 47.3919C187.685 47.3919 186.619 47.6836 185.705 48.1942C184.791 48.7777 184.106 49.507 183.573 50.5281C183.04 51.5492 182.811 52.7162 182.811 54.1749V55.9982C182.811 57.384 183.116 58.6239 183.649 59.645C184.182 60.6661 184.944 61.4684 185.857 62.0518C186.847 62.6353 187.913 62.9271 189.132 62.9271C190.274 62.9271 191.188 62.7812 191.949 62.5624C192.711 62.3436 193.32 62.0518 193.701 61.7601C194.157 61.4684 194.462 61.1766 194.614 60.8849V55.5606H189.056V56.6546H193.472Z" fill="white"/>
<path d="M202.457 47.6107H201.087V62.7812H202.457V47.6107Z" fill="white"/>
<path d="M210.301 55.4877H217.687V54.3937H210.301V48.7047H218.753V47.6107H208.93V62.7812H218.753V61.6872H210.301V55.4877Z" fill="white"/>
<path d="M233.526 56.9464C233.145 56.3629 232.536 55.9253 231.774 55.4877C231.013 55.123 230.023 54.7584 228.881 54.4666C227.815 54.1749 226.977 53.8831 226.368 53.5914C225.759 53.2997 225.302 52.935 225.073 52.5703C224.845 52.2056 224.693 51.768 224.693 51.2575C224.693 50.7469 224.845 50.3093 225.15 49.8717C225.454 49.4341 225.911 49.1424 226.444 48.8506C227.053 48.6318 227.739 48.4859 228.652 48.4859C229.49 48.4859 230.251 48.6318 230.861 48.9236C231.47 49.2153 231.927 49.6529 232.231 50.1634C232.536 50.674 232.688 51.2575 232.688 51.9139H234.059C234.059 51.0387 233.83 50.3093 233.374 49.6529C232.917 48.9965 232.307 48.413 231.47 48.0483C230.632 47.6107 229.718 47.4649 228.576 47.4649C227.51 47.4649 226.596 47.6107 225.835 47.9754C224.997 48.2671 224.388 48.7777 223.931 49.3612C223.474 49.9446 223.246 50.6011 223.246 51.4033C223.246 51.9868 223.398 52.4974 223.627 52.935C223.855 53.3726 224.236 53.7373 224.693 54.1019C225.15 54.4666 225.683 54.7584 226.292 54.9772C226.901 55.2689 227.662 55.4877 228.424 55.7065C229.49 55.9982 230.404 56.29 231.013 56.5817C231.622 56.8735 232.079 57.2381 232.384 57.6028C232.612 57.9675 232.764 58.478 232.764 59.0615C232.764 59.645 232.612 60.1555 232.231 60.5202C231.927 60.9578 231.394 61.2496 230.785 61.5413C230.175 61.7601 229.49 61.906 228.652 61.906C228.119 61.906 227.586 61.833 227.053 61.7601C226.52 61.6142 226.063 61.4684 225.606 61.1766C225.15 60.8849 224.769 60.5202 224.54 60.0826C224.236 59.645 224.16 59.1345 224.16 58.478H222.789C222.789 59.2803 222.941 59.9367 223.322 60.5202C223.703 61.1037 224.16 61.5413 224.693 61.906C225.302 62.2707 225.911 62.5624 226.596 62.7083C227.282 62.8541 227.967 63 228.729 63C229.795 63 230.708 62.8541 231.546 62.5624C232.384 62.2707 232.993 61.7601 233.45 61.1766C233.907 60.5932 234.135 59.8638 234.135 59.0615C234.135 58.2592 233.907 57.5299 233.526 56.9464Z" fill="white"/>
<path d="M51 47.6107V48.7047H56.4065V62.7812H57.7771V48.7047H63.1836V47.6107H51Z" stroke="white" stroke-width="0.74845" stroke-miterlimit="10"/>
<path d="M69.2751 55.4877H76.6614V54.3937H69.2751V48.7047H77.7275V47.6107H67.9805V62.7812H77.8036V61.6872H69.2751V55.4877Z" stroke="white" stroke-width="0.74845" stroke-miterlimit="10"/>
<path d="M84.2005 51.1845C84.5813 50.3093 85.1143 49.6529 85.7996 49.2153C86.485 48.7047 87.3226 48.4859 88.3125 48.4859C89.6832 48.4859 90.6731 48.8506 91.4346 49.507C92.1199 50.1634 92.5768 51.1116 92.7291 52.3515H94.0997C94.0236 51.3304 93.719 50.4552 93.2621 49.6529C92.8052 48.9235 92.1199 48.3401 91.3584 47.9754C90.5208 47.6107 89.607 47.3919 88.4648 47.3919C87.2464 47.3919 86.1804 47.6836 85.2666 48.2671C84.3528 48.8506 83.6675 49.6529 83.1345 50.674C82.6776 51.6951 82.373 52.862 82.373 54.2478V56.1441C82.373 57.5299 82.6014 58.6968 83.1345 59.7179C83.5914 60.739 84.3528 61.5413 85.1904 62.1248C86.1042 62.7083 87.0941 63 88.3125 63C89.4547 63 90.4446 62.7812 91.2823 62.4165C92.1199 62.0518 92.7291 61.4684 93.2621 60.739C93.719 60.0097 94.0236 59.1344 94.0997 58.1134H92.7291C92.5768 58.9886 92.3483 59.645 92.0437 60.2285C91.663 60.8119 91.2061 61.2496 90.5969 61.5413C89.9877 61.833 89.2263 61.9789 88.2364 61.9789C87.2464 61.9789 86.4088 61.7601 85.7235 61.2496C85.0382 60.739 84.5051 60.0826 84.1244 59.2074C83.7436 58.3322 83.5913 57.384 83.5913 56.217V54.3207C83.5913 53.0808 83.8198 52.0597 84.2005 51.1845Z" stroke="white" stroke-width="0.74845" stroke-miterlimit="10"/>
<path d="M109.862 54.3937H100.877V47.6107H99.5064V62.7812H100.877V55.4877H109.862V62.7812H111.233V47.6107H109.862V54.3937Z" stroke="white" stroke-width="0.74845" stroke-miterlimit="10"/>
<path d="M127.909 60.5931L118.847 47.6107H117.477V62.7812H118.847V49.7988L127.909 62.7812H129.28V47.6107H127.909V60.5931Z" stroke="white" stroke-width="0.74845" stroke-miterlimit="10"/>
<path d="M144.281 48.2671C143.368 47.6836 142.302 47.3919 141.007 47.3919C139.789 47.3919 138.723 47.6836 137.809 48.2671C136.895 48.8506 136.134 49.6529 135.677 50.674C135.144 51.6951 134.915 52.935 134.915 54.3937V55.9982C134.915 57.384 135.144 58.6239 135.677 59.7179C136.21 60.739 136.895 61.5413 137.809 62.1248C138.723 62.7083 139.789 63 141.007 63C142.225 63 143.368 62.7083 144.281 62.1248C145.195 61.5413 145.88 60.739 146.413 59.7179C146.947 58.6968 147.175 57.4569 147.175 55.9982V54.3937C147.175 53.0079 146.947 51.768 146.413 50.674C145.957 49.6529 145.195 48.8506 144.281 48.2671ZM145.88 55.9982C145.88 57.1652 145.728 58.2592 145.347 59.1344C144.967 60.0097 144.434 60.6661 143.672 61.1766C142.987 61.6872 142.073 61.906 141.083 61.906C140.093 61.906 139.256 61.6872 138.494 61.1766C137.733 60.6661 137.2 60.0097 136.819 59.1344C136.438 58.2592 136.21 57.2381 136.21 55.9982V54.3207C136.21 53.1538 136.438 52.0597 136.819 51.2575C137.2 50.3822 137.733 49.7258 138.494 49.2153C139.179 48.7047 140.093 48.4859 141.083 48.4859C142.073 48.4859 142.987 48.7047 143.672 49.2153C144.358 49.7258 144.967 50.3822 145.347 51.2575C145.728 52.1327 145.957 53.1538 145.957 54.3207V55.9982H145.88Z" stroke="white" stroke-width="0.74845" stroke-miterlimit="10"/>
<path d="M154.18 47.6107H152.81V62.7812H161.947V61.6872H154.18V47.6107Z" stroke="white" stroke-width="0.74845" stroke-miterlimit="10"/>
<path d="M174.816 48.2671C173.902 47.6836 172.836 47.3919 171.542 47.3919C170.323 47.3919 169.257 47.6836 168.344 48.2671C167.43 48.8506 166.668 49.6529 166.211 50.674C165.678 51.6951 165.45 52.935 165.45 54.3937V55.9982C165.45 57.384 165.678 58.6239 166.211 59.7179C166.745 60.739 167.43 61.5413 168.344 62.1248C169.257 62.7083 170.323 63 171.542 63C172.76 63 173.902 62.7083 174.816 62.1248C175.73 61.5413 176.415 60.739 176.948 59.7179C177.481 58.6968 177.71 57.4569 177.71 55.9982V54.3937C177.71 53.0079 177.481 51.768 176.948 50.674C176.491 49.6529 175.73 48.8506 174.816 48.2671ZM176.415 55.9982C176.415 57.1652 176.263 58.2592 175.882 59.1344C175.502 60.0097 174.968 60.6661 174.207 61.1766C173.522 61.6872 172.608 61.906 171.618 61.906C170.628 61.906 169.79 61.6872 169.029 61.1766C168.267 60.6661 167.734 60.0097 167.354 59.1344C166.973 58.2592 166.745 57.2381 166.745 55.9982V54.3207C166.745 53.1538 166.973 52.0597 167.354 51.2575C167.734 50.3822 168.267 49.7258 169.029 49.2153C169.714 48.7047 170.628 48.4859 171.618 48.4859C172.608 48.4859 173.522 48.7047 174.207 49.2153C174.892 49.7258 175.502 50.3822 175.882 51.2575C176.263 52.1327 176.491 53.1538 176.491 54.3207V55.9982H176.415Z" stroke="white" stroke-width="0.74845" stroke-miterlimit="10"/>
<path d="M193.472 56.6546V60.5931C193.32 60.739 193.091 60.9578 192.711 61.1766C192.33 61.3954 191.873 61.5413 191.34 61.6872C190.807 61.833 190.122 61.906 189.284 61.906C188.294 61.906 187.38 61.6872 186.619 61.1766C185.857 60.6661 185.248 60.0097 184.867 59.1344C184.487 58.2592 184.258 57.2381 184.258 56.0712V54.1749C184.258 53.0079 184.411 52.0597 184.791 51.1845C185.172 50.3093 185.705 49.6529 186.39 49.2153C187.076 48.7047 187.989 48.4859 188.979 48.4859C189.969 48.4859 190.731 48.6318 191.34 48.9235C191.949 49.2153 192.406 49.6529 192.711 50.1634C193.015 50.674 193.244 51.2575 193.32 51.8409H194.69C194.614 50.9657 194.31 50.2364 193.853 49.58C193.396 48.9235 192.787 48.3401 191.949 47.9754C191.112 47.6107 190.122 47.3919 188.979 47.3919C187.685 47.3919 186.619 47.6836 185.705 48.1942C184.791 48.7777 184.106 49.507 183.573 50.5281C183.04 51.5492 182.811 52.7162 182.811 54.1749V55.9982C182.811 57.384 183.116 58.6239 183.649 59.645C184.182 60.6661 184.944 61.4684 185.857 62.0518C186.847 62.6353 187.913 62.9271 189.132 62.9271C190.274 62.9271 191.188 62.7812 191.949 62.5624C192.711 62.3436 193.32 62.0518 193.701 61.7601C194.157 61.4684 194.462 61.1766 194.614 60.8849V55.5606H189.056V56.6546H193.472Z" stroke="white" stroke-width="0.74845" stroke-miterlimit="10"/>
<path d="M202.457 47.6107H201.087V62.7812H202.457V47.6107Z" stroke="white" stroke-width="0.74845" stroke-miterlimit="10"/>
<path d="M210.301 55.4877H217.687V54.3937H210.301V48.7047H218.753V47.6107H208.93V62.7812H218.753V61.6872H210.301V55.4877Z" stroke="white" stroke-width="0.74845" stroke-miterlimit="10"/>
<path d="M233.526 56.9464C233.145 56.3629 232.536 55.9253 231.774 55.4877C231.013 55.123 230.023 54.7584 228.881 54.4666C227.815 54.1749 226.977 53.8831 226.368 53.5914C225.759 53.2997 225.302 52.935 225.073 52.5703C224.845 52.2056 224.693 51.768 224.693 51.2575C224.693 50.7469 224.845 50.3093 225.15 49.8717C225.454 49.4341 225.911 49.1424 226.444 48.8506C227.053 48.6318 227.739 48.4859 228.652 48.4859C229.49 48.4859 230.251 48.6318 230.861 48.9236C231.47 49.2153 231.927 49.6529 232.231 50.1634C232.536 50.674 232.688 51.2575 232.688 51.9139H234.059C234.059 51.0387 233.83 50.3093 233.374 49.6529C232.917 48.9965 232.307 48.413 231.47 48.0483C230.632 47.6107 229.718 47.4649 228.576 47.4649C227.51 47.4649 226.596 47.6107 225.835 47.9754C224.997 48.2671 224.388 48.7777 223.931 49.3612C223.474 49.9446 223.246 50.6011 223.246 51.4033C223.246 51.9868 223.398 52.4974 223.627 52.935C223.855 53.3726 224.236 53.7373 224.693 54.1019C225.15 54.4666 225.683 54.7584 226.292 54.9772C226.901 55.2689 227.662 55.4877 228.424 55.7065C229.49 55.9982 230.404 56.29 231.013 56.5817C231.622 56.8735 232.079 57.2381 232.384 57.6028C232.612 57.9675 232.764 58.478 232.764 59.0615C232.764 59.645 232.612 60.1555 232.231 60.5202C231.927 60.9578 231.394 61.2496 230.785 61.5413C230.175 61.7601 229.49 61.906 228.652 61.906C228.119 61.906 227.586 61.833 227.053 61.7601C226.52 61.6142 226.063 61.4684 225.606 61.1766C225.15 60.8849 224.769 60.5202 224.54 60.0826C224.236 59.645 224.16 59.1345 224.16 58.478H222.789C222.789 59.2803 222.941 59.9367 223.322 60.5202C223.703 61.1037 224.16 61.5413 224.693 61.906C225.302 62.2707 225.911 62.5624 226.596 62.7083C227.282 62.8541 227.967 63 228.729 63C229.795 63 230.708 62.8541 231.546 62.5624C232.384 62.2707 232.993 61.7601 233.45 61.1766C233.907 60.5932 234.135 59.8638 234.135 59.0615C234.135 58.2592 233.907 57.5299 233.526 56.9464Z" stroke="white" stroke-width="0.74845" stroke-miterlimit="10"/>
</svg>
