<svg width="37" height="37" viewBox="0 0 37 37" fill="none" xmlns="http://www.w3.org/2000/svg"><path opacity=".8" d="M18.5001 36.6169c10.217 0 18.4999-8.059 18.4999-18C37 8.67581 28.7171.616943 18.5001.616943 8.2827.616943 0 8.67581 0 18.6169c0 9.941 8.2827 18 18.5001 18z" fill="#1858FD"/><path opacity=".6" d="M18.5 8.61694l.7144-.69977c-.1881-.19202-.4456-.30023-.7144-.30023-.2688 0-.5262.10821-.7143.30023l.7143.69977zm0 0c.7144-.69977.7145-.69965.7147-.6995l.0004.00045.0014.00142.0048.00492.0176.01806.0658.0681c.057.05926.1399.14584.2448.25696.2097.22219.5081.54283.8655.93981.714.79284 1.6684 1.89544 2.6253 3.12974.954 1.2306 1.9266 2.6127 2.6651 3.9629C26.4269 17.6186 27 19.0385 27 20.3093c0 4.6124-3.8303 8.3076-8.5 8.3076-4.6698 0-8.5-3.6952-8.5-8.3076 0-1.2708.5731-2.6907 1.2946-4.0096.7386-1.3501 1.7111-2.7322 2.6651-3.9628.9569-1.2343 1.9114-2.3369 2.6253-3.12974.3575-.39698.6558-.71763.8656-.93981.1049-.11113.1877-.1977.2448-.25697l.0658-.0681.0176-.01805.0048-.00492.0014-.00142.0004-.00045c.0001-.00015.0003-.00027.7146.6995z" stroke="#fff" stroke-width="2" stroke-miterlimit="10" stroke-linecap="round" stroke-linejoin="round"/><path opacity=".3" d="M18.5 27.6169c4.1421 0 7.5-3.2718 7.5-7.3076 0-4.036-7.5-11.69236-7.5-11.69236S11 16.2733 11 20.3093c0 4.0358 3.3578 7.3076 7.5 7.3076z" fill="#fff"/></svg>