<svg width="37" height="37" viewBox="0 0 37 37" fill="none" xmlns="http://www.w3.org/2000/svg"><path opacity=".8" d="M18.5001 36.6169c10.217 0 18.4999-8.059 18.4999-18C37 8.67581 28.7171.616943 18.5001.616943 8.2827.616943 0 8.67581 0 18.6169c0 9.941 8.2827 18 18.5001 18z" fill="#1858FD"/><mask id="a" fill="#fff"><path d="M6 18.6169c0-1.9037.47183-3.7802 1.3765-5.4743.90468-1.6941 2.21624-3.1573 3.8263-4.26866l5.3944 7.20246c-.4198.2898-.7618.6713-.9977 1.1131-.2359.4417-.3589.931-.3589 1.4274H6z"/></mask><path d="M6 18.6169c0-1.9037.47183-3.7802 1.3765-5.4743.90468-1.6941 2.21624-3.1573 3.8263-4.26866l5.3944 7.20246c-.4198.2898-.7618.6713-.9977 1.1131-.2359.4417-.3589.931-.3589 1.4274H6z" fill="#fff" fill-opacity=".3" stroke="#fff" stroke-opacity=".3" stroke-width="2" mask="url(#a)"/><mask id="b" fill="#fff"><path d="M31 18.6169c0-1.9037-.4718-3.7802-1.3765-5.4743-.9047-1.6941-2.2162-3.1573-3.8263-4.26866l-5.3944 7.20246c.4198.2898.7618.6713.9977 1.1131.2359.4417.3589.931.3589 1.4274H31z"/></mask><path d="M31 18.6169c0-1.9037-.4718-3.7802-1.3765-5.4743-.9047-1.6941-2.2162-3.1573-3.8263-4.26866l-5.3944 7.20246c.4198.2898.7618.6713.9977 1.1131.2359.4417.3589.931.3589 1.4274H31z" fill="#fff" fill-opacity=".3" stroke="#fff" stroke-opacity=".3" stroke-width="2" mask="url(#b)"/><mask id="c" fill="#fff"><path d="M24.9379 29.1948c-1.9886 1.1968-4.2714 1.8156-6.5921 1.7869-2.3207-.0286-4.5875-.7036-6.5459-1.9492l4.9482-7.7802c.5121.3256 1.1048.5021 1.7116.5096.6068.0075 1.2037-.1543 1.7236-.4672l4.7546 7.9001z"/></mask><path d="M24.9379 29.1948c-1.9886 1.1968-4.2714 1.8156-6.5921 1.7869-2.3207-.0286-4.5875-.7036-6.5459-1.9492l4.9482-7.7802c.5121.3256 1.1048.5021 1.7116.5096.6068.0075 1.2037-.1543 1.7236-.4672l4.7546 7.9001z" fill="#fff" fill-opacity=".3" stroke="#fff" stroke-opacity=".3" stroke-width="2" mask="url(#c)"/></svg>