<svg width="37" height="37" viewBox="0 0 37 37" fill="none" xmlns="http://www.w3.org/2000/svg"><path opacity=".8" d="M18.5001 36.6169c10.217 0 18.4999-8.059 18.4999-18C37 8.67581 28.7171.616943 18.5001.616943 8.2827.616943 0 8.67581 0 18.6169c0 9.941 8.2827 18 18.5001 18z" fill="#1858FD"/><path opacity=".6" d="M19 26.6169c3.9908 0 7-1.548 7-3.6v-8.4h-.0412c.0256-.1312.0412-.264.0412-.4 0-2.052-3.0092-3.6-7-3.6-3.7263 0-6.5956 1.3504-6.9588 3.2H12v9.2c0 2.052 3.0092 3.6 7 3.6zm0-1.6c-3.3234 0-5.4444-1.184-5.4444-2v-6.4848c1.2623.7944 3.1974 1.2848 5.4444 1.2848s4.1821-.4904 5.4444-1.2848v6.4848c0 .816-2.121 2-5.4444 2zm0-12.8c3.3234 0 5.4444 1.184 5.4444 2 0 .816-2.121 2-5.4444 2s-5.4444-1.184-5.4444-2c0-.816 2.121-2 5.4444-2z" fill="#fff"/><path opacity=".3" d="M23.2858 28.6169c-.9833.0018-1.9573-.2034-2.8661-.6037-.9087-.4003-1.7344-.9878-2.4297-1.7289-.8694-.9248-2.0475-1.4442-3.2758-1.4442s-2.4064.5194-3.2758 1.4442c-.1326.1413-.2901.2535-.4634.33-.1733.0765-.359.1159-.5466.1159s-.3733-.0394-.54663-.1159c-.1733-.0765-.33077-.1887-.46341-.33-.13263-.1414-.23785-.3092-.30963-.4939C9.03695 25.6056 9 25.4077 9 25.2078c0-.2.03695-.3979.10873-.5826.07178-.1847.177-.3526.30963-.4939 1.40594-1.4942 3.31034-2.3333 5.29584-2.3333 1.9854 0 3.8899.8391 5.2958 2.3333.8698.924 2.0478 1.4429 3.2758 1.4429 1.2281 0 2.406-.5189 3.2758-1.4429.1326-.1414.2901-.2535.4634-.3301.1733-.0765.359-.1158.5466-.1158s.3733.0393.5466.1158c.1733.0766.3308.1887.4634.3301.1327.1413.2379.3092.3097.4939.0718.1847.1087.3826.1087.5826 0 .1999-.0369.3978-.1087.5826-.0718.1847-.177.3525-.3097.4939-.6951.7413-1.5208 1.329-2.4296 1.7293-.9088.4003-1.8828.6053-2.8662.6033zm0-6.0905c-.9833.0017-1.9573-.2034-2.8661-.6037-.9087-.4003-1.7344-.9879-2.4297-1.729-.8694-.9247-2.0475-1.4441-3.2758-1.4441s-2.4064.5194-3.2758 1.4441c-.2679.2855-.6312.4459-1.01.4459s-.74216-.1604-1.01004-.4459C9.15049 19.9082 9 19.521 9 19.1172c0-.4037.15049-.791.41836-1.0765 1.40594-1.4942 3.31034-2.3332 5.29584-2.3332 1.9854 0 3.8899.839 5.2958 2.3332.8698.9241 2.0478 1.4429 3.2758 1.4429 1.2281 0 2.406-.5188 3.2758-1.4429.2679-.2855.6312-.4459 1.01-.4459s.7422.1604 1.01.4459c.2679.2855.4184.6728.4184 1.0765 0 .4038-.1505.791-.4184 1.0765-.6951.7414-1.5208 1.329-2.4296 1.7293-.9088.4003-1.8828.6054-2.8662.6034zm0-6.0905c-.9833.0017-1.9573-.2034-2.8661-.6037-.9087-.4003-1.7344-.9879-2.4297-1.729-.8694-.9248-2.0475-1.4442-3.2758-1.4442s-2.4064.5194-3.2758 1.4442c-.1326.1414-.2901.2535-.4634.33-.1733.0765-.359.1159-.5466.1159s-.3733-.0394-.54663-.1159c-.1733-.0765-.33077-.1886-.46341-.33-.13263-.1414-.23785-.3092-.30963-.4939C9.03695 13.4246 9 13.2266 9 13.0267c0-.1999.03695-.3979.10873-.5826.07178-.1847.177-.3525.30963-.4939 1.40594-1.4942 3.31034-2.33326 5.29584-2.33326 1.9854 0 3.8899.83906 5.2958 2.33326.8698.924 2.0478 1.4429 3.2758 1.4429 1.2281 0 2.406-.5189 3.2758-1.4429.2679-.2855.6312-.4459 1.01-.4459s.7422.1604 1.01.4459c.2679.2855.4184.6727.4184 1.0765 0 .4038-.1505.791-.4184 1.0765-.6951.7413-1.5208 1.329-2.4296 1.7293-.9088.4003-1.8828.6054-2.8662.6034z" fill="#fff"/></svg>