<svg width="37" height="37" viewBox="0 0 37 37" fill="none" xmlns="http://www.w3.org/2000/svg"><path opacity=".8" d="M18.5001 36.6169c10.217 0 18.4999-8.059 18.4999-18C37 8.67581 28.7171.616943 18.5001.616943 8.2827.616943 0 8.67581 0 18.6169c0 9.941 8.2827 18 18.5001 18z" fill="#1858FD"/><path opacity=".6" d="M8 17.2176c0-1.1581.36426-2.1946 1.09279-3.1095.72852-.9149 1.65171-1.4959 2.76951-1.7429.3161-1.3897 1.0273-2.52855 2.1336-3.41643 1.1062-.88789 2.3725-1.33183 3.7987-1.33183 1.3877 0 2.6289.43429 3.7236 1.30287 1.0947.86858 1.8039 1.97459 2.1277 3.31799h.3354c1.3876 0 2.571.4845 3.5501 1.4534.9791.969 1.4686 2.1444 1.4686 3.5264 0 .7412-.1523 1.4419-.4568 2.102-.3045.6601-.7266 1.2257-1.2662 1.6966v.0348c0 .7335-.2294 1.3878-.6881 1.963-.4587.5752-1.0349.94-1.7288 1.0944-.1773.7721-.5512 1.4245-1.1217 1.9572-.5704.5327-1.2412.8608-2.0121.9844.3546.4246.532.8917.532 1.4013 0 .5945-.2101 1.104-.6303 1.5287-.4201.4246-.927.6369-1.5206.6369-.5936 0-1.1005-.2123-1.5207-.6369-.4201-.4247-.6302-.9342-.6302-1.5287 0-.2394.0424-.4748.1272-.7065h-.1272c-.717 0-1.3337-.2586-1.8502-.7759-.5165-.5173-.7748-1.1349-.7748-1.853 0-.4941.1233-.9342.37-1.3202-.6398-.3552-1.1024-.8686-1.3876-1.5403h-1.5727v-.0116c-1.326-.0849-2.4477-.6099-3.3651-1.575C8.4587 19.7037 8 18.5533 8 17.2176zm1.72302-.3011c0 .9883.34688 1.8298 1.04078 2.5247.6938.6949 1.5303 1.0423 2.5093 1.0423.6091 0 1.1718-.139 1.6884-.4169.1464.9188.5743 1.6831 1.2835 2.293.7093.61 1.5419.9149 2.4978.9149 1.0716 0 1.9852-.3783 2.7407-1.1349.5088.5868 1.1409.8802 1.8965.8802.7015 0 1.3009-.249 1.7981-.747.4973-.498.7459-1.0983.7459-1.8009.4934-.332.8827-.7585 1.168-1.2797.2852-.5211.4278-1.0867.4278-1.6966 0-.9805-.3507-1.8124-1.0523-2.4957-.7015-.6833-1.5457-1.025-2.5325-1.025-.6861 0-1.3144.1815-1.8849.5444.0694-.3011.1041-.6254.1041-.9728 0-1.189-.424-2.2005-1.272-3.0343-.8481-.83383-1.8734-1.25074-3.076-1.25074-1.1564 0-2.1548.40147-2.9951 1.20444-.8403.8029-1.2797 1.7796-1.3183 2.93-.0231 0-.0578-.0019-.104-.0058-.0463-.0039-.0848-.0058-.1157-.0058-.9713 0-1.8059.3455-2.5036 1.0365-.6976.691-1.04648 1.5229-1.04648 2.4957z" fill="#fff"/><path opacity=".3" d="M9.72302 16.9166c0 .9882.34688 1.8298 1.04078 2.5246.6938.6949 1.5303 1.0423 2.5093 1.0423.6091 0 1.1718-.1389 1.6884-.4169.1464.9188.5743 1.6831 1.2835 2.2931.7093.6099 1.5419.9149 2.4978.9149 1.0716 0 1.9852-.3783 2.7407-1.135.5088.5868 1.141.8802 1.8965.8802.7015 0 1.3009-.249 1.7981-.747.4973-.498.7459-1.0983.7459-1.8009.4934-.3319.8827-.7585 1.168-1.2797.2852-.5211.4278-1.0866.4278-1.6966 0-.9805-.3507-1.8124-1.0523-2.4957-.7015-.6833-1.5457-1.0249-2.5325-1.0249-.6861 0-1.3144.1814-1.8849.5443.0694-.3011.1041-.6254.1041-.9728 0-1.189-.424-2.2004-1.272-3.0343-.8481-.83381-1.8734-1.25073-3.076-1.25073-1.1564 0-2.1548.40148-2.9951 1.20443-.8403.803-1.2797 1.7796-1.3183 2.93-.0231 0-.0578-.0019-.104-.0058-.0463-.0038-.0848-.0058-.1157-.0058-.9713 0-1.8059.3455-2.5035 1.0365-.6977.691-1.04658 1.523-1.04658 2.4958z" fill="#fff"/></svg>