<svg width="38" height="37" viewBox="0 0 38 37" fill="none" xmlns="http://www.w3.org/2000/svg"><path opacity=".8" d="M18.8719 36.6169c10.217 0 18.4999-8.059 18.4999-18 0-9.94109-8.2829-17.999957-18.4999-17.999957C8.65452.616943.371826 8.67581.371826 18.6169c0 9.941 8.282694 18 18.500074 18z" fill="#1858FD"/><path d="M18.8718 6.86694L7.62183 18.1169l11.24997 11.25 11.25-11.25-11.25-11.24996z" fill="#fff" fill-opacity=".3" stroke="#fff" stroke-opacity=".6" stroke-width="1.2" stroke-miterlimit="10" stroke-linecap="round" stroke-linejoin="round"/><path fill-rule="evenodd" clip-rule="evenodd" d="M16.0537 18.776c-.2636-.2636-.691-.2636-.9546 0-.2636.2636-.2636.691 0 .9545l3.4092 3.4094c.1266.1265.2984.1976.4774.1976s.3506-.0711.4773-.1976l3.4092-3.4094c.2637-.2635.2637-.6909 0-.9545-.2636-.2636-.691-.2636-.9545 0l-2.257 2.257v-8.0301c0-.3728-.3022-.675-.675-.675s-.675.3022-.675.675v8.0301l-2.257-2.257z" fill="#fff" fill-opacity=".6"/></svg>