<svg width="38" height="37" viewBox="0 0 38 37" fill="none" xmlns="http://www.w3.org/2000/svg"><path opacity=".8" d="M18.8719 36.6169c10.217 0 18.4999-8.059 18.4999-18 0-9.94109-8.2829-17.999957-18.4999-17.999957C8.65452.616943.371826 8.67581.371826 18.6169c0 9.941 8.282694 18 18.500074 18z" fill="#1858FD"/><path opacity=".3" fill-rule="evenodd" clip-rule="evenodd" d="M21.553 10.3219l-.3616-2.85837c-.035-.29167-.28-.51333-.5834-.51333h-3.6283c-.2917 0-.5483.22166-.5833.51333l-.315 2.50833c-.0234.21004-.175.39664-.3734.46664-.98.3617-1.9133.9217-2.7183 1.645l-2.66-1.12c-.2683-.1166-.58332-.0116-.73499.245l-1.82 3.15c-.14.2567-.07.5834.16334.7584l2.29835 1.7383c-.24502 1.1783-.24502 2.38-.0117 3.5233h.0117l-2.29835 1.7384c-.23334.175-.30334.5016-.15167.7583l1.82 3.15c.15167.2567.46662.3617.73502.245l2.66-1.12-.0117.0117c.4317.385.9217.735 1.4467 1.0383.525.3033 1.0616.5483 1.6216.735v-.0233l.3617 2.8583c.0117.2917.2683.5133.56.5133h3.64c.2917 0 .5367-.2216.5833-.5133l.315-2.5083c.0234-.21.175-.3967.3734-.4667.98-.3617 1.9133-.9217 2.7183-1.645l2.66 1.12c.2683.1167.5833.0117.735-.245l1.82-3.15c.1517-.2567.0817-.5833-.1517-.7583l-2.2983-1.7384c.245-1.1783.245-2.38.0117-3.5233h-.0117l2.275-1.7383c.2333-.175.3033-.5017.1517-.7584l-1.82-3.15c-.1517-.2566-.4667-.3616-.735-.245l-2.6484 1.12.0117-.0116c-.4317-.385-.9217-.735-1.4467-1.0384-.525-.3033-1.0616-.5483-1.6216-.735" fill="#fff"/><path d="M18.7999 23.2835c2.5773 0 4.6666-2.0894 4.6666-4.6666 0-2.5774-2.0893-4.6667-4.6666-4.6667-2.5774 0-4.6667 2.0893-4.6667 4.6667 0 2.5772 2.0893 4.6666 4.6667 4.6666z" stroke="#fff" stroke-opacity=".6" stroke-width="1.2" stroke-miterlimit="10" stroke-linecap="round" stroke-linejoin="round"/></svg>