<svg width="38" height="37" viewBox="0 0 38 37" fill="none" xmlns="http://www.w3.org/2000/svg">
<path opacity="0.8" d="M18.8719 36.6169C29.0889 36.6169 37.3718 28.5579 37.3718 18.6169C37.3718 8.67581 29.0889 0.616943 18.8719 0.616943C8.65452 0.616943 0.371826 8.67581 0.371826 18.6169C0.371826 28.5579 8.65452 36.6169 18.8719 36.6169Z" fill="#1858FD"/>
<path opacity="0.6" fill-rule="evenodd" clip-rule="evenodd" d="M16.7716 7C15.4749 7 14.1687 7.42981 13.1698 8.20779C12.393 8.81168 11.7843 9.64489 11.5454 10.6534C11.0495 10.7452 10.5919 10.9821 10.2308 11.3341C9.65329 11.8756 9.24269 12.6596 8.98457 13.464C8.72164 14.2815 8.59078 15.2 8.63039 16.0824C8.64822 16.5402 8.71954 16.9943 8.8429 17.4355C8.36326 17.6437 7.96041 17.9962 7.69034 18.444C7.18009 19.2664 7 20.4502 7 21.9593C7 23.6941 7.66272 24.8707 8.51514 25.6031C8.95913 25.9839 9.4788 26.2662 10.0399 26.4315C10.2438 27.3698 10.6626 28.248 11.2633 28.9971C12.1313 30.0825 13.4808 30.9997 15.2936 30.9997C16.7464 30.9997 17.8905 30.1965 18.6265 29.4257C18.7567 29.2888 18.8809 29.1462 18.9986 28.9983C19.1163 29.1466 19.2405 29.2896 19.3708 29.4269C20.1056 30.1953 21.2497 30.9997 22.7025 30.9997C24.5165 30.9997 25.8648 30.0825 26.7328 28.9971C27.3335 28.248 27.7523 27.3698 27.9562 26.4315C28.5173 26.2662 29.037 25.9839 29.481 25.6031C30.3334 24.8719 30.9961 23.6941 30.9961 21.9593C30.9961 20.4502 30.816 19.2664 30.3058 18.444C30.0368 18.0082 29.6767 17.6804 29.2324 17.4715L29.1532 17.4355C29.2805 16.9949 29.3465 16.5338 29.3669 16.0824C29.4065 15.2 29.2745 14.2815 29.0127 13.464C28.7534 12.6584 28.3428 11.8756 27.7665 11.3341C27.4039 10.9943 26.9549 10.7374 26.4507 10.6534C26.2118 9.64609 25.6031 8.81168 24.8263 8.20779C23.8286 7.42981 22.5224 7 21.2233 7C20.4478 7 19.8186 7.26653 19.3432 7.69034C19.2148 7.80439 19.0995 7.92805 18.9986 8.05531C18.8966 7.92805 18.7825 7.80439 18.6529 7.69034C18.1762 7.26653 17.5483 7 16.7716 7ZM13.237 11.6006C13.237 10.8179 13.6212 10.1383 14.2755 9.62808V9.62928C14.9407 9.11063 15.8531 8.80088 16.7716 8.80088C17.1053 8.80088 17.3082 8.90293 17.4559 9.03499C17.6228 9.18386 17.7632 9.40957 17.8713 9.69531C17.9978 10.0441 18.0707 10.41 18.0874 10.7806L18.0898 10.8491V13.8962H17.0153C16.8063 13.3796 16.4242 12.9518 15.9344 12.686C15.4446 12.4203 14.8776 12.3332 14.3307 12.4396C13.7837 12.5461 13.2908 12.8395 12.9364 13.2695C12.582 13.6995 12.3882 14.2394 12.3882 14.7966C12.3882 15.3538 12.582 15.8937 12.9364 16.3237C13.2908 16.7537 13.7837 17.0471 14.3307 17.1536C14.8776 17.26 15.4446 17.1729 15.9344 16.9072C16.4242 16.6414 16.8063 16.2136 17.0153 15.697H18.0898V24.1011V24.1167V27.0642L18.0838 27.081C18.0442 27.1775 17.9976 27.271 17.9445 27.3607C17.8053 27.6008 17.594 27.8974 17.3226 28.1831C16.7632 28.769 16.0584 29.1988 15.2936 29.1988C14.1507 29.1988 13.2815 28.6369 12.6704 27.8722C12.0365 27.0798 11.7579 26.1637 11.7579 25.6595C11.7579 25.4207 11.6631 25.1917 11.4942 25.0228C11.3253 24.8539 11.0963 24.7591 10.8575 24.7591C10.7038 24.7591 10.1719 24.651 9.68931 24.2368C9.2475 23.8574 8.80088 23.1851 8.80088 21.9593C8.80088 20.7383 8.93534 20.0167 9.11543 19.5989C9.12544 19.5991 9.13544 19.5991 9.14545 19.5989H12.267C12.6556 19.5991 13.0312 19.7388 13.3254 19.9926C13.6196 20.2465 13.8128 20.5976 13.8697 20.982C13.3553 21.1952 12.931 21.5806 12.6694 22.0722C12.4078 22.5637 12.3252 23.131 12.4357 23.6767C12.5462 24.2225 12.843 24.7129 13.2752 25.064C13.7074 25.4151 14.2483 25.605 14.8051 25.6013C15.3619 25.5976 15.9001 25.4005 16.3277 25.0437C16.7552 24.6869 17.0454 24.1926 17.1487 23.6455C17.2519 23.0983 17.1618 22.5322 16.8937 22.0441C16.6256 21.5561 16.1962 21.1764 15.679 20.97C15.616 20.1081 15.2291 19.3021 14.5962 18.7137C13.9633 18.1253 13.1311 17.7982 12.267 17.7981H10.9679C10.9431 17.7278 10.9096 17.6608 10.8683 17.5988C10.6174 17.2242 10.4589 16.6695 10.4289 16.002C10.403 15.3286 10.4944 14.6559 10.699 14.0138C10.9019 13.3799 11.1852 12.9081 11.4626 12.6476C11.7135 12.4122 11.8864 12.399 12.0521 12.4543C12.1874 12.4993 12.3314 12.5116 12.4724 12.4901C12.6134 12.4686 12.7472 12.4139 12.8629 12.3306C12.9786 12.2472 13.0729 12.1376 13.1379 12.0107C13.203 11.8838 13.2369 11.7432 13.237 11.6006ZM14.3637 14.3721C14.4763 14.2596 14.629 14.1963 14.7882 14.1963C14.9474 14.1963 15.1001 14.2596 15.2127 14.3721C15.3252 14.4847 15.3885 14.6374 15.3885 14.7966C15.3885 14.9558 15.3252 15.1085 15.2127 15.2211C15.1001 15.3336 14.9474 15.3969 14.7882 15.3969C14.629 15.3969 14.4763 15.3336 14.3637 15.2211C14.2511 15.1085 14.1879 14.9558 14.1879 14.7966C14.1879 14.6374 14.2511 14.4847 14.3637 14.3721ZM14.3637 23.6252C14.2511 23.5126 14.1879 23.3599 14.1879 23.2007C14.1879 23.0415 14.2511 22.8888 14.3637 22.7762C14.4763 22.6636 14.629 22.6004 14.7882 22.6004C14.9474 22.6004 15.1001 22.6636 15.2127 22.7762C15.3252 22.8888 15.3885 23.0415 15.3885 23.2007C15.3885 23.3599 15.3252 23.5126 15.2127 23.6252C15.1001 23.7377 14.9474 23.801 14.7882 23.801C14.629 23.801 14.4763 23.7377 14.3637 23.6252ZM19.8275 25.2712V27.3338L19.8335 27.3506C19.8575 27.4142 19.9031 27.5091 19.9727 27.6304C20.112 27.8705 20.3233 28.167 20.5947 28.4528C21.1541 29.0386 21.8589 29.4684 22.6236 29.4684C23.7678 29.4684 24.6358 28.9066 25.2469 28.1418C25.8808 27.3494 26.1594 26.4322 26.1594 25.9291C26.1594 25.6903 26.2542 25.4613 26.4231 25.2924C26.592 25.1236 26.821 25.0287 27.0598 25.0287C27.2135 25.0287 27.7441 24.9206 28.2292 24.5064C28.6698 24.127 29.1164 23.4547 29.1164 22.2289C29.1164 20.7786 28.9267 20.0318 28.6974 19.6633C28.6256 19.5358 28.5168 19.4332 28.3853 19.3691C28.2628 19.3115 28.0815 19.2683 27.7994 19.2683C27.6363 19.2685 27.4762 19.2244 27.3362 19.1407C27.1963 19.0571 27.0816 18.937 27.0046 18.7932C26.9276 18.6495 26.891 18.4876 26.8988 18.3247C26.9066 18.1618 26.9585 18.0041 27.049 17.8684C27.2999 17.4926 27.4584 16.9391 27.4884 16.2716C27.5142 15.5982 27.4228 14.9255 27.2183 14.2834C27.0142 13.6495 26.7332 13.1789 26.4547 12.9172C26.205 12.6819 26.0309 12.6687 25.8664 12.7239C25.7311 12.7692 25.5869 12.7817 25.4457 12.7603C25.3046 12.7389 25.1706 12.6842 25.0547 12.6009C24.9389 12.5175 24.8445 12.4078 24.7794 12.2807C24.7143 12.1537 24.6803 12.013 24.6802 11.8703C24.6802 11.0875 24.2961 10.408 23.6417 9.89771C22.9766 9.38026 22.0654 9.06931 21.1445 9.06931C20.812 9.06931 20.6091 9.17376 20.4614 9.30462C20.2945 9.4535 20.1552 9.67921 20.0472 9.96495C19.9206 10.3137 19.8478 10.6796 19.8311 11.0503C19.8296 11.0731 19.8284 11.0959 19.8275 11.1187V23.4703V25.2712Z" fill="white"/>
<path opacity="0.3" d="M19.8275 27.3338V25.2712V23.4704V11.1187C19.8284 11.0959 19.8296 11.0731 19.8311 11.0503C19.8478 10.6797 19.9207 10.3137 20.0472 9.96497C20.1553 9.67923 20.2945 9.45352 20.4614 9.30465C20.6091 9.17379 20.812 9.06934 21.1446 9.06934C22.0654 9.06934 22.9767 9.38029 23.6418 9.89774C24.2961 10.408 24.6803 11.0875 24.6803 11.8703C24.6803 12.013 24.7143 12.1537 24.7794 12.2808C24.8445 12.4078 24.9389 12.5175 25.0548 12.6009C25.1706 12.6843 25.3046 12.7389 25.4458 12.7603C25.5869 12.7817 25.7311 12.7692 25.8665 12.7239C26.0309 12.6687 26.205 12.6819 26.4547 12.9172C26.7333 13.1789 27.0142 13.6496 27.2183 14.2835C27.4229 14.9255 27.5143 15.5983 27.4885 16.2716C27.4584 16.9392 27.3 17.4926 27.049 17.8684C26.9586 18.0041 26.9067 18.1618 26.8989 18.3247C26.891 18.4876 26.9276 18.6495 27.0046 18.7933C27.0817 18.937 27.1963 19.0571 27.3363 19.1408C27.4763 19.2244 27.6363 19.2685 27.7994 19.2683C28.0815 19.2683 28.2628 19.3115 28.3853 19.3692C28.5168 19.4332 28.6257 19.5358 28.6974 19.6633C28.9267 20.0319 29.1164 20.7786 29.1164 22.2289C29.1164 23.4547 28.6698 24.1271 28.2292 24.5065C27.7442 24.9207 27.2135 25.0287 27.0598 25.0287C26.821 25.0287 26.592 25.1236 26.4231 25.2924C26.2543 25.4613 26.1594 25.6903 26.1594 25.9291C26.1594 26.4322 25.8809 27.3494 25.247 28.1418C24.6359 28.9066 23.7678 29.4685 22.6237 29.4685C21.8589 29.4685 21.1542 29.0387 20.5947 28.4528C20.3234 28.167 20.1121 27.8705 19.9728 27.6304C19.9032 27.5091 19.8575 27.4143 19.8335 27.3506L19.8275 27.3338Z" fill="white"/>
</svg>
