<svg width="38" height="37" viewBox="0 0 38 37" fill="none" xmlns="http://www.w3.org/2000/svg"><path opacity=".8" d="M18.8719 36.6169c10.217 0 18.4999-8.059 18.4999-18 0-9.94109-8.2829-17.999957-18.4999-17.999957C8.65452.616943.371826 8.67581.371826 18.6169c0 9.941 8.282694 18 18.500074 18z" fill="#1858FD"/><circle opacity=".3" cx="18.8718" cy="18.1169" r="12.5" fill="#fff"/><circle opacity=".6" cx="18.8718" cy="18.1169" r="10.75" stroke="#fff" stroke-width="1.5"/><path opacity=".6" d="M17.3718 17.3823c-.1306.2427-.322.4631-.5633.6489-.2414.1857-.5279.333-.8432.4335-.3153.1005-.6533.1522-.9946.1522-.3413 0-.6792-.0517-.9945-.1522s-.6018-.2478-.8432-.4335c-.2413-.1858-.4327-.4062-.5633-.6489-.1307-.2426-.1979-.5027-.1979-.7654M25.3718 16.6169c0 .2627-.0672.5228-.1978.7654-.1306.2427-.322.4631-.5634.6489-.2413.1857-.5278.333-.8431.4335-.3153.1005-.6533.1522-.9946.1522-.3413 0-.6792-.0517-.9946-.1522-.3153-.1005-.6018-.2478-.8431-.4335-.2413-.1858-.4328-.4062-.5634-.6489" stroke="#fff" stroke-width="1.5" stroke-linecap="round" stroke-linejoin="round"/></svg>