<svg width="30" height="31" viewBox="0 0 30 31" fill="none" xmlns="http://www.w3.org/2000/svg">
<path d="M17.1094 6.61694L16.8281 6.14819L16.1719 5.11694H22.5C24.1406 5.11694 25.5 6.47632 25.5 8.11694V23.1169C25.5 24.8044 24.1406 26.1169 22.5 26.1169H7.5C5.8125 26.1169 4.5 24.8044 4.5 23.1169V8.11694C4.5 6.47632 5.8125 5.11694 7.5 5.11694H13.7812L13.125 6.14819L12.8438 6.61694H7.5C6.65625 6.61694 6 7.32007 6 8.11694V20.1169C6.9375 20.1169 7.92188 19.6951 8.71875 19.1326C9.04688 18.8982 9.32812 18.6638 9.60938 18.3826C10.125 17.9607 10.8281 17.9607 11.3438 18.3826C11.625 18.6638 11.9062 18.8982 12.2344 19.1326C13.0312 19.6951 14.0156 20.1169 15 20.1169C15.9375 20.1169 16.9219 19.6951 17.7188 19.1326C18.0469 18.8982 18.3281 18.6638 18.6094 18.3826C19.125 17.9607 19.8281 17.9607 20.3438 18.3826C20.625 18.6638 20.9062 18.8982 21.2344 19.1326C22.0312 19.6482 23.0156 20.1169 24 20.1169V8.11694C24 7.32007 23.2969 6.61694 22.5 6.61694H17.1094ZM6 21.6169V23.1169C6 23.9607 6.65625 24.6169 7.5 24.6169H22.5C23.2969 24.6169 24 23.9607 24 23.1169V21.6169C22.5469 21.6169 21.2812 20.9607 20.3906 20.3982C20.0156 20.1169 19.7344 19.8826 19.5 19.6482C19.2188 19.8826 18.9375 20.1169 18.5625 20.3982C17.6719 20.9607 16.4062 21.6169 15 21.6169C13.5469 21.6169 12.2812 20.9607 11.3906 20.3982C11.0156 20.1169 10.7344 19.8826 10.5 19.6482C10.2188 19.8826 9.9375 20.1169 9.5625 20.3982C8.67188 20.9607 7.40625 21.6169 6 21.6169ZM15.5625 6.94507L17.7656 10.2732C18.1406 10.8357 18.375 11.4919 18.375 12.1951V12.2419C18.375 14.1169 16.8281 15.6169 15 15.6169C13.125 15.6169 11.625 14.1169 11.625 12.2419V12.1951C11.625 11.4919 11.8125 10.8357 12.1875 10.2732L14.3906 6.94507C14.5312 6.75757 14.7656 6.61694 15 6.61694C15.2344 6.61694 15.4219 6.75757 15.5625 6.94507ZM15 8.77319L13.4531 11.1169C13.2188 11.3982 13.125 11.8201 13.125 12.1951V12.2419C13.125 13.3201 13.9219 14.1169 15 14.1169C16.0312 14.1169 16.875 13.3201 16.875 12.2419V12.1951C16.875 11.8201 16.7344 11.3982 16.5469 11.1169L15 8.77319Z" fill="#1858FD"/>
</svg>
