<svg width="30" height="31" viewBox="0 0 30 31" fill="none" xmlns="http://www.w3.org/2000/svg">
<path d="M18.2344 9.52319C17.0156 7.78882 15 6.61694 12.75 6.61694C9.09375 6.61694 6.14062 9.47632 6 13.0857C5.95312 13.6951 5.57812 14.2107 4.96875 14.4451C2.95312 15.1482 1.5 17.1169 1.5 19.3669C1.5 22.2732 3.84375 24.6169 6.75 24.6169H24C26.4844 24.6169 28.5 22.6013 28.5 20.1169C28.5 18.4294 27.5156 16.9294 26.0625 16.1794C25.4531 15.8044 25.125 15.1013 25.3594 14.3982C25.4531 14.1169 25.5 13.7419 25.5 13.3669C25.5 11.3044 23.8125 9.61694 21.75 9.61694C21.1406 9.61694 20.625 9.75757 20.1094 9.99194C19.4531 10.3201 18.6562 10.0857 18.2344 9.52319ZM12.75 5.11694C15.5156 5.11694 18 6.52319 19.5 8.63257C20.1562 8.30444 20.9062 8.11694 21.75 8.11694C24.6094 8.11694 27 10.5076 27 13.3669C27 13.8826 26.9062 14.3513 26.7656 14.8201C28.6875 15.8513 30 17.8201 30 20.1169C30 23.4451 27.2812 26.1169 24 26.1169H6.75C3 26.1169 0 23.1169 0 19.3669C0 16.4607 1.875 13.9294 4.5 13.0388C4.6875 8.63257 8.29688 5.11694 12.75 5.11694ZM10.6875 17.6794C10.4062 17.3982 10.4062 16.8826 10.6875 16.6013C10.9688 16.3201 11.4844 16.3201 11.7656 16.6013L14.25 19.0857V11.8669C14.25 11.4919 14.5781 11.1169 15 11.1169C15.375 11.1169 15.75 11.4919 15.75 11.8669V19.0857L18.1875 16.6013C18.4688 16.3201 18.9844 16.3201 19.2656 16.6013C19.5469 16.8826 19.5469 17.3982 19.2656 17.6794L15.5156 21.4294C15.2344 21.7107 14.7188 21.7107 14.4375 21.4294L10.6875 17.6794Z" fill="#1858FD"/>
</svg>
