<?xml version="1.0" encoding="utf-8"?>
<!-- Generator: Adobe Illustrator 25.2.3, SVG Export Plug-In . SVG Version: 6.00 Build 0)  -->
<svg version="1.1" id="Layer_1" xmlns="http://www.w3.org/2000/svg" xmlns:xlink="http://www.w3.org/1999/xlink" x="0px" y="0px"
	 viewBox="0 0 48 48" style="enable-background:new 0 0 48 48;" xml:space="preserve">
<style type="text/css">
	.st0{fill:#1858FD;stroke:#FFFFFF;}
</style>
<path className="st0" d="M3.5,24C3.5,12.7,12.7,3.5,24,3.5S44.5,12.7,44.5,24S35.3,44.5,24,44.5S3.5,35.3,3.5,24z M20.2,16.3
	c-0.1,0-0.2,0-0.3,0.1c-0.1,0-0.4,0.2-0.4,0.6v14.7c0,0.4,0.3,0.6,0.4,0.6s0.5,0.2,0.8-0.2l10.6-7.3c0.1-0.1,0.2-0.3,0.2-0.5
	s-0.1-0.4-0.2-0.5l-10.6-7.3C20.5,16.3,20.4,16.3,20.2,16.3z"/>
</svg>
