<svg width="30" height="31" viewBox="0 0 30 31" fill="none" xmlns="http://www.w3.org/2000/svg">
<path d="M6 5.25757L4.59375 6.66382L8.01562 11.1169H10.5V8.67944L6 5.25757ZM12 11.5857L16.7344 16.3669C18.1406 15.4294 20.0625 15.6169 21.2812 16.8357L26.5312 22.0857C27.1406 22.6482 27.1406 23.6326 26.5312 24.1951L23.5312 27.1951C22.9688 27.8044 21.9844 27.8044 21.4219 27.1951L16.1719 21.9451C14.9531 20.7263 14.7656 18.8044 15.7031 17.3982L10.9219 12.6169C10.875 12.6169 10.875 12.6169 10.8281 12.6169H7.82812C7.5 12.6169 7.17188 12.4763 6.9375 12.1951L3.1875 7.32007C2.85938 6.85132 2.90625 6.24194 3.32812 5.82007L5.20312 3.94507C5.57812 3.57007 6.23438 3.52319 6.65625 3.85132L11.5312 7.60132C11.8125 7.83569 12 8.16382 12 8.49194V11.4919C12 11.5388 12 11.5388 12 11.5857ZM17.25 17.8669C16.4062 18.7107 16.4062 20.0701 17.25 20.8669L22.5 26.1169L25.5 23.1169L20.25 17.8669C19.4062 17.0701 18.0469 17.0701 17.25 17.8669ZM7.875 23.4919C7.875 23.9138 7.5 24.2419 7.125 24.2419C6.70312 24.2419 6.375 23.9138 6.375 23.4919C6.375 23.1169 6.70312 22.7419 7.125 22.7419C7.5 22.7419 7.875 23.1169 7.875 23.4919ZM4.07812 21.2888L10.7812 14.5857L11.8594 15.6638L5.15625 22.3669C4.73438 22.7888 4.5 23.3513 4.5 23.9138C4.5 25.1326 5.48438 26.1169 6.70312 26.1169C7.26562 26.1169 7.82812 25.8826 8.25 25.4607L13.6406 20.0701C13.7344 20.6326 13.875 21.1951 14.1562 21.7107L9.32812 26.5388C8.625 27.2419 7.6875 27.6169 6.70312 27.6169C4.64062 27.6169 3 25.9763 3 23.9138C3 22.9294 3.375 21.9919 4.07812 21.2888ZM25.4531 11.1169C25.4531 10.6482 25.4062 10.1794 25.2656 9.75757L23.0156 12.0076C22.5938 12.4294 22.0312 12.6638 21.4219 12.6638H20.25C18.9844 12.6638 17.9531 11.6326 17.9531 10.3669V9.19507C17.9531 8.58569 18.1875 8.02319 18.6094 7.60132L20.8594 5.35132C20.4375 5.21069 19.9688 5.16382 19.5 5.16382C17.3438 5.16382 15.4688 6.28882 14.4375 7.97632L13.2188 7.03882C14.5312 4.97632 16.875 3.61694 19.5 3.61694C20.625 3.61694 21.75 3.89819 22.7344 4.36694C23.1562 4.60132 23.2031 5.16382 22.875 5.49194L19.6875 8.67944C19.5469 8.82007 19.5 9.00757 19.5 9.19507V10.3669C19.5 10.7888 19.8281 11.1169 20.25 11.1169H21.4219C21.6094 11.1169 21.7969 11.0701 21.9375 10.9294L25.125 7.74194C25.4531 7.41382 26.0625 7.46069 26.25 7.88257C26.7188 8.86694 27 9.99194 27 11.1169C27 13.6482 25.7344 15.8982 23.8125 17.2576L22.7344 16.1326C24.375 15.1013 25.4531 13.2263 25.4531 11.1169Z" fill="#1858FD"/>
</svg>
