<svg width="30" height="31" viewBox="0 0 30 31" fill="none" xmlns="http://www.w3.org/2000/svg">
<path d="M15 26.1169C19.125 26.1169 22.5 22.7888 22.5 18.6169C22.5 17.8669 22.1719 16.7888 21.6094 15.4763C21.0469 14.1638 20.2969 12.7576 19.4531 11.3982C17.7656 8.67944 15.8438 6.19507 15 5.11694H14.9531C14.1094 6.19507 12.1875 8.67944 10.5 11.3982C9.65625 12.7576 8.90625 14.1638 8.34375 15.4763C7.78125 16.7888 7.5 17.8669 7.5 18.6169C7.5 22.7888 10.8281 26.1169 15 26.1169ZM6 18.6169C6 14.3513 12.0938 6.33569 13.7812 4.17944C14.0625 3.85132 14.4844 3.61694 14.9531 3.61694H15C15.4688 3.61694 15.8906 3.85132 16.1719 4.17944C17.8594 6.33569 24 14.3513 24 18.6169C24 23.5857 19.9688 27.6169 15 27.6169C10.0312 27.6169 6 23.5857 6 18.6169ZM18.5156 16.1794L12.5156 22.1794C12.2344 22.4607 11.7188 22.4607 11.4375 22.1794C11.1562 21.8982 11.1562 21.3826 11.4375 21.1013L17.4375 15.1013C17.7188 14.8201 18.2344 14.8201 18.5156 15.1013C18.7969 15.3826 18.7969 15.8982 18.5156 16.1794ZM13.5 15.9919C13.5 16.6482 12.9844 17.1169 12.375 17.1169C11.7188 17.1169 11.25 16.6482 11.25 15.9919C11.25 15.3826 11.7188 14.8669 12.375 14.8669C12.9844 14.8669 13.5 15.3826 13.5 15.9919ZM17.625 22.3669C16.9688 22.3669 16.5 21.8982 16.5 21.2419C16.5 20.6326 16.9688 20.1169 17.625 20.1169C18.2344 20.1169 18.75 20.6326 18.75 21.2419C18.75 21.8982 18.2344 22.3669 17.625 22.3669Z" fill="#1858FD"/>
</svg>
