<svg width="30" height="31" viewBox="0 0 30 31" fill="none" xmlns="http://www.w3.org/2000/svg">
<path d="M9.1875 14.8201C10.2656 14.3513 11.4844 14.1169 12.75 14.1169H17.25C17.625 14.1169 18 14.4919 18 14.8669C18 15.2888 17.625 15.6169 17.25 15.6169H12.75C11.3906 15.6169 10.125 15.9451 9 16.5544C9.04688 20.2107 12.0469 23.1169 15.75 23.1169C20.8594 23.1169 25.5 17.9607 25.5 10.9763C25.5 9.89819 25.3594 8.86694 25.1719 7.88257C23.9531 8.96069 22.3594 9.61694 20.625 9.61694H15.75C12.5625 9.61694 9.89062 11.8201 9.1875 14.8201ZM7.5 15.6638C7.875 11.4451 11.4375 8.11694 15.75 8.11694H20.625C22.2656 8.11694 23.7188 7.36694 24.7031 6.19507V6.14819C24.8438 6.00757 24.9375 5.86694 25.0312 5.72632C25.0781 5.63257 25.1719 5.49194 25.2188 5.35132C25.4062 5.07007 25.875 5.02319 26.0156 5.35132C26.0625 5.53882 26.1094 5.67944 26.1562 5.86694C26.2031 6.05444 26.2969 6.19507 26.3438 6.38257V6.42944C26.7656 7.88257 27 9.38257 27 10.9763C27 18.5232 21.9844 24.6169 15.7969 24.6169H15.75C11.5312 24.6169 8.0625 21.5232 7.54688 17.4451C5.67188 18.9919 4.5 21.2888 4.5 23.8669V25.3669C4.5 25.7888 4.125 26.1169 3.75 26.1169C3.32812 26.1169 3 25.7888 3 25.3669V23.8669C3 20.4451 4.78125 17.3982 7.5 15.6638Z" fill="#1858FD"/>
</svg>
