<svg width="31" height="31" viewBox="0 0 31 31" fill="none" xmlns="http://www.w3.org/2000/svg">
<path d="M13.5 14.1169H18.4688C17.8594 14.5857 17.3438 15.0544 16.875 15.6169H12.75C12.3281 15.6169 12 15.2888 12 14.8669V4.46069C12 4.03882 12.3281 3.61694 12.7969 3.61694C18.2344 3.61694 22.7344 7.50757 23.7656 12.6638C23.5781 12.6638 23.3906 12.6169 23.25 12.6169C22.875 12.6169 22.5469 12.6638 22.2188 12.7107C21.3281 8.58569 17.7656 5.49194 13.5 5.16382V14.1169ZM12 17.1169H15.8906C15.6562 17.6326 15.4219 18.1013 15.2812 18.6169H10.5C9.65625 18.6169 9 17.9607 9 17.1169V6.89819C4.6875 7.92944 1.5 11.7732 1.5 16.3669C1.5 21.7576 5.85938 26.1169 11.25 26.1169C12.9844 26.1169 14.5781 25.6951 16.0312 24.8982C16.2656 25.3201 16.5469 25.7419 16.875 26.1169C15.1875 27.1013 13.2656 27.6169 11.25 27.6169C5.01562 27.6169 0 22.6013 0 16.3669C0 10.9763 3.79688 6.47632 8.90625 5.39819C9.75 5.21069 10.5 5.91382 10.5 6.75757V15.6169V17.1169H12ZM23.25 26.1169C25.125 26.1169 26.8125 25.1326 27.75 23.4919C28.7344 21.8982 28.7344 19.8826 27.75 18.2419C26.8125 16.6482 25.125 15.6169 23.25 15.6169C21.3281 15.6169 19.6406 16.6482 18.7031 18.2419C17.7188 19.8826 17.7188 21.8982 18.7031 23.4919C19.6406 25.1326 21.3281 26.1169 23.25 26.1169ZM23.25 14.1169C25.6406 14.1169 27.8438 15.4294 29.0625 17.4919C30.2812 19.6013 30.2812 22.1794 29.0625 24.2419C27.8438 26.3513 25.6406 27.6169 23.25 27.6169C20.8125 27.6169 18.6094 26.3513 17.3906 24.2419C16.1719 22.1794 16.1719 19.6013 17.3906 17.4919C18.6094 15.4294 20.8125 14.1169 23.25 14.1169ZM22.125 19.3669C22.125 19.4138 22.0781 19.4138 22.125 19.5076V19.5544C22.125 19.5544 22.125 19.6013 22.3125 19.7419C22.5938 19.8826 22.9688 19.9763 23.4375 20.1169C23.9062 20.2576 24.4688 20.3982 24.8906 20.6794C25.3594 20.9607 25.8281 21.4294 25.8281 22.1794C25.875 23.0232 25.4062 23.5857 24.8438 23.9138C24.5625 24.0544 24.2812 24.1482 23.9531 24.1951V24.7107C23.9531 25.1326 23.625 25.4607 23.2031 25.4607C22.8281 25.4607 22.4531 25.1326 22.4531 24.7107V24.1951C22.0781 24.1013 21.7031 23.9607 21.375 23.8669C21.2812 23.8201 21.1875 23.8201 21.1406 23.7732C20.7188 23.6794 20.5312 23.2576 20.625 22.8357C20.7656 22.4607 21.1875 22.2263 21.5625 22.3669C21.6562 22.3669 21.75 22.4138 21.8438 22.4607C22.3594 22.6013 22.7812 22.7419 23.25 22.7419C23.5781 22.7888 23.9062 22.6951 24.0938 22.6013C24.2344 22.5544 24.2812 22.4607 24.2812 22.4607C24.3281 22.4138 24.375 22.3201 24.3281 22.2263C24.3281 22.1794 24.3281 22.0857 24.1406 21.9451C23.8594 21.8044 23.5312 21.7107 23.0625 21.5701H22.9688C22.5469 21.4294 22.0312 21.2888 21.6094 21.0544C21.1406 20.8201 20.6719 20.3982 20.625 19.6482C20.5312 18.7576 21.0938 18.1951 21.6094 17.8669C21.8906 17.7263 22.1719 17.6326 22.4531 17.5857V17.1169C22.4531 16.7419 22.8281 16.3669 23.2031 16.3669C23.625 16.3669 23.9531 16.7419 23.9531 17.1169V17.5857C24.2812 17.6326 24.5625 17.6794 24.7969 17.7732C25.2188 17.8669 25.4531 18.2419 25.3594 18.6638C25.2656 19.0857 24.8438 19.3201 24.4688 19.2263C24 19.0857 23.5781 19.0388 23.2031 19.0388C22.9219 18.9919 22.5938 19.0857 22.3125 19.2263C22.2188 19.2732 22.1719 19.3201 22.125 19.3669Z" fill="#1858FD"/>
</svg>
