<svg width="30" height="31" viewBox="0 0 30 31" fill="none" xmlns="http://www.w3.org/2000/svg">
<path d="M13.5 12.8513V5.11694H7.5V12.8513C7.5 13.6951 7.26562 14.4919 6.79688 15.2419L4.6875 18.6169H14.25C14.3438 19.2732 14.7188 19.7888 15.2344 20.1169H3.79688L1.73438 23.4451C1.54688 23.7263 1.5 24.0544 1.5 24.3826C1.5 25.3669 2.25 26.1169 3.23438 26.1169H16.4531C17.1562 26.7732 18.1406 26.7732 18.9375 26.3513V26.3982C18.9375 26.7263 18.9844 27.0544 19.125 27.3357C18.7031 27.5232 18.2344 27.6169 17.7188 27.6169H3.23438C1.45312 27.6169 0 26.1638 0 24.3826C0 23.7732 0.140625 23.2107 0.46875 22.6951L5.53125 14.4451C5.8125 13.9763 6 13.4138 6 12.8513V5.11694H5.25C4.82812 5.11694 4.5 4.78882 4.5 4.36694C4.5 3.99194 4.82812 3.61694 5.25 3.61694H7.5H13.5H15.75C16.125 3.61694 16.5 3.99194 16.5 4.36694C16.5 4.78882 16.125 5.11694 15.75 5.11694H15V12.8513C15 13.4138 15.1406 13.9763 15.4219 14.4451L15.75 14.9138C15.5156 15.2419 15.2812 15.5701 15.0938 15.8982C15 16.0388 14.9062 16.1794 14.8594 16.3669L14.1562 15.2419C13.6875 14.4919 13.5 13.6951 13.5 12.8513ZM21.7031 14.8669C21.5625 15.6638 21.0469 16.2732 20.4375 16.6013C19.8281 16.9294 19.0312 17.0701 18.2812 16.7888L17.4844 18.1951C18.0938 18.7576 18.375 19.5076 18.375 20.2107C18.375 20.8669 18.0938 21.6638 17.4844 22.1794L18.2812 23.5857C19.0312 23.3044 19.8281 23.4451 20.4375 23.7732C21.0469 24.1013 21.5625 24.7107 21.7031 25.5076H23.2969C23.4375 24.7107 23.9062 24.1013 24.5156 23.7732C25.125 23.4451 25.9219 23.3044 26.6719 23.6326L27.4688 22.1794C26.8594 21.6638 26.625 20.8669 26.625 20.2107C26.625 19.5076 26.8594 18.7576 27.4688 18.1951L26.6719 16.7888C25.9219 17.0701 25.125 16.9294 24.5156 16.6013C23.9062 16.2732 23.4375 15.6638 23.2969 14.8669H21.7031ZM23.7188 13.3669C24.2812 13.3669 24.75 13.8357 24.75 14.3982V14.4451C24.75 14.8201 24.9375 15.1013 25.2656 15.2888C25.5469 15.4763 25.9219 15.4763 26.25 15.3357L26.3438 15.2888C26.8125 14.9607 27.4688 15.1482 27.75 15.6638L29.0156 17.8669C29.25 18.3357 29.1094 18.9451 28.6406 19.2263C28.2656 19.4138 28.125 19.7888 28.125 20.2107C28.125 20.5857 28.2656 20.9607 28.6406 21.1951C29.1094 21.4294 29.25 22.0388 29.0156 22.5544L27.75 24.7107C27.4688 25.2263 26.8125 25.4138 26.3438 25.1326L26.25 25.0857C25.9219 24.8982 25.5469 24.8982 25.2656 25.0857C24.9375 25.2732 24.75 25.5544 24.75 25.9294V25.9763C24.75 26.5388 24.2812 27.0076 23.7188 27.0076H21.2344C20.6719 27.0076 20.25 26.5388 20.25 26.0232V25.9294C20.25 25.6013 20.0156 25.2732 19.6875 25.0857C19.4062 24.8982 19.0312 24.8982 18.7031 25.0857L18.6562 25.1326C18.1406 25.4138 17.4844 25.2263 17.2031 24.7107L15.9844 22.5544C15.7031 22.0388 15.8438 21.4294 16.3125 21.1951C16.6875 20.9607 16.875 20.5857 16.875 20.2107C16.875 19.7888 16.6875 19.4138 16.3125 19.2263C15.8438 18.9451 15.7031 18.3357 15.9844 17.8669L17.2031 15.6638C17.4844 15.1482 18.1406 14.9607 18.6094 15.2419L18.7031 15.2888C19.0312 15.4763 19.4062 15.4763 19.6875 15.2888C20.0156 15.1013 20.25 14.8201 20.25 14.4451V14.3982C20.25 13.8357 20.6719 13.3669 21.2344 13.3669H23.7188ZM19.875 20.2107C19.875 19.2732 20.3438 18.3826 21.1875 17.9138C21.9844 17.4451 22.9688 17.4451 23.8125 17.9138C24.6094 18.3826 25.125 19.2732 25.125 20.2107C25.125 21.1482 24.6094 21.9919 23.8125 22.4607C22.9688 22.9294 21.9844 22.9294 21.1875 22.4607C20.3438 21.9919 19.875 21.1482 19.875 20.2107ZM22.5 21.3357C23.1094 21.3357 23.625 20.8201 23.625 20.2107C23.625 19.5544 23.1094 19.0857 22.5 19.0857C21.8438 19.0857 21.375 19.5544 21.375 20.2107C21.375 20.8201 21.8438 21.3357 22.5 21.3357Z" fill="#1858FD"/>
</svg>
